<svg xmlns="http://www.w3.org/2000/svg" xmlns:xlink="http://www.w3.org/1999/xlink" width="411" height="81"><g transform="scale(1,1.0125)"><text font-size="1344" font-family="&apos;Symbol&apos;,&apos;OpenSymbol&apos;" transform="scale(0.041666,0.041495)" xml:space="preserve" x="6234" y="1530"></text><text font-size="1344" font-family="&apos;Symbol&apos;,&apos;OpenSymbol&apos;" transform="scale(0.041666,0.041495)" xml:space="preserve" x="1085" y="1530"></text><text font-size="928" font-family="&apos;Symbol&apos;,&apos;OpenSymbol&apos;" transform="scale(0.041666,0.041495)" xml:space="preserve" x="5682" y="1216"></text><text font-size="928" font-family="&apos;Symbol&apos;,&apos;OpenSymbol&apos;" transform="scale(0.041666,0.041495)" xml:space="preserve" x="4954" y="1216"></text><text font-size="640" font-family="Times New Roman" font-style="italic" transform="scale(0.041666,0.041495)" xml:space="preserve" x="6773" y="564">a</text><text font-size="640" font-family="Times New Roman" font-style="italic" transform="scale(0.041666,0.041495)" xml:space="preserve" x="6619" y="1724">b</text><text font-size="640" font-family="Times New Roman" font-style="italic" transform="scale(0.041666,0.041495)" xml:space="preserve" x="1604" y="564">b</text><text font-size="640" font-family="Times New Roman" font-style="italic" transform="scale(0.041666,0.041495)" xml:space="preserve" x="1490" y="1724">a</text><text font-size="928" font-family="Times New Roman" font-style="italic" transform="scale(0.041666,0.041495)" xml:space="preserve" x="9432" y="1216">x</text><text font-size="928" font-family="Times New Roman" font-style="italic" transform="scale(0.041666,0.041495)" xml:space="preserve" x="8104" y="1216">x</text><text font-size="928" font-family="Times New Roman" font-style="italic" transform="scale(0.041666,0.041495)" xml:space="preserve" x="7246" y="1216">f</text><text font-size="928" font-family="Times New Roman" font-style="italic" transform="scale(0.041666,0.041495)" xml:space="preserve" x="4313" y="1216">x</text><text font-size="928" font-family="Times New Roman" font-style="italic" transform="scale(0.041666,0.041495)" xml:space="preserve" x="2985" y="1216">x</text><text font-size="928" font-family="Times New Roman" font-style="italic" transform="scale(0.041666,0.041495)" xml:space="preserve" x="2127" y="1216">f</text><text font-size="928" font-family="Times New Roman" transform="scale(0.041666,0.041495)" xml:space="preserve" x="8954" y="1216">d</text><text font-size="928" font-family="Times New Roman" transform="scale(0.041666,0.041495)" xml:space="preserve" x="8540" y="1216">)</text><text font-size="928" font-family="Times New Roman" transform="scale(0.041666,0.041495)" xml:space="preserve" x="7726" y="1216">(</text><text font-size="928" font-family="Times New Roman" transform="scale(0.041666,0.041495)" xml:space="preserve" x="3835" y="1216">d</text><text font-size="928" font-family="Times New Roman" transform="scale(0.041666,0.041495)" xml:space="preserve" x="3421" y="1216">)</text><text font-size="928" font-family="Times New Roman" transform="scale(0.041666,0.041495)" xml:space="preserve" x="2607" y="1216">(</text><text font-size="928" font-family="Times New Roman" transform="scale(0.041666,0.041495)" xml:space="preserve" x="412" y="1216">.</text><text font-size="928" font-family="Times New Roman" transform="scale(0.041666,0.041495)" xml:space="preserve" x="-52" y="1216">1</text></g></svg>