<svg xmlns="http://www.w3.org/2000/svg" xmlns:xlink="http://www.w3.org/1999/xlink" width="499" height="102"><text font-size="640" font-family="Times New Roman" font-style="italic" transform="scale(0.041666,0.041801)" xml:space="preserve" x="11746" y="1704">i</text><text font-size="640" font-family="Times New Roman" font-style="italic" transform="scale(0.041666,0.041801)" xml:space="preserve" x="9786" y="1704">i</text><text font-size="640" font-family="Times New Roman" font-style="italic" transform="scale(0.041666,0.041801)" xml:space="preserve" x="6896" y="1704">i</text><text font-size="640" font-family="Times New Roman" font-style="italic" transform="scale(0.041666,0.041801)" xml:space="preserve" x="4487" y="577">n</text><text font-size="640" font-family="Times New Roman" font-style="italic" transform="scale(0.041666,0.041801)" xml:space="preserve" x="4242" y="2384">i</text><text font-size="928" font-family="Times New Roman" font-style="italic" transform="scale(0.041666,0.041801)" xml:space="preserve" x="11246" y="1472">x</text><text font-size="928" font-family="Times New Roman" font-style="italic" transform="scale(0.041666,0.041801)" xml:space="preserve" x="8386" y="1472">g</text><text font-size="928" font-family="Times New Roman" font-style="italic" transform="scale(0.041666,0.041801)" xml:space="preserve" x="5554" y="1472">f</text><text font-size="928" font-family="&apos;Symbol&apos;,&apos;OpenSymbol&apos;" transform="scale(0.041666,0.041801)" xml:space="preserve" x="10681" y="1472"></text><text font-size="928" font-family="&apos;Symbol&apos;,&apos;OpenSymbol&apos;" transform="scale(0.041666,0.041801)" xml:space="preserve" x="7660" y="1472"></text><text font-size="928" font-family="&apos;Symbol&apos;,&apos;OpenSymbol&apos;" transform="scale(0.041666,0.041801)" xml:space="preserve" x="2028" y="1472"></text><text font-size="1216" font-family="&apos;Symbol&apos;,&apos;OpenSymbol&apos;" transform="scale(0.041666,0.041801)" xml:space="preserve" x="4215" y="1630"></text><text font-size="640" font-family="&apos;Symbol&apos;,&apos;OpenSymbol&apos;" transform="scale(0.041666,0.041801)" xml:space="preserve" x="4462" y="2384"></text><text font-size="640" font-family="&apos;Symbol&apos;,&apos;OpenSymbol&apos;" transform="scale(0.041666,0.041801)" xml:space="preserve" x="3148" y="2112"></text><text font-size="928" font-family="Times New Roman" transform="scale(0.041666,0.041801)" xml:space="preserve" x="10085 10397" y="1472">)]</text><text font-size="928" font-family="Times New Roman" transform="scale(0.041666,0.041801)" xml:space="preserve" x="8924" y="1472">(</text><text font-size="928" font-family="Times New Roman" transform="scale(0.041666,0.041801)" xml:space="preserve" x="7195" y="1472">)</text><text font-size="928" font-family="Times New Roman" transform="scale(0.041666,0.041801)" xml:space="preserve" x="6034" y="1472">(</text><text font-size="928" font-family="Times New Roman" transform="scale(0.041666,0.041801)" xml:space="preserve" x="5120" y="1472">[</text><text font-size="928" font-family="Times New Roman" transform="scale(0.041666,0.041801)" xml:space="preserve" x="2802 3066 3330" y="1472">lim</text><text font-size="640" font-family="Times New Roman" transform="scale(0.041666,0.041801)" xml:space="preserve" x="4772" y="2384">1</text><text font-size="640" font-family="Times New Roman" transform="scale(0.041666,0.041801)" xml:space="preserve" x="3788" y="2112">0</text><text font-size="928" font-family="&apos;Symbol&apos;,&apos;OpenSymbol&apos;" font-style="italic" transform="scale(0.041666,0.041801)" xml:space="preserve" x="9186" y="1472"></text><text font-size="928" font-family="&apos;Symbol&apos;,&apos;OpenSymbol&apos;" font-style="italic" transform="scale(0.041666,0.041801)" xml:space="preserve" x="6296" y="1472"></text><text font-size="640" font-family="&apos;Symbol&apos;,&apos;OpenSymbol&apos;" font-style="italic" transform="scale(0.041666,0.041801)" xml:space="preserve" x="2738" y="2112"></text><text font-size="928" font-family="&apos;楷体_GB2312&apos;,&apos;DejaVu Sans&apos;" transform="scale(0.041666,0.041801)" xml:space="preserve" x="21 933" y="1472">左端</text></svg>