<svg xmlns="http://www.w3.org/2000/svg" xmlns:xlink="http://www.w3.org/1999/xlink" width="480" height="70"><text font-size="928" font-family="Times New Roman" transform="scale(0.041637,0.041863)" xml:space="preserve" x="11277" y="800">,</text><text font-size="928" font-family="Times New Roman" transform="scale(0.041637,0.041863)" xml:space="preserve" x="10793" y="800">)</text><text font-size="928" font-family="Times New Roman" transform="scale(0.041637,0.041863)" xml:space="preserve" x="9979" y="800">(</text><text font-size="928" font-family="Times New Roman" transform="scale(0.041637,0.041863)" xml:space="preserve" x="7749 8445 8710" y="800">min</text><text font-size="928" font-family="Times New Roman" transform="scale(0.041637,0.041863)" xml:space="preserve" x="5479" y="800">,</text><text font-size="928" font-family="Times New Roman" transform="scale(0.041637,0.041863)" xml:space="preserve" x="5091" y="800">)</text><text font-size="928" font-family="Times New Roman" transform="scale(0.041637,0.041863)" xml:space="preserve" x="4277" y="800">(</text><text font-size="928" font-family="Times New Roman" transform="scale(0.041637,0.041863)" xml:space="preserve" x="1902 2598 3007" y="800">max</text><text font-size="640" font-family="Times New Roman" transform="scale(0.041637,0.041863)" xml:space="preserve" x="9001" y="1440">]</text><text font-size="640" font-family="Times New Roman" transform="scale(0.041637,0.041863)" xml:space="preserve" x="8367" y="1440">,</text><text font-size="640" font-family="Times New Roman" transform="scale(0.041637,0.041863)" xml:space="preserve" x="7725" y="1440">[</text><text font-size="640" font-family="Times New Roman" transform="scale(0.041637,0.041863)" xml:space="preserve" x="3227" y="1454">]</text><text font-size="640" font-family="Times New Roman" transform="scale(0.041637,0.041863)" xml:space="preserve" x="2593" y="1454">,</text><text font-size="640" font-family="Times New Roman" transform="scale(0.041637,0.041863)" xml:space="preserve" x="1951" y="1454">[</text><text font-size="928" font-family="Times New Roman" font-style="italic" transform="scale(0.041637,0.041863)" xml:space="preserve" x="10357" y="800">x</text><text font-size="928" font-family="Times New Roman" font-style="italic" transform="scale(0.041637,0.041863)" xml:space="preserve" x="9499" y="800">f</text><text font-size="928" font-family="Times New Roman" font-style="italic" transform="scale(0.041637,0.041863)" xml:space="preserve" x="6157" y="800">m</text><text font-size="928" font-family="Times New Roman" font-style="italic" transform="scale(0.041637,0.041863)" xml:space="preserve" x="4655" y="800">x</text><text font-size="928" font-family="Times New Roman" font-style="italic" transform="scale(0.041637,0.041863)" xml:space="preserve" x="3797" y="800">f</text><text font-size="928" font-family="Times New Roman" font-style="italic" transform="scale(0.041637,0.041863)" xml:space="preserve" x="64" y="800">M</text><text font-size="640" font-family="Times New Roman" font-style="italic" transform="scale(0.041637,0.041863)" xml:space="preserve" x="8647" y="1440">b</text><text font-size="640" font-family="Times New Roman" font-style="italic" transform="scale(0.041637,0.041863)" xml:space="preserve" x="7979" y="1440">a</text><text font-size="640" font-family="Times New Roman" font-style="italic" transform="scale(0.041637,0.041863)" xml:space="preserve" x="2873" y="1454">b</text><text font-size="640" font-family="Times New Roman" font-style="italic" transform="scale(0.041637,0.041863)" xml:space="preserve" x="2205" y="1454">a</text><text font-size="928" font-family="&apos;Symbol&apos;,&apos;OpenSymbol&apos;" transform="scale(0.041637,0.041863)" xml:space="preserve" x="7033" y="800"></text><text font-size="928" font-family="&apos;Symbol&apos;,&apos;OpenSymbol&apos;" transform="scale(0.041637,0.041863)" xml:space="preserve" x="1186" y="800"></text></svg>