<svg xmlns="http://www.w3.org/2000/svg" xmlns:xlink="http://www.w3.org/1999/xlink" width="518" height="47"><text font-size="928" font-family="Times New Roman" transform="scale(0.041693,0.041666)" xml:space="preserve" x="12231" y="864">.</text><text font-size="928" font-family="Times New Roman" transform="scale(0.041693,0.041666)" xml:space="preserve" x="7206" y="864">]</text><text font-size="928" font-family="Times New Roman" transform="scale(0.041693,0.041666)" xml:space="preserve" x="6425" y="864">,</text><text font-size="928" font-family="Times New Roman" transform="scale(0.041693,0.041666)" xml:space="preserve" x="5610" y="864">[</text><text font-size="928" font-family="Times New Roman" transform="scale(0.041693,0.041666)" xml:space="preserve" x="4269" y="864">)</text><text font-size="928" font-family="Times New Roman" transform="scale(0.041693,0.041666)" xml:space="preserve" x="3455" y="864">(</text><text font-size="928" font-family="&apos;楷体_GB2312&apos;,&apos;DejaVu Sans&apos;" transform="scale(0.041693,0.041666)" xml:space="preserve" x="7551 8462 9374 10285 11197" y="864">上的平均值</text><text font-size="928" font-family="&apos;楷体_GB2312&apos;,&apos;DejaVu Sans&apos;" transform="scale(0.041693,0.041666)" xml:space="preserve" x="4671" y="864">在</text><text font-size="928" font-family="&apos;楷体_GB2312&apos;,&apos;DejaVu Sans&apos;" transform="scale(0.041693,0.041666)" xml:space="preserve" x="21 932 1844" y="864">理解为</text><text font-size="928" font-family="Times New Roman" font-style="italic" transform="scale(0.041693,0.041666)" xml:space="preserve" x="6726" y="864">b</text><text font-size="928" font-family="Times New Roman" font-style="italic" transform="scale(0.041693,0.041666)" xml:space="preserve" x="5945" y="864">a</text><text font-size="928" font-family="Times New Roman" font-style="italic" transform="scale(0.041693,0.041666)" xml:space="preserve" x="3833" y="864">x</text><text font-size="928" font-family="Times New Roman" font-style="italic" transform="scale(0.041693,0.041666)" xml:space="preserve" x="2975" y="864">f</text></svg>