<svg xmlns="http://www.w3.org/2000/svg" xmlns:xlink="http://www.w3.org/1999/xlink" width="302" height="102"><text font-size="928" font-family="Times New Roman" transform="scale(0.041712,0.041801)" xml:space="preserve" x="6774" y="1472">0</text><text font-size="928" font-family="Times New Roman" transform="scale(0.041712,0.041801)" xml:space="preserve" x="4190" y="1472">)</text><text font-size="928" font-family="Times New Roman" transform="scale(0.041712,0.041801)" xml:space="preserve" x="3105" y="1472">(</text><text font-size="640" font-family="Times New Roman" transform="scale(0.041712,0.041801)" xml:space="preserve" x="2031" y="2384">1</text><text font-size="928" font-family="&apos;Symbol&apos;,&apos;OpenSymbol&apos;" transform="scale(0.041712,0.041801)" xml:space="preserve" x="6073" y="1472"></text><text font-size="928" font-family="&apos;Symbol&apos;,&apos;OpenSymbol&apos;" transform="scale(0.041712,0.041801)" xml:space="preserve" x="4607" y="1472"></text><text font-size="1216" font-family="&apos;Symbol&apos;,&apos;OpenSymbol&apos;" transform="scale(0.041712,0.041801)" xml:space="preserve" x="1474" y="1630"></text><text font-size="640" font-family="&apos;Symbol&apos;,&apos;OpenSymbol&apos;" transform="scale(0.041712,0.041801)" xml:space="preserve" x="1721" y="2384"></text><text font-size="640" font-family="Times New Roman" font-style="italic" transform="scale(0.041712,0.041801)" xml:space="preserve" x="5596" y="1704">i</text><text font-size="640" font-family="Times New Roman" font-style="italic" transform="scale(0.041712,0.041801)" xml:space="preserve" x="3891" y="1704">i</text><text font-size="640" font-family="Times New Roman" font-style="italic" transform="scale(0.041712,0.041801)" xml:space="preserve" x="1746" y="577">n</text><text font-size="640" font-family="Times New Roman" font-style="italic" transform="scale(0.041712,0.041801)" xml:space="preserve" x="1501" y="2384">i</text><text font-size="928" font-family="Times New Roman" font-style="italic" transform="scale(0.041712,0.041801)" xml:space="preserve" x="5172" y="1472">x</text><text font-size="928" font-family="Times New Roman" font-style="italic" transform="scale(0.041712,0.041801)" xml:space="preserve" x="2625" y="1472">f</text><text font-size="928" font-family="&apos;Symbol&apos;,&apos;OpenSymbol&apos;" font-style="italic" transform="scale(0.041712,0.041801)" xml:space="preserve" x="3367" y="1472"></text><text font-size="928" font-family="&apos;MT Extra&apos;,&apos;DejaVu Sans&apos;" transform="scale(0.041712,0.041801)" xml:space="preserve" x="-95" y="1472"></text></svg>