<svg xmlns="http://www.w3.org/2000/svg" xmlns:xlink="http://www.w3.org/1999/xlink" width="253" height="108"><g transform="scale(1.00397,1.00935)"><text font-size="704" font-family="Times New Roman" font-style="italic" transform="scale(0.041611,0.041666)" xml:space="preserve" x="5821" y="1768">i</text><text font-size="704" font-family="Times New Roman" font-style="italic" transform="scale(0.041611,0.041666)" xml:space="preserve" x="1898" y="625">n</text><text font-size="704" font-family="Times New Roman" font-style="italic" transform="scale(0.041611,0.041666)" xml:space="preserve" x="1634" y="2512">i</text><text font-size="704" font-family="Times New Roman" font-style="italic" transform="scale(0.041611,0.041666)" xml:space="preserve" x="4055" y="1768">i</text><text font-size="928" font-family="Times New Roman" font-style="italic" transform="scale(0.041611,0.041666)" xml:space="preserve" x="5400" y="1536">x</text><text font-size="928" font-family="Times New Roman" font-style="italic" transform="scale(0.041611,0.041666)" xml:space="preserve" x="2792" y="1536">f</text><text font-size="928" font-family="&apos;Symbol&apos;,&apos;OpenSymbol&apos;" transform="scale(0.041611,0.041666)" xml:space="preserve" x="4788" y="1536"></text><text font-size="1216" font-family="&apos;Symbol&apos;,&apos;OpenSymbol&apos;" transform="scale(0.041611,0.041666)" xml:space="preserve" x="1641" y="1694"></text><text font-size="704" font-family="&apos;Symbol&apos;,&apos;OpenSymbol&apos;" transform="scale(0.041611,0.041666)" xml:space="preserve" x="1870" y="2512"></text><text font-size="704" font-family="&apos;Symbol&apos;,&apos;OpenSymbol&apos;" transform="scale(0.041611,0.041666)" xml:space="preserve" x="487" y="2240"></text><text font-size="704" font-family="Times New Roman" transform="scale(0.041611,0.041666)" xml:space="preserve" x="2205" y="2512">1</text><text font-size="704" font-family="Times New Roman" transform="scale(0.041611,0.041666)" xml:space="preserve" x="1185" y="2240">0</text><text font-size="928" font-family="Times New Roman" transform="scale(0.041611,0.041666)" xml:space="preserve" x="4371" y="1536">)</text><text font-size="928" font-family="Times New Roman" transform="scale(0.041611,0.041666)" xml:space="preserve" x="3272" y="1536">(</text><text font-size="928" font-family="Times New Roman" transform="scale(0.041611,0.041666)" xml:space="preserve" x="168 432 697" y="1536">lim</text><text font-size="928" font-family="&apos;Symbol&apos;,&apos;OpenSymbol&apos;" font-style="italic" transform="scale(0.041611,0.041666)" xml:space="preserve" x="3534" y="1536"></text><text font-size="704" font-family="&apos;Symbol&apos;,&apos;OpenSymbol&apos;" font-style="italic" transform="scale(0.041611,0.041666)" xml:space="preserve" x="42" y="2240"></text></g></svg>