<svg xmlns="http://www.w3.org/2000/svg" xmlns:xlink="http://www.w3.org/1999/xlink" width="320" height="53"><g transform="scale(1.00313,1.01923)"><text font-size="928" font-family="Times New Roman" transform="scale(0.041666,0.041406)" xml:space="preserve" x="7314" y="992">)</text><text font-size="928" font-family="Times New Roman" transform="scale(0.041666,0.041406)" xml:space="preserve" x="3033" y="992">2</text><text font-size="928" font-family="Times New Roman" transform="scale(0.041666,0.041406)" xml:space="preserve" x="1364" y="992">1</text><text font-size="928" font-family="Times New Roman" transform="scale(0.041666,0.041406)" xml:space="preserve" x="1131" y="992">(</text><text font-size="928" font-family="Times New Roman" transform="scale(0.041666,0.041406)" xml:space="preserve" x="737" y="992">3</text><text font-size="640" font-family="Times New Roman" transform="scale(0.041666,0.041406)" xml:space="preserve" x="6895" y="575">2</text><text font-size="640" font-family="Times New Roman" transform="scale(0.041666,0.041406)" xml:space="preserve" x="3527" y="575">2</text><text font-size="640" font-family="Times New Roman" transform="scale(0.041666,0.041406)" xml:space="preserve" x="1786" y="575">2</text><text font-size="928" font-family="Times New Roman" font-style="italic" transform="scale(0.041666,0.041406)" xml:space="preserve" x="6386" y="992">n</text><text font-size="928" font-family="&apos;Symbol&apos;,&apos;OpenSymbol&apos;" transform="scale(0.041666,0.041406)" xml:space="preserve" x="5703" y="992"></text><text font-size="928" font-family="&apos;Symbol&apos;,&apos;OpenSymbol&apos;" transform="scale(0.041666,0.041406)" xml:space="preserve" x="4091" y="992"></text><text font-size="928" font-family="&apos;Symbol&apos;,&apos;OpenSymbol&apos;" transform="scale(0.041666,0.041406)" xml:space="preserve" x="2350" y="992"></text><text font-size="928" font-family="&apos;Symbol&apos;,&apos;OpenSymbol&apos;" transform="scale(0.041666,0.041406)" xml:space="preserve" x="50" y="992"></text><text font-size="928" font-family="&apos;MT Extra&apos;,&apos;DejaVu Sans&apos;" transform="scale(0.041666,0.041406)" xml:space="preserve" x="4687" y="992"></text></g></svg>