<svg xmlns="http://www.w3.org/2000/svg" xmlns:xlink="http://www.w3.org/1999/xlink" width="410" height="53"><g transform="scale(1,1.01923)"><text font-size="928" font-family="Times New Roman" transform="scale(0.0417,0.041406)" xml:space="preserve" x="9601" y="992">,</text><text font-size="928" font-family="Times New Roman" transform="scale(0.0417,0.041406)" xml:space="preserve" x="9044" y="992">1</text><text font-size="928" font-family="Times New Roman" transform="scale(0.0417,0.041406)" xml:space="preserve" x="7429" y="992">3</text><text font-size="928" font-family="Times New Roman" transform="scale(0.0417,0.041406)" xml:space="preserve" x="5293" y="992">3</text><text font-size="928" font-family="Times New Roman" transform="scale(0.0417,0.041406)" xml:space="preserve" x="1969" y="992">)</text><text font-size="928" font-family="Times New Roman" transform="scale(0.0417,0.041406)" xml:space="preserve" x="1576" y="992">1</text><text font-size="928" font-family="Times New Roman" transform="scale(0.0417,0.041406)" xml:space="preserve" x="35" y="992">(</text><text font-size="640" font-family="Times New Roman" transform="scale(0.0417,0.041406)" xml:space="preserve" x="6211" y="575">2</text><text font-size="640" font-family="Times New Roman" transform="scale(0.0417,0.041406)" xml:space="preserve" x="4095" y="575">3</text><text font-size="640" font-family="Times New Roman" transform="scale(0.0417,0.041406)" xml:space="preserve" x="2298" y="575">3</text><text font-size="928" font-family="&apos;Symbol&apos;,&apos;OpenSymbol&apos;" transform="scale(0.0417,0.041406)" xml:space="preserve" x="8463" y="992"></text><text font-size="928" font-family="&apos;Symbol&apos;,&apos;OpenSymbol&apos;" transform="scale(0.0417,0.041406)" xml:space="preserve" x="6775" y="992"></text><text font-size="928" font-family="&apos;Symbol&apos;,&apos;OpenSymbol&apos;" transform="scale(0.0417,0.041406)" xml:space="preserve" x="4639" y="992"></text><text font-size="928" font-family="&apos;Symbol&apos;,&apos;OpenSymbol&apos;" transform="scale(0.0417,0.041406)" xml:space="preserve" x="2890" y="992"></text><text font-size="928" font-family="&apos;Symbol&apos;,&apos;OpenSymbol&apos;" transform="scale(0.0417,0.041406)" xml:space="preserve" x="995" y="992"></text><text font-size="928" font-family="Times New Roman" font-style="italic" transform="scale(0.0417,0.041406)" xml:space="preserve" x="7838" y="992">n</text><text font-size="928" font-family="Times New Roman" font-style="italic" transform="scale(0.0417,0.041406)" xml:space="preserve" x="5702" y="992">n</text><text font-size="928" font-family="Times New Roman" font-style="italic" transform="scale(0.0417,0.041406)" xml:space="preserve" x="3606" y="992">n</text><text font-size="928" font-family="Times New Roman" font-style="italic" transform="scale(0.0417,0.041406)" xml:space="preserve" x="370" y="992">n</text></g></svg>