<svg xmlns="http://www.w3.org/2000/svg" xmlns:xlink="http://www.w3.org/1999/xlink" width="434" height="106"><text font-size="640" font-family="Times New Roman" font-style="italic" transform="scale(0.041698,0.041796)" xml:space="preserve" x="10188" y="1736">i</text><text font-size="640" font-family="Times New Roman" font-style="italic" transform="scale(0.041698,0.041796)" xml:space="preserve" x="7232" y="556">n</text><text font-size="640" font-family="Times New Roman" font-style="italic" transform="scale(0.041698,0.041796)" xml:space="preserve" x="6975" y="2469">i</text><text font-size="640" font-family="Times New Roman" font-style="italic" transform="scale(0.041698,0.041796)" xml:space="preserve" x="8544" y="1736">i</text><text font-size="928" font-family="Times New Roman" font-style="italic" transform="scale(0.041698,0.041796)" xml:space="preserve" x="9752" y="1504">x</text><text font-size="928" font-family="Times New Roman" font-style="italic" transform="scale(0.041698,0.041796)" xml:space="preserve" x="4041" y="1504">x</text><text font-size="928" font-family="Times New Roman" font-style="italic" transform="scale(0.041698,0.041796)" xml:space="preserve" x="2561" y="1504">x</text><text font-size="928" font-family="&apos;Symbol&apos;,&apos;OpenSymbol&apos;" transform="scale(0.041698,0.041796)" xml:space="preserve" x="9172" y="1504"></text><text font-size="928" font-family="&apos;Symbol&apos;,&apos;OpenSymbol&apos;" transform="scale(0.041698,0.041796)" xml:space="preserve" x="4682" y="1504"></text><text font-size="928" font-family="&apos;Symbol&apos;,&apos;OpenSymbol&apos;" transform="scale(0.041698,0.041796)" xml:space="preserve" x="-95" y="1504"></text><text font-size="1344" font-family="&apos;Symbol&apos;,&apos;OpenSymbol&apos;" transform="scale(0.041698,0.041796)" xml:space="preserve" x="6915" y="1703"></text><text font-size="1344" font-family="&apos;Symbol&apos;,&apos;OpenSymbol&apos;" transform="scale(0.041698,0.041796)" xml:space="preserve" x="1743" y="1818"></text><text font-size="640" font-family="&apos;Symbol&apos;,&apos;OpenSymbol&apos;" transform="scale(0.041698,0.041796)" xml:space="preserve" x="7207" y="2469"></text><text font-size="640" font-family="&apos;Symbol&apos;,&apos;OpenSymbol&apos;" transform="scale(0.041698,0.041796)" xml:space="preserve" x="5826" y="2144"></text><text font-size="640" font-family="Times New Roman" transform="scale(0.041698,0.041796)" xml:space="preserve" x="7529" y="2469">1</text><text font-size="640" font-family="Times New Roman" transform="scale(0.041698,0.041796)" xml:space="preserve" x="8800" y="1046">2</text><text font-size="640" font-family="Times New Roman" transform="scale(0.041698,0.041796)" xml:space="preserve" x="6478" y="2144">0</text><text font-size="640" font-family="Times New Roman" transform="scale(0.041698,0.041796)" xml:space="preserve" x="2124" y="852">1</text><text font-size="640" font-family="Times New Roman" transform="scale(0.041698,0.041796)" xml:space="preserve" x="2050" y="2012">0</text><text font-size="640" font-family="Times New Roman" transform="scale(0.041698,0.041796)" xml:space="preserve" x="3038" y="1087">2</text><text font-size="928" font-family="Times New Roman" transform="scale(0.041698,0.041796)" xml:space="preserve" x="5480 5744 6008" y="1504">lim</text><text font-size="928" font-family="Times New Roman" transform="scale(0.041698,0.041796)" xml:space="preserve" x="3563" y="1504">d</text><text font-size="928" font-family="&apos;Symbol&apos;,&apos;OpenSymbol&apos;" font-style="italic" transform="scale(0.041698,0.041796)" xml:space="preserve" x="7920" y="1504"></text><text font-size="640" font-family="&apos;Symbol&apos;,&apos;OpenSymbol&apos;" font-style="italic" transform="scale(0.041698,0.041796)" xml:space="preserve" x="5404" y="2144"></text></svg>