<svg xmlns="http://www.w3.org/2000/svg" xmlns:xlink="http://www.w3.org/1999/xlink" width="233" height="73"><g transform="scale(1.00431,1.01389)"><text font-size="928" font-family="Times New Roman" transform="scale(0.041607,0.041477)" xml:space="preserve" x="5330" y="800">,</text><text font-size="928" font-family="Times New Roman" transform="scale(0.041607,0.041477)" xml:space="preserve" x="4869" y="800">}</text><text font-size="928" font-family="Times New Roman" transform="scale(0.041607,0.041477)" xml:space="preserve" x="3203" y="800">{</text><text font-size="928" font-family="Times New Roman" transform="scale(0.041607,0.041477)" xml:space="preserve" x="1587 2284 2693" y="800">max</text><text font-size="704" font-family="Times New Roman" transform="scale(0.041607,0.041477)" xml:space="preserve" x="1451" y="1518">1</text><text font-size="704" font-family="Times New Roman" font-style="italic" transform="scale(0.041607,0.041477)" xml:space="preserve" x="4611" y="1032">i</text><text font-size="704" font-family="Times New Roman" font-style="italic" transform="scale(0.041607,0.041477)" xml:space="preserve" x="2900" y="1518">n</text><text font-size="704" font-family="Times New Roman" font-style="italic" transform="scale(0.041607,0.041477)" xml:space="preserve" x="2203" y="1518">i</text><text font-size="928" font-family="Times New Roman" font-style="italic" transform="scale(0.041607,0.041477)" xml:space="preserve" x="4190" y="800">x</text><text font-size="928" font-family="&apos;Symbol&apos;,&apos;OpenSymbol&apos;" transform="scale(0.041607,0.041477)" xml:space="preserve" x="3625" y="800"></text><text font-size="928" font-family="&apos;Symbol&apos;,&apos;OpenSymbol&apos;" transform="scale(0.041607,0.041477)" xml:space="preserve" x="809" y="800"></text><text font-size="704" font-family="&apos;Symbol&apos;,&apos;OpenSymbol&apos;" transform="scale(0.041607,0.041477)" xml:space="preserve" x="2488" y="1518"></text><text font-size="704" font-family="&apos;Symbol&apos;,&apos;OpenSymbol&apos;" transform="scale(0.041607,0.041477)" xml:space="preserve" x="1753" y="1518"></text><text font-size="928" font-family="&apos;Symbol&apos;,&apos;OpenSymbol&apos;" font-style="italic" transform="scale(0.041607,0.041477)" xml:space="preserve" x="35" y="800"></text></g></svg>