<svg xmlns="http://www.w3.org/2000/svg" xmlns:xlink="http://www.w3.org/1999/xlink" width="234" height="110"><text font-size="1280" font-family="&apos;Symbol&apos;,&apos;OpenSymbol&apos;" transform="scale(0.041725,0.041792)" xml:space="preserve" x="3173" y="1746"></text><text font-size="704" font-family="&apos;Symbol&apos;,&apos;OpenSymbol&apos;" transform="scale(0.041725,0.041792)" xml:space="preserve" x="3425" y="2570"></text><text font-size="704" font-family="&apos;Symbol&apos;,&apos;OpenSymbol&apos;" transform="scale(0.041725,0.041792)" xml:space="preserve" x="2020" y="2272"></text><text font-size="928" font-family="&apos;Symbol&apos;,&apos;OpenSymbol&apos;" transform="scale(0.041725,0.041792)" xml:space="preserve" x="4195" y="1568"></text><text font-size="928" font-family="&apos;Symbol&apos;,&apos;OpenSymbol&apos;" transform="scale(0.041725,0.041792)" xml:space="preserve" x="867" y="1568"></text><text font-size="704" font-family="Times New Roman" font-style="italic" transform="scale(0.041725,0.041792)" xml:space="preserve" x="3453" y="630">n</text><text font-size="704" font-family="Times New Roman" font-style="italic" transform="scale(0.041725,0.041792)" xml:space="preserve" x="3189" y="2570">i</text><text font-size="704" font-family="Times New Roman" font-style="italic" transform="scale(0.041725,0.041792)" xml:space="preserve" x="5269" y="1800">i</text><text font-size="928" font-family="Times New Roman" font-style="italic" transform="scale(0.041725,0.041792)" xml:space="preserve" x="4760" y="1568">A</text><text font-size="928" font-family="Times New Roman" font-style="italic" transform="scale(0.041725,0.041792)" xml:space="preserve" x="122" y="1568">A</text><text font-size="704" font-family="Times New Roman" transform="scale(0.041725,0.041792)" xml:space="preserve" x="3760" y="2570">1</text><text font-size="704" font-family="Times New Roman" transform="scale(0.041725,0.041792)" xml:space="preserve" x="2718" y="2272">0</text><text font-size="928" font-family="Times New Roman" transform="scale(0.041725,0.041792)" xml:space="preserve" x="1701 1965 2228" y="1568">lim</text><text font-size="704" font-family="&apos;Symbol&apos;,&apos;OpenSymbol&apos;" font-style="italic" transform="scale(0.041725,0.041792)" xml:space="preserve" x="1575" y="2272"></text></svg>