<svg xmlns="http://www.w3.org/2000/svg" xmlns:xlink="http://www.w3.org/1999/xlink" width="526" height="53"><g transform="scale(1,1.01923)"><text font-size="928" font-family="Times New Roman" transform="scale(0.041693,0.041406)" xml:space="preserve" x="12281" y="800">)</text><text font-size="928" font-family="Times New Roman" transform="scale(0.041693,0.041406)" xml:space="preserve" x="6600" y="800">(</text><text font-size="928" font-family="Times New Roman" transform="scale(0.041693,0.041406)" xml:space="preserve" x="4101" y="800">)</text><text font-size="928" font-family="Times New Roman" transform="scale(0.041693,0.041406)" xml:space="preserve" x="3002" y="800">(</text><text font-size="704" font-family="Times New Roman" transform="scale(0.041693,0.041406)" xml:space="preserve" x="11710" y="1032">1</text><text font-size="704" font-family="&apos;Symbol&apos;,&apos;OpenSymbol&apos;" transform="scale(0.041693,0.041406)" xml:space="preserve" x="11375" y="1032"></text><text font-size="928" font-family="&apos;Symbol&apos;,&apos;OpenSymbol&apos;" transform="scale(0.041693,0.041406)" xml:space="preserve" x="10039" y="800"></text><text font-size="928" font-family="&apos;Symbol&apos;,&apos;OpenSymbol&apos;" transform="scale(0.041693,0.041406)" xml:space="preserve" x="8430" y="800"></text><text font-size="928" font-family="&apos;Symbol&apos;,&apos;OpenSymbol&apos;" transform="scale(0.041693,0.041406)" xml:space="preserve" x="6935" y="800"></text><text font-size="928" font-family="&apos;Symbol&apos;,&apos;OpenSymbol&apos;" transform="scale(0.041693,0.041406)" xml:space="preserve" x="4436" y="800"></text><text font-size="928" font-family="&apos;Symbol&apos;,&apos;OpenSymbol&apos;" transform="scale(0.041693,0.041406)" xml:space="preserve" x="1633" y="800"></text><text font-size="928" font-family="&apos;Symbol&apos;,&apos;OpenSymbol&apos;" transform="scale(0.041693,0.041406)" xml:space="preserve" x="50" y="800"></text><text font-size="704" font-family="Times New Roman" font-style="italic" transform="scale(0.041693,0.041406)" xml:space="preserve" x="11139" y="1032">i</text><text font-size="704" font-family="Times New Roman" font-style="italic" transform="scale(0.041693,0.041406)" xml:space="preserve" x="9578" y="1032">i</text><text font-size="704" font-family="Times New Roman" font-style="italic" transform="scale(0.041693,0.041406)" xml:space="preserve" x="7921" y="1032">i</text><text font-size="704" font-family="Times New Roman" font-style="italic" transform="scale(0.041693,0.041406)" xml:space="preserve" x="5422" y="1032">i</text><text font-size="704" font-family="Times New Roman" font-style="italic" transform="scale(0.041693,0.041406)" xml:space="preserve" x="3785" y="1032">i</text><text font-size="704" font-family="Times New Roman" font-style="italic" transform="scale(0.041693,0.041406)" xml:space="preserve" x="1124" y="1032">i</text><text font-size="928" font-family="Times New Roman" font-style="italic" transform="scale(0.041693,0.041406)" xml:space="preserve" x="10750" y="800">x</text><text font-size="928" font-family="Times New Roman" font-style="italic" transform="scale(0.041693,0.041406)" xml:space="preserve" x="9189" y="800">x</text><text font-size="928" font-family="Times New Roman" font-style="italic" transform="scale(0.041693,0.041406)" xml:space="preserve" x="7500" y="800">x</text><text font-size="928" font-family="Times New Roman" font-style="italic" transform="scale(0.041693,0.041406)" xml:space="preserve" x="5001" y="800">x</text><text font-size="928" font-family="Times New Roman" font-style="italic" transform="scale(0.041693,0.041406)" xml:space="preserve" x="2522" y="800">f</text><text font-size="928" font-family="Times New Roman" font-style="italic" transform="scale(0.041693,0.041406)" xml:space="preserve" x="615" y="800">A</text><text font-size="928" font-family="&apos;Symbol&apos;,&apos;OpenSymbol&apos;" font-style="italic" transform="scale(0.041693,0.041406)" xml:space="preserve" x="3264" y="800"></text></g></svg>