<svg xmlns="http://www.w3.org/2000/svg" xmlns:xlink="http://www.w3.org/1999/xlink" width="559" height="102"><g transform="scale(2.47345,2.55)"><line x1="999" y1="512" x2="1858" y2="512" stroke="rgb(0, 0, 0)" stroke-width="19" stroke-miterlimit="0" stroke-linecap="round" stroke-linejoin="round" shape-rendering="optimizeSpeed" transform="scale(0.041727,0.04133)" /><text font-size="222" font-family="Times New Roman" transform="scale(0.041727,0.04133)" xml:space="preserve" x="844" y="317">1</text><text font-size="222" font-family="Times New Roman" transform="scale(0.041727,0.04133)" xml:space="preserve" x="1692" y="736">2</text><text font-size="222" font-family="Times New Roman" transform="scale(0.041727,0.04133)" xml:space="preserve" x="808" y="817">0</text><text font-size="384" font-family="Times New Roman" transform="scale(0.041727,0.04133)" xml:space="preserve" x="1338" y="366">4</text><text font-size="384" font-family="Times New Roman" transform="scale(0.041727,0.04133)" xml:space="preserve" x="1918 3316 3508 3604 3796 3988 4180 4372 4564 4756" y="608">d3.1415926</text><text font-size="384" font-family="Times New Roman" transform="scale(0.041727,0.04133)" xml:space="preserve" x="981" y="908">1</text><text font-size="384" font-family="&apos;STKaiti&apos;,&apos;Rekha&apos;" transform="scale(0.041727,0.04133)" xml:space="preserve" x="2746" y="608">π</text><text font-size="384" font-family="Times New Roman" font-style="italic" transform="scale(0.041727,0.04133)" xml:space="preserve" x="70 2188" y="608">Ix</text><text font-size="384" font-family="Times New Roman" font-style="italic" transform="scale(0.041727,0.04133)" xml:space="preserve" x="1503" y="908">x</text><text font-size="384" font-family="&apos;Symbol&apos;,&apos;OpenSymbol&apos;" transform="scale(0.041727,0.04133)" xml:space="preserve" x="328 2452 3028" y="608"></text><text font-size="384" font-family="&apos;Symbol&apos;,&apos;OpenSymbol&apos;" transform="scale(0.041727,0.04133)" xml:space="preserve" x="1203" y="908"></text><text font-size="576" font-family="&apos;Symbol&apos;,&apos;OpenSymbol&apos;" transform="scale(0.041727,0.04133)" xml:space="preserve" x="634" y="746"></text><text font-size="384" font-family="&apos;MT Extra&apos;,&apos;DejaVu Sans&apos;" transform="scale(0.041727,0.04133)" xml:space="preserve" x="5026" y="608"></text></g></svg>