<svg xmlns="http://www.w3.org/2000/svg" xmlns:xlink="http://www.w3.org/1999/xlink" width="217" height="110"><g transform="scale(1.00463,1)"><text font-size="1280" font-family="&apos;Symbol&apos;,&apos;OpenSymbol&apos;" transform="scale(0.041602,0.041792)" xml:space="preserve" x="760" y="1746"></text><text font-size="704" font-family="&apos;Symbol&apos;,&apos;OpenSymbol&apos;" transform="scale(0.041602,0.041792)" xml:space="preserve" x="1012" y="2570"></text><text font-size="928" font-family="&apos;Symbol&apos;,&apos;OpenSymbol&apos;" transform="scale(0.041602,0.041792)" xml:space="preserve" x="3869" y="1568"></text><text font-size="928" font-family="&apos;Symbol&apos;,&apos;OpenSymbol&apos;" transform="scale(0.041602,0.041792)" xml:space="preserve" x="50" y="1568"></text><text font-size="704" font-family="Times New Roman" font-style="italic" transform="scale(0.041602,0.041792)" xml:space="preserve" x="1040" y="630">n</text><text font-size="704" font-family="Times New Roman" font-style="italic" transform="scale(0.041602,0.041792)" xml:space="preserve" x="776" y="2570">i</text><text font-size="704" font-family="Times New Roman" font-style="italic" transform="scale(0.041602,0.041792)" xml:space="preserve" x="4855" y="1800">i</text><text font-size="704" font-family="Times New Roman" font-style="italic" transform="scale(0.041602,0.041792)" xml:space="preserve" x="3218" y="1800">i</text><text font-size="928" font-family="Times New Roman" font-style="italic" transform="scale(0.041602,0.041792)" xml:space="preserve" x="4434" y="1568">x</text><text font-size="928" font-family="Times New Roman" font-style="italic" transform="scale(0.041602,0.041792)" xml:space="preserve" x="1955" y="1568">f</text><text font-size="704" font-family="Times New Roman" transform="scale(0.041602,0.041792)" xml:space="preserve" x="1347" y="2570">1</text><text font-size="928" font-family="Times New Roman" transform="scale(0.041602,0.041792)" xml:space="preserve" x="3534" y="1568">)</text><text font-size="928" font-family="Times New Roman" transform="scale(0.041602,0.041792)" xml:space="preserve" x="2435" y="1568">(</text><text font-size="928" font-family="&apos;Symbol&apos;,&apos;OpenSymbol&apos;" font-style="italic" transform="scale(0.041602,0.041792)" xml:space="preserve" x="2697" y="1568"></text></g></svg>