<svg xmlns="http://www.w3.org/2000/svg" xmlns:xlink="http://www.w3.org/1999/xlink" width="438" height="81"><g transform="scale(1,1.0125)"><text font-size="928" font-family="Times New Roman" font-style="italic" transform="scale(0.041698,0.041495)" xml:space="preserve" x="10045" y="1216">x</text><text font-size="928" font-family="Times New Roman" font-style="italic" transform="scale(0.041698,0.041495)" xml:space="preserve" x="8717" y="1216">x</text><text font-size="928" font-family="Times New Roman" font-style="italic" transform="scale(0.041698,0.041495)" xml:space="preserve" x="7859" y="1216">f</text><text font-size="928" font-family="Times New Roman" font-style="italic" transform="scale(0.041698,0.041495)" xml:space="preserve" x="6294" y="1216">k</text><text font-size="928" font-family="Times New Roman" font-style="italic" transform="scale(0.041698,0.041495)" xml:space="preserve" x="4925" y="1216">x</text><text font-size="928" font-family="Times New Roman" font-style="italic" transform="scale(0.041698,0.041495)" xml:space="preserve" x="3597" y="1216">x</text><text font-size="928" font-family="Times New Roman" font-style="italic" transform="scale(0.041698,0.041495)" xml:space="preserve" x="2739" y="1216">f</text><text font-size="928" font-family="Times New Roman" font-style="italic" transform="scale(0.041698,0.041495)" xml:space="preserve" x="2131" y="1216">k</text><text font-size="640" font-family="Times New Roman" font-style="italic" transform="scale(0.041698,0.041495)" xml:space="preserve" x="7336" y="564">b</text><text font-size="640" font-family="Times New Roman" font-style="italic" transform="scale(0.041698,0.041495)" xml:space="preserve" x="7222" y="1724">a</text><text font-size="640" font-family="Times New Roman" font-style="italic" transform="scale(0.041698,0.041495)" xml:space="preserve" x="1677" y="564">b</text><text font-size="640" font-family="Times New Roman" font-style="italic" transform="scale(0.041698,0.041495)" xml:space="preserve" x="1563" y="1724">a</text><text font-size="928" font-family="Times New Roman" transform="scale(0.041698,0.041495)" xml:space="preserve" x="9567" y="1216">d</text><text font-size="928" font-family="Times New Roman" transform="scale(0.041698,0.041495)" xml:space="preserve" x="9153" y="1216">)</text><text font-size="928" font-family="Times New Roman" transform="scale(0.041698,0.041495)" xml:space="preserve" x="8339" y="1216">(</text><text font-size="928" font-family="Times New Roman" transform="scale(0.041698,0.041495)" xml:space="preserve" x="4447" y="1216">d</text><text font-size="928" font-family="Times New Roman" transform="scale(0.041698,0.041495)" xml:space="preserve" x="4033" y="1216">)</text><text font-size="928" font-family="Times New Roman" transform="scale(0.041698,0.041495)" xml:space="preserve" x="3219" y="1216">(</text><text font-size="928" font-family="Times New Roman" transform="scale(0.041698,0.041495)" xml:space="preserve" x="485" y="1216">.</text><text font-size="928" font-family="Times New Roman" transform="scale(0.041698,0.041495)" xml:space="preserve" x="21" y="1216">3</text><text font-size="1344" font-family="&apos;Symbol&apos;,&apos;OpenSymbol&apos;" transform="scale(0.041698,0.041495)" xml:space="preserve" x="6817" y="1530"></text><text font-size="1344" font-family="&apos;Symbol&apos;,&apos;OpenSymbol&apos;" transform="scale(0.041698,0.041495)" xml:space="preserve" x="1158" y="1530"></text><text font-size="928" font-family="&apos;Symbol&apos;,&apos;OpenSymbol&apos;" transform="scale(0.041698,0.041495)" xml:space="preserve" x="5566" y="1216"></text></g></svg>