<svg xmlns="http://www.w3.org/2000/svg" xmlns:xlink="http://www.w3.org/1999/xlink" width="454" height="53"><g transform="scale(1,1.01923)"><text font-size="928" font-family="Times New Roman" transform="scale(0.041697,0.041406)" xml:space="preserve" x="10490" y="992">1</text><text font-size="928" font-family="Times New Roman" transform="scale(0.041697,0.041406)" xml:space="preserve" x="7947" y="992">1</text><text font-size="928" font-family="Times New Roman" transform="scale(0.041697,0.041406)" xml:space="preserve" x="7163" y="992">3</text><text font-size="928" font-family="Times New Roman" transform="scale(0.041697,0.041406)" xml:space="preserve" x="4099" y="992">1</text><text font-size="928" font-family="Times New Roman" transform="scale(0.041697,0.041406)" xml:space="preserve" x="3315" y="992">3</text><text font-size="928" font-family="Times New Roman" transform="scale(0.041697,0.041406)" xml:space="preserve" x="1634" y="992">1</text><text font-size="928" font-family="Times New Roman" transform="scale(0.041697,0.041406)" xml:space="preserve" x="50" y="992">2</text><text font-size="640" font-family="Times New Roman" transform="scale(0.041697,0.041406)" xml:space="preserve" x="4521" y="575">2</text><text font-size="640" font-family="Times New Roman" transform="scale(0.041697,0.041406)" xml:space="preserve" x="2036" y="575">3</text><text font-size="640" font-family="Times New Roman" transform="scale(0.041697,0.041406)" xml:space="preserve" x="524" y="575">3</text><text font-size="928" font-family="&apos;Symbol&apos;,&apos;OpenSymbol&apos;" transform="scale(0.041697,0.041406)" xml:space="preserve" x="9909" y="992"></text><text font-size="928" font-family="&apos;Symbol&apos;,&apos;OpenSymbol&apos;" transform="scale(0.041697,0.041406)" xml:space="preserve" x="7700" y="992"></text><text font-size="928" font-family="&apos;Symbol&apos;,&apos;OpenSymbol&apos;" transform="scale(0.041697,0.041406)" xml:space="preserve" x="6509" y="992"></text><text font-size="928" font-family="&apos;Symbol&apos;,&apos;OpenSymbol&apos;" transform="scale(0.041697,0.041406)" xml:space="preserve" x="3852" y="992"></text><text font-size="928" font-family="&apos;Symbol&apos;,&apos;OpenSymbol&apos;" transform="scale(0.041697,0.041406)" xml:space="preserve" x="2628" y="992"></text><text font-size="928" font-family="&apos;Symbol&apos;,&apos;OpenSymbol&apos;" transform="scale(0.041697,0.041406)" xml:space="preserve" x="1068" y="992"></text></g></svg>