<svg xmlns="http://www.w3.org/2000/svg" xmlns:xlink="http://www.w3.org/1999/xlink" width="398" height="46"><text font-size="928" font-family="Times New Roman" font-style="italic" transform="scale(0.041701,0.041964)" xml:space="preserve" x="9110" y="800">x</text><text font-size="928" font-family="Times New Roman" font-style="italic" transform="scale(0.041701,0.041964)" xml:space="preserve" x="7748" y="800">y</text><text font-size="928" font-family="Times New Roman" font-style="italic" transform="scale(0.041701,0.041964)" xml:space="preserve" x="4786" y="800">x</text><text font-size="928" font-family="Times New Roman" font-style="italic" transform="scale(0.041701,0.041964)" xml:space="preserve" x="3434" y="800">y</text><text font-size="928" font-family="Times New Roman" font-style="italic" transform="scale(0.041701,0.041964)" xml:space="preserve" x="2084" y="800">x</text><text font-size="928" font-family="Times New Roman" font-style="italic" transform="scale(0.041701,0.041964)" xml:space="preserve" x="852" y="800">y</text><text font-size="640" font-family="Times New Roman" font-style="italic" transform="scale(0.041701,0.041964)" xml:space="preserve" x="8175" y="1032">n</text><text font-size="928" font-family="&apos;Symbol&apos;,&apos;OpenSymbol&apos;" transform="scale(0.041701,0.041964)" xml:space="preserve" x="8545" y="800"></text><text font-size="928" font-family="&apos;Symbol&apos;,&apos;OpenSymbol&apos;" transform="scale(0.041701,0.041964)" xml:space="preserve" x="6979" y="800"></text><text font-size="928" font-family="&apos;Symbol&apos;,&apos;OpenSymbol&apos;" transform="scale(0.041701,0.041964)" xml:space="preserve" x="5367" y="800"></text><text font-size="928" font-family="&apos;Symbol&apos;,&apos;OpenSymbol&apos;" transform="scale(0.041701,0.041964)" xml:space="preserve" x="4221" y="800"></text><text font-size="928" font-family="&apos;Symbol&apos;,&apos;OpenSymbol&apos;" transform="scale(0.041701,0.041964)" xml:space="preserve" x="2665" y="800"></text><text font-size="928" font-family="&apos;Symbol&apos;,&apos;OpenSymbol&apos;" transform="scale(0.041701,0.041964)" xml:space="preserve" x="1519" y="800"></text><text font-size="928" font-family="&apos;Symbol&apos;,&apos;OpenSymbol&apos;" transform="scale(0.041701,0.041964)" xml:space="preserve" x="50" y="800"></text><text font-size="928" font-family="&apos;MT Extra&apos;,&apos;DejaVu Sans&apos;" transform="scale(0.041701,0.041964)" xml:space="preserve" x="5963" y="800"></text><text font-size="640" font-family="Times New Roman" transform="scale(0.041701,0.041964)" xml:space="preserve" x="3861" y="1032">2</text><text font-size="640" font-family="Times New Roman" transform="scale(0.041701,0.041964)" xml:space="preserve" x="1209" y="1032">1</text></svg>