<svg xmlns="http://www.w3.org/2000/svg" xmlns:xlink="http://www.w3.org/1999/xlink" width="557" height="49"><g transform="scale(1.0018,1.02083)"><text font-size="928" font-family="Times New Roman" transform="scale(0.041641,0.041385)" xml:space="preserve" x="13104" y="864">,</text><text font-size="928" font-family="Times New Roman" transform="scale(0.041641,0.041385)" xml:space="preserve" x="9863" y="864">1</text><text font-size="928" font-family="Times New Roman" transform="scale(0.041641,0.041385)" xml:space="preserve" x="3551" y="864">]</text><text font-size="928" font-family="Times New Roman" transform="scale(0.041641,0.041385)" xml:space="preserve" x="2203" y="864">,</text><text font-size="928" font-family="Times New Roman" transform="scale(0.041641,0.041385)" xml:space="preserve" x="1070" y="864">[</text><text font-size="704" font-family="Times New Roman" transform="scale(0.041641,0.041385)" xml:space="preserve" x="3103" y="1096">2</text><text font-size="704" font-family="Times New Roman" transform="scale(0.041641,0.041385)" xml:space="preserve" x="1742" y="1096">1</text><text font-size="928" font-family="&apos;楷体_GB2312&apos;,&apos;DejaVu Sans&apos;" transform="scale(0.041641,0.041385)" xml:space="preserve" x="10309 11222 12134" y="864">个分点</text><text font-size="928" font-family="&apos;楷体_GB2312&apos;,&apos;DejaVu Sans&apos;" transform="scale(0.041641,0.041385)" xml:space="preserve" x="3905 4818 5730 6643 7555" y="864">中任意插入</text><text font-size="928" font-family="&apos;楷体_GB2312&apos;,&apos;DejaVu Sans&apos;" transform="scale(0.041641,0.041385)" xml:space="preserve" x="35" y="864">在</text><text font-size="928" font-family="&apos;Symbol&apos;,&apos;OpenSymbol&apos;" transform="scale(0.041641,0.041385)" xml:space="preserve" x="9297" y="864"></text><text font-size="928" font-family="Times New Roman" font-style="italic" transform="scale(0.041641,0.041385)" xml:space="preserve" x="8672" y="864">n</text><text font-size="928" font-family="Times New Roman" font-style="italic" transform="scale(0.041641,0.041385)" xml:space="preserve" x="2631" y="864">T</text><text font-size="928" font-family="Times New Roman" font-style="italic" transform="scale(0.041641,0.041385)" xml:space="preserve" x="1347" y="864">T</text></g></svg>