<svg xmlns="http://www.w3.org/2000/svg" xmlns:xlink="http://www.w3.org/1999/xlink" width="353" height="89"><g transform="scale(1.00284,1.01136)"><line x1="2813" y1="1112" x2="4600" y2="1112" stroke="rgb(0, 0, 0)" stroke-width="16" stroke-miterlimit="0" stroke-linecap="round" stroke-linejoin="round" shape-rendering="optimizeSpeed" transform="scale(0.041627,0.041511)" /><text font-size="928" font-family="Times New Roman" font-style="italic" transform="scale(0.041627,0.041511)" xml:space="preserve" x="7996" y="1344">x</text><text font-size="928" font-family="Times New Roman" font-style="italic" transform="scale(0.041627,0.041511)" xml:space="preserve" x="6668" y="1344">x</text><text font-size="928" font-family="Times New Roman" font-style="italic" transform="scale(0.041627,0.041511)" xml:space="preserve" x="5810" y="1344">f</text><text font-size="928" font-family="Times New Roman" font-style="italic" transform="scale(0.041627,0.041511)" xml:space="preserve" x="4119" y="2052">a</text><text font-size="928" font-family="Times New Roman" font-style="italic" transform="scale(0.041627,0.041511)" xml:space="preserve" x="2802" y="2052">b</text><text font-size="928" font-family="Times New Roman" font-style="italic" transform="scale(0.041627,0.041511)" xml:space="preserve" x="223" y="1344">f</text><text font-size="640" font-family="Times New Roman" font-style="italic" transform="scale(0.041627,0.041511)" xml:space="preserve" x="5287" y="692">b</text><text font-size="640" font-family="Times New Roman" font-style="italic" transform="scale(0.041627,0.041511)" xml:space="preserve" x="5173" y="1852">a</text><text font-size="928" font-family="Times New Roman" transform="scale(0.041627,0.041511)" xml:space="preserve" x="7518" y="1344">d</text><text font-size="928" font-family="Times New Roman" transform="scale(0.041627,0.041511)" xml:space="preserve" x="7104" y="1344">)</text><text font-size="928" font-family="Times New Roman" transform="scale(0.041627,0.041511)" xml:space="preserve" x="6290" y="1344">(</text><text font-size="928" font-family="Times New Roman" transform="scale(0.041627,0.041511)" xml:space="preserve" x="3474" y="776">1</text><text font-size="928" font-family="Times New Roman" transform="scale(0.041627,0.041511)" xml:space="preserve" x="1546" y="1344">)</text><text font-size="928" font-family="Times New Roman" transform="scale(0.041627,0.041511)" xml:space="preserve" x="703" y="1344">(</text><text font-size="1344" font-family="&apos;Symbol&apos;,&apos;OpenSymbol&apos;" transform="scale(0.041627,0.041511)" xml:space="preserve" x="4768" y="1658"></text><text font-size="928" font-family="&apos;Symbol&apos;,&apos;OpenSymbol&apos;" transform="scale(0.041627,0.041511)" xml:space="preserve" x="3439" y="2052"></text><text font-size="928" font-family="&apos;Symbol&apos;,&apos;OpenSymbol&apos;" transform="scale(0.041627,0.041511)" xml:space="preserve" x="2071" y="1344"></text><text font-size="928" font-family="&apos;Symbol&apos;,&apos;OpenSymbol&apos;" font-style="italic" transform="scale(0.041627,0.041511)" xml:space="preserve" x="965" y="1344"></text></g></svg>