<svg xmlns="http://www.w3.org/2000/svg" xmlns:xlink="http://www.w3.org/1999/xlink" width="386" height="81"><g transform="scale(1,1.0125)"><text font-size="928" font-family="Times New Roman" font-style="italic" transform="scale(0.041702,0.041495)" xml:space="preserve" x="8685" y="1216">A</text><text font-size="928" font-family="Times New Roman" font-style="italic" transform="scale(0.041702,0.041495)" xml:space="preserve" x="7244" y="1216">x</text><text font-size="928" font-family="Times New Roman" font-style="italic" transform="scale(0.041702,0.041495)" xml:space="preserve" x="5916" y="1216">x</text><text font-size="928" font-family="Times New Roman" font-style="italic" transform="scale(0.041702,0.041495)" xml:space="preserve" x="5058" y="1216">f</text><text font-size="928" font-family="Times New Roman" font-style="italic" transform="scale(0.041702,0.041495)" xml:space="preserve" x="1081" y="1216">x</text><text font-size="928" font-family="Times New Roman" font-style="italic" transform="scale(0.041702,0.041495)" xml:space="preserve" x="223" y="1216">f</text><text font-size="640" font-family="Times New Roman" font-style="italic" transform="scale(0.041702,0.041495)" xml:space="preserve" x="4535" y="564">b</text><text font-size="640" font-family="Times New Roman" font-style="italic" transform="scale(0.041702,0.041495)" xml:space="preserve" x="4421" y="1724">a</text><text font-size="928" font-family="&apos;Symbol&apos;,&apos;OpenSymbol&apos;" transform="scale(0.041702,0.041495)" xml:space="preserve" x="7885" y="1216"></text><text font-size="928" font-family="&apos;Symbol&apos;,&apos;OpenSymbol&apos;" transform="scale(0.041702,0.041495)" xml:space="preserve" x="2042" y="1216"></text><text font-size="1344" font-family="&apos;Symbol&apos;,&apos;OpenSymbol&apos;" transform="scale(0.041702,0.041495)" xml:space="preserve" x="4016" y="1530"></text><text font-size="928" font-family="Times New Roman" transform="scale(0.041702,0.041495)" xml:space="preserve" x="6766" y="1216">d</text><text font-size="928" font-family="Times New Roman" transform="scale(0.041702,0.041495)" xml:space="preserve" x="6352" y="1216">)</text><text font-size="928" font-family="Times New Roman" transform="scale(0.041702,0.041495)" xml:space="preserve" x="5538" y="1216">(</text><text font-size="928" font-family="Times New Roman" transform="scale(0.041702,0.041495)" xml:space="preserve" x="3300" y="1216">,</text><text font-size="928" font-family="Times New Roman" transform="scale(0.041702,0.041495)" xml:space="preserve" x="2755" y="1216">0</text><text font-size="928" font-family="Times New Roman" transform="scale(0.041702,0.041495)" xml:space="preserve" x="1517" y="1216">)</text><text font-size="928" font-family="Times New Roman" transform="scale(0.041702,0.041495)" xml:space="preserve" x="703" y="1216">(</text></g></svg>