<svg xmlns="http://www.w3.org/2000/svg" xmlns:xlink="http://www.w3.org/1999/xlink" width="383" height="54"><line x1="780" y1="664" x2="1854" y2="664" stroke="rgb(0, 0, 0)" stroke-width="16" stroke-miterlimit="0" stroke-linecap="round" stroke-linejoin="round" shape-rendering="optimizeSpeed" transform="scale(0.041666,0.04192)" /><text font-size="928" font-family="Times New Roman" transform="scale(0.041666,0.04192)" xml:space="preserve" x="8860" y="896">)</text><text font-size="928" font-family="Times New Roman" transform="scale(0.041666,0.04192)" xml:space="preserve" x="1981" y="896">(</text><text font-size="640" font-family="Times New Roman" transform="scale(0.041666,0.04192)" xml:space="preserve" x="8491" y="1128">1</text><text font-size="640" font-family="Times New Roman" transform="scale(0.041666,0.04192)" xml:space="preserve" x="4509" y="1128">1</text><text font-size="640" font-family="Times New Roman" transform="scale(0.041666,0.04192)" xml:space="preserve" x="2819" y="1128">0</text><text font-size="640" font-family="&apos;Symbol&apos;,&apos;OpenSymbol&apos;" transform="scale(0.041666,0.04192)" xml:space="preserve" x="8181" y="1128"></text><text font-size="640" font-family="&apos;Symbol&apos;,&apos;OpenSymbol&apos;" transform="scale(0.041666,0.04192)" xml:space="preserve" x="1132" y="582"></text><text font-size="928" font-family="&apos;Symbol&apos;,&apos;OpenSymbol&apos;" transform="scale(0.041666,0.04192)" xml:space="preserve" x="6635" y="896"></text><text font-size="928" font-family="&apos;Symbol&apos;,&apos;OpenSymbol&apos;" transform="scale(0.041666,0.04192)" xml:space="preserve" x="5023" y="896"></text><text font-size="928" font-family="&apos;Symbol&apos;,&apos;OpenSymbol&apos;" transform="scale(0.041666,0.04192)" xml:space="preserve" x="3383" y="896"></text><text font-size="928" font-family="&apos;Symbol&apos;,&apos;OpenSymbol&apos;" transform="scale(0.041666,0.04192)" xml:space="preserve" x="50" y="896"></text><text font-size="640" font-family="Times New Roman" font-style="italic" transform="scale(0.041666,0.04192)" xml:space="preserve" x="7831" y="1128">n</text><text font-size="640" font-family="Times New Roman" font-style="italic" transform="scale(0.041666,0.04192)" xml:space="preserve" x="1162" y="1225">n</text><text font-size="640" font-family="Times New Roman" font-style="italic" transform="scale(0.041666,0.04192)" xml:space="preserve" x="1512" y="582">a</text><text font-size="640" font-family="Times New Roman" font-style="italic" transform="scale(0.041666,0.04192)" xml:space="preserve" x="782" y="582">b</text><text font-size="928" font-family="Times New Roman" font-style="italic" transform="scale(0.041666,0.04192)" xml:space="preserve" x="7404" y="896">y</text><text font-size="928" font-family="Times New Roman" font-style="italic" transform="scale(0.041666,0.04192)" xml:space="preserve" x="4152" y="896">y</text><text font-size="928" font-family="Times New Roman" font-style="italic" transform="scale(0.041666,0.04192)" xml:space="preserve" x="2402" y="896">y</text><text font-size="928" font-family="&apos;MT Extra&apos;,&apos;DejaVu Sans&apos;" transform="scale(0.041666,0.04192)" xml:space="preserve" x="5619" y="896"></text></svg>