<svg xmlns="http://www.w3.org/2000/svg" xmlns:xlink="http://www.w3.org/1999/xlink" width="304" height="46"><g transform="scale(1.0033,1)"><text font-size="928" font-family="Times New Roman" transform="scale(0.041666,0.041964)" xml:space="preserve" x="7034" y="800">,</text><text font-size="928" font-family="Times New Roman" transform="scale(0.041666,0.041964)" xml:space="preserve" x="6689" y="800">]</text><text font-size="928" font-family="Times New Roman" transform="scale(0.041666,0.041964)" xml:space="preserve" x="5341" y="800">,</text><text font-size="928" font-family="Times New Roman" transform="scale(0.041666,0.041964)" xml:space="preserve" x="4208" y="800">[</text><text font-size="928" font-family="Times New Roman" transform="scale(0.041666,0.041964)" xml:space="preserve" x="2427" y="800">)</text><text font-size="928" font-family="Times New Roman" transform="scale(0.041666,0.041964)" xml:space="preserve" x="1801" y="800">(</text><text font-size="704" font-family="Times New Roman" transform="scale(0.041666,0.041964)" xml:space="preserve" x="6241" y="1032">2</text><text font-size="704" font-family="Times New Roman" transform="scale(0.041666,0.041964)" xml:space="preserve" x="4880" y="1032">1</text><text font-size="928" font-family="Times New Roman" font-style="italic" transform="scale(0.041666,0.041964)" xml:space="preserve" x="5769" y="800">T</text><text font-size="928" font-family="Times New Roman" font-style="italic" transform="scale(0.041666,0.041964)" xml:space="preserve" x="4485" y="800">T</text><text font-size="928" font-family="Times New Roman" font-style="italic" transform="scale(0.041666,0.041964)" xml:space="preserve" x="3583" y="800">C</text><text font-size="928" font-family="Times New Roman" font-style="italic" transform="scale(0.041666,0.041964)" xml:space="preserve" x="2107" y="800">t</text><text font-size="928" font-family="Times New Roman" font-style="italic" transform="scale(0.041666,0.041964)" xml:space="preserve" x="1365" y="800">v</text><text font-size="928" font-family="Times New Roman" font-style="italic" transform="scale(0.041666,0.041964)" xml:space="preserve" x="35" y="800">v</text><text font-size="928" font-family="&apos;Symbol&apos;,&apos;OpenSymbol&apos;" transform="scale(0.041666,0.041964)" xml:space="preserve" x="2838" y="800"></text><text font-size="928" font-family="&apos;Symbol&apos;,&apos;OpenSymbol&apos;" transform="scale(0.041666,0.041964)" xml:space="preserve" x="664" y="800"></text></g></svg>