<svg xmlns="http://www.w3.org/2000/svg" xmlns:xlink="http://www.w3.org/1999/xlink" width="260" height="81"><g transform="scale(1.00386,1.0125)"><text font-size="928" font-family="&apos;Symbol&apos;,&apos;OpenSymbol&apos;" transform="scale(0.041666,0.041495)" xml:space="preserve" x="5667" y="800"></text><text font-size="928" font-family="&apos;Symbol&apos;,&apos;OpenSymbol&apos;" transform="scale(0.041666,0.041495)" xml:space="preserve" x="4158" y="800"></text><text font-size="928" font-family="&apos;Symbol&apos;,&apos;OpenSymbol&apos;" transform="scale(0.041666,0.041495)" xml:space="preserve" x="50" y="800"></text><text font-size="1216" font-family="&apos;Symbol&apos;,&apos;OpenSymbol&apos;" transform="scale(0.041666,0.041495)" xml:space="preserve" x="1031" y="958"></text><text font-size="640" font-family="Times New Roman" transform="scale(0.041666,0.041495)" xml:space="preserve" x="1976" y="1712">]</text><text font-size="640" font-family="Times New Roman" transform="scale(0.041666,0.041495)" xml:space="preserve" x="1362" y="1712">,</text><text font-size="640" font-family="Times New Roman" transform="scale(0.041666,0.041495)" xml:space="preserve" x="720" y="1712">[</text><text font-size="928" font-family="Times New Roman" transform="scale(0.041666,0.041495)" xml:space="preserve" x="3823" y="800">)</text><text font-size="928" font-family="Times New Roman" transform="scale(0.041666,0.041495)" xml:space="preserve" x="2662" y="800">(</text><text font-size="640" font-family="Times New Roman" font-style="italic" transform="scale(0.041666,0.041495)" xml:space="preserve" x="1652" y="1712">c</text><text font-size="640" font-family="Times New Roman" font-style="italic" transform="scale(0.041666,0.041495)" xml:space="preserve" x="974" y="1712">a</text><text font-size="640" font-family="Times New Roman" font-style="italic" transform="scale(0.041666,0.041495)" xml:space="preserve" x="5223" y="1032">i</text><text font-size="640" font-family="Times New Roman" font-style="italic" transform="scale(0.041666,0.041495)" xml:space="preserve" x="3524" y="1032">i</text><text font-size="928" font-family="Times New Roman" font-style="italic" transform="scale(0.041666,0.041495)" xml:space="preserve" x="4723" y="800">x</text><text font-size="928" font-family="Times New Roman" font-style="italic" transform="scale(0.041666,0.041495)" xml:space="preserve" x="2182" y="800">f</text><text font-size="928" font-family="&apos;Symbol&apos;,&apos;OpenSymbol&apos;" font-style="italic" transform="scale(0.041666,0.041495)" xml:space="preserve" x="2924" y="800"></text></g></svg>