<svg xmlns="http://www.w3.org/2000/svg" xmlns:xlink="http://www.w3.org/1999/xlink" width="813" height="47"><g transform="scale(1.00123,1)"><text font-size="928" font-family="Times New Roman" transform="scale(0.041649,0.041666)" xml:space="preserve" x="19263" y="864">,</text><text font-size="928" font-family="Times New Roman" transform="scale(0.041649,0.041666)" xml:space="preserve" x="17992" y="864">,</text><text font-size="928" font-family="Times New Roman" transform="scale(0.041649,0.041666)" xml:space="preserve" x="5557" y="864">]</text><text font-size="928" font-family="Times New Roman" transform="scale(0.041649,0.041666)" xml:space="preserve" x="4764" y="864">,</text><text font-size="928" font-family="Times New Roman" transform="scale(0.041649,0.041666)" xml:space="preserve" x="3949" y="864">[</text><text font-size="928" font-family="Times New Roman" transform="scale(0.041649,0.041666)" xml:space="preserve" x="2584" y="864">)</text><text font-size="928" font-family="Times New Roman" transform="scale(0.041649,0.041666)" xml:space="preserve" x="1770" y="864">(</text><text font-size="928" font-family="Times New Roman" font-style="italic" transform="scale(0.041649,0.041666)" xml:space="preserve" x="18348" y="864">M</text><text font-size="928" font-family="Times New Roman" font-style="italic" transform="scale(0.041649,0.041666)" xml:space="preserve" x="17323" y="864">m</text><text font-size="928" font-family="Times New Roman" font-style="italic" transform="scale(0.041649,0.041666)" xml:space="preserve" x="5077" y="864">b</text><text font-size="928" font-family="Times New Roman" font-style="italic" transform="scale(0.041649,0.041666)" xml:space="preserve" x="4284" y="864">a</text><text font-size="928" font-family="Times New Roman" font-style="italic" transform="scale(0.041649,0.041666)" xml:space="preserve" x="2148" y="864">x</text><text font-size="928" font-family="Times New Roman" font-style="italic" transform="scale(0.041649,0.041666)" xml:space="preserve" x="1290" y="864">f</text><text font-size="928" font-family="&apos;楷体_GB2312&apos;,&apos;DejaVu Sans&apos;" transform="scale(0.041649,0.041666)" xml:space="preserve" x="15194 16106" y="864">别为</text><text font-size="928" font-family="&apos;楷体_GB2312&apos;,&apos;DejaVu Sans&apos;" transform="scale(0.041649,0.041666)" xml:space="preserve" x="5914 6826 7739 8651 9563 10476 11388 12301 13213 14125" y="864">上的最小值与最大值分</text><text font-size="928" font-family="&apos;楷体_GB2312&apos;,&apos;DejaVu Sans&apos;" transform="scale(0.041649,0.041666)" xml:space="preserve" x="2998" y="864">在</text><text font-size="928" font-family="&apos;楷体_GB2312&apos;,&apos;DejaVu Sans&apos;" transform="scale(0.041649,0.041666)" xml:space="preserve" x="64" y="864">设</text></g></svg>