<svg xmlns="http://www.w3.org/2000/svg" xmlns:xlink="http://www.w3.org/1999/xlink" width="345" height="94"><g transform="scale(1.00291,1)"><line x1="780" y1="1112" x2="1697" y2="1112" stroke="rgb(0, 0, 0)" stroke-width="16" stroke-miterlimit="0" stroke-linecap="round" stroke-linejoin="round" shape-rendering="optimizeSpeed" transform="scale(0.041626,0.041813)" /><line x1="2206" y1="1112" x2="2661" y2="1112" stroke="rgb(0, 0, 0)" stroke-width="16" stroke-miterlimit="0" stroke-linecap="round" stroke-linejoin="round" shape-rendering="optimizeSpeed" transform="scale(0.041626,0.041813)" /><text font-size="928" font-family="Times New Roman" transform="scale(0.041626,0.041813)" xml:space="preserve" x="7935" y="1344">)</text><text font-size="928" font-family="Times New Roman" transform="scale(0.041626,0.041813)" xml:space="preserve" x="7542" y="1344">1</text><text font-size="928" font-family="Times New Roman" transform="scale(0.041626,0.041813)" xml:space="preserve" x="5856" y="1344">2</text><text font-size="928" font-family="Times New Roman" transform="scale(0.041626,0.041813)" xml:space="preserve" x="5217 5529" y="1344">)(</text><text font-size="928" font-family="Times New Roman" transform="scale(0.041626,0.041813)" xml:space="preserve" x="4824" y="1344">1</text><text font-size="928" font-family="Times New Roman" transform="scale(0.041626,0.041813)" xml:space="preserve" x="3283" y="1344">(</text><text font-size="928" font-family="Times New Roman" transform="scale(0.041626,0.041813)" xml:space="preserve" x="2209" y="2052">6</text><text font-size="928" font-family="Times New Roman" transform="scale(0.041626,0.041813)" xml:space="preserve" x="2201" y="776">1</text><text font-size="928" font-family="Times New Roman" transform="scale(0.041626,0.041813)" xml:space="preserve" x="1006" y="776">1</text><text font-size="704" font-family="Times New Roman" transform="scale(0.041626,0.041813)" xml:space="preserve" x="1284" y="1746">3</text><text font-size="928" font-family="&apos;Symbol&apos;,&apos;OpenSymbol&apos;" transform="scale(0.041626,0.041813)" xml:space="preserve" x="6961" y="1344"></text><text font-size="928" font-family="&apos;Symbol&apos;,&apos;OpenSymbol&apos;" transform="scale(0.041626,0.041813)" xml:space="preserve" x="4243" y="1344"></text><text font-size="928" font-family="&apos;Symbol&apos;,&apos;OpenSymbol&apos;" transform="scale(0.041626,0.041813)" xml:space="preserve" x="1843" y="1344"></text><text font-size="928" font-family="&apos;Symbol&apos;,&apos;OpenSymbol&apos;" transform="scale(0.041626,0.041813)" xml:space="preserve" x="50" y="1344"></text><text font-size="928" font-family="Times New Roman" font-style="italic" transform="scale(0.041626,0.041813)" xml:space="preserve" x="6336" y="1344">n</text><text font-size="928" font-family="Times New Roman" font-style="italic" transform="scale(0.041626,0.041813)" xml:space="preserve" x="3618" y="1344">n</text><text font-size="928" font-family="Times New Roman" font-style="italic" transform="scale(0.041626,0.041813)" xml:space="preserve" x="2803" y="1344">n</text><text font-size="928" font-family="Times New Roman" font-style="italic" transform="scale(0.041626,0.041813)" xml:space="preserve" x="798" y="2163">n</text></g></svg>