<svg xmlns="http://www.w3.org/2000/svg" xmlns:xlink="http://www.w3.org/1999/xlink" width="558" height="102"><text font-size="640" font-family="Times New Roman" font-style="italic" transform="scale(0.041691,0.041801)" xml:space="preserve" x="13147" y="1704">i</text><text font-size="640" font-family="Times New Roman" font-style="italic" transform="scale(0.041691,0.041801)" xml:space="preserve" x="11448" y="1704">i</text><text font-size="640" font-family="Times New Roman" font-style="italic" transform="scale(0.041691,0.041801)" xml:space="preserve" x="9299" y="577">n</text><text font-size="640" font-family="Times New Roman" font-style="italic" transform="scale(0.041691,0.041801)" xml:space="preserve" x="9054" y="2384">i</text><text font-size="640" font-family="Times New Roman" font-style="italic" transform="scale(0.041691,0.041801)" xml:space="preserve" x="6429" y="1704">i</text><text font-size="640" font-family="Times New Roman" font-style="italic" transform="scale(0.041691,0.041801)" xml:space="preserve" x="4730" y="1704">i</text><text font-size="640" font-family="Times New Roman" font-style="italic" transform="scale(0.041691,0.041801)" xml:space="preserve" x="2509" y="577">n</text><text font-size="640" font-family="Times New Roman" font-style="italic" transform="scale(0.041691,0.041801)" xml:space="preserve" x="2264" y="2384">i</text><text font-size="928" font-family="Times New Roman" font-style="italic" transform="scale(0.041691,0.041801)" xml:space="preserve" x="12647" y="1472">x</text><text font-size="928" font-family="Times New Roman" font-style="italic" transform="scale(0.041691,0.041801)" xml:space="preserve" x="10048" y="1472">g</text><text font-size="928" font-family="Times New Roman" font-style="italic" transform="scale(0.041691,0.041801)" xml:space="preserve" x="5929" y="1472">x</text><text font-size="928" font-family="Times New Roman" font-style="italic" transform="scale(0.041691,0.041801)" xml:space="preserve" x="3388" y="1472">f</text><text font-size="928" font-family="&apos;Symbol&apos;,&apos;OpenSymbol&apos;" transform="scale(0.041691,0.041801)" xml:space="preserve" x="12082" y="1472"></text><text font-size="928" font-family="&apos;Symbol&apos;,&apos;OpenSymbol&apos;" transform="scale(0.041691,0.041801)" xml:space="preserve" x="6873" y="1472"></text><text font-size="928" font-family="&apos;Symbol&apos;,&apos;OpenSymbol&apos;" transform="scale(0.041691,0.041801)" xml:space="preserve" x="5364" y="1472"></text><text font-size="928" font-family="&apos;Symbol&apos;,&apos;OpenSymbol&apos;" transform="scale(0.041691,0.041801)" xml:space="preserve" x="50" y="1472"></text><text font-size="1216" font-family="&apos;Symbol&apos;,&apos;OpenSymbol&apos;" transform="scale(0.041691,0.041801)" xml:space="preserve" x="9027" y="1630"></text><text font-size="1216" font-family="&apos;Symbol&apos;,&apos;OpenSymbol&apos;" transform="scale(0.041691,0.041801)" xml:space="preserve" x="2237" y="1630"></text><text font-size="640" font-family="&apos;Symbol&apos;,&apos;OpenSymbol&apos;" transform="scale(0.041691,0.041801)" xml:space="preserve" x="9274" y="2384"></text><text font-size="640" font-family="&apos;Symbol&apos;,&apos;OpenSymbol&apos;" transform="scale(0.041691,0.041801)" xml:space="preserve" x="7960" y="2112"></text><text font-size="640" font-family="&apos;Symbol&apos;,&apos;OpenSymbol&apos;" transform="scale(0.041691,0.041801)" xml:space="preserve" x="2484" y="2384"></text><text font-size="640" font-family="&apos;Symbol&apos;,&apos;OpenSymbol&apos;" transform="scale(0.041691,0.041801)" xml:space="preserve" x="1170" y="2112"></text><text font-size="928" font-family="Times New Roman" transform="scale(0.041691,0.041801)" xml:space="preserve" x="11747" y="1472">)</text><text font-size="928" font-family="Times New Roman" transform="scale(0.041691,0.041801)" xml:space="preserve" x="10586" y="1472">(</text><text font-size="928" font-family="Times New Roman" transform="scale(0.041691,0.041801)" xml:space="preserve" x="7614 7878 8142" y="1472">lim</text><text font-size="928" font-family="Times New Roman" transform="scale(0.041691,0.041801)" xml:space="preserve" x="5029" y="1472">)</text><text font-size="928" font-family="Times New Roman" transform="scale(0.041691,0.041801)" xml:space="preserve" x="3868" y="1472">(</text><text font-size="928" font-family="Times New Roman" transform="scale(0.041691,0.041801)" xml:space="preserve" x="824 1088 1352" y="1472">lim</text><text font-size="640" font-family="Times New Roman" transform="scale(0.041691,0.041801)" xml:space="preserve" x="9584" y="2384">1</text><text font-size="640" font-family="Times New Roman" transform="scale(0.041691,0.041801)" xml:space="preserve" x="8600" y="2112">0</text><text font-size="640" font-family="Times New Roman" transform="scale(0.041691,0.041801)" xml:space="preserve" x="2794" y="2384">1</text><text font-size="640" font-family="Times New Roman" transform="scale(0.041691,0.041801)" xml:space="preserve" x="1810" y="2112">0</text><text font-size="928" font-family="&apos;Symbol&apos;,&apos;OpenSymbol&apos;" font-style="italic" transform="scale(0.041691,0.041801)" xml:space="preserve" x="10848" y="1472"></text><text font-size="928" font-family="&apos;Symbol&apos;,&apos;OpenSymbol&apos;" font-style="italic" transform="scale(0.041691,0.041801)" xml:space="preserve" x="4130" y="1472"></text><text font-size="640" font-family="&apos;Symbol&apos;,&apos;OpenSymbol&apos;" font-style="italic" transform="scale(0.041691,0.041801)" xml:space="preserve" x="7550" y="2112"></text><text font-size="640" font-family="&apos;Symbol&apos;,&apos;OpenSymbol&apos;" font-style="italic" transform="scale(0.041691,0.041801)" xml:space="preserve" x="760" y="2112"></text></svg>