<svg xmlns="http://www.w3.org/2000/svg" xmlns:xlink="http://www.w3.org/1999/xlink" width="365" height="53"><g transform="scale(1.00275,1.01923)"><text font-size="928" font-family="Times New Roman" transform="scale(0.041628,0.041406)" xml:space="preserve" x="8501" y="800">,</text><text font-size="928" font-family="Times New Roman" transform="scale(0.041628,0.041406)" xml:space="preserve" x="8113" y="800">)</text><text font-size="928" font-family="Times New Roman" transform="scale(0.041628,0.041406)" xml:space="preserve" x="7147" y="800">,</text><text font-size="928" font-family="Times New Roman" transform="scale(0.041628,0.041406)" xml:space="preserve" x="5965" y="800">,</text><text font-size="928" font-family="Times New Roman" transform="scale(0.041628,0.041406)" xml:space="preserve" x="5432" y="800">2</text><text font-size="928" font-family="Times New Roman" transform="scale(0.041628,0.041406)" xml:space="preserve" x="5006" y="800">,</text><text font-size="928" font-family="Times New Roman" transform="scale(0.041628,0.041406)" xml:space="preserve" x="4545" y="800">1</text><text font-size="928" font-family="Times New Roman" transform="scale(0.041628,0.041406)" xml:space="preserve" x="3141" y="800">(</text><text font-size="928" font-family="Times New Roman" transform="scale(0.041628,0.041406)" xml:space="preserve" x="2686" y="800">]</text><text font-size="928" font-family="Times New Roman" transform="scale(0.041628,0.041406)" xml:space="preserve" x="1689" y="800">,</text><text font-size="928" font-family="Times New Roman" transform="scale(0.041628,0.041406)" xml:space="preserve" x="-23" y="800">[</text><text font-size="704" font-family="Times New Roman" transform="scale(0.041628,0.041406)" xml:space="preserve" x="1228" y="1032">1</text><text font-size="928" font-family="Times New Roman" font-style="italic" transform="scale(0.041628,0.041406)" xml:space="preserve" x="7633" y="800">n</text><text font-size="928" font-family="Times New Roman" font-style="italic" transform="scale(0.041628,0.041406)" xml:space="preserve" x="3447" y="800">i</text><text font-size="928" font-family="Times New Roman" font-style="italic" transform="scale(0.041628,0.041406)" xml:space="preserve" x="1990" y="800">t</text><text font-size="928" font-family="Times New Roman" font-style="italic" transform="scale(0.041628,0.041406)" xml:space="preserve" x="365" y="800">t</text><text font-size="704" font-family="Times New Roman" font-style="italic" transform="scale(0.041628,0.041406)" xml:space="preserve" x="2370" y="1032">i</text><text font-size="704" font-family="Times New Roman" font-style="italic" transform="scale(0.041628,0.041406)" xml:space="preserve" x="657" y="1032">i</text><text font-size="928" font-family="&apos;MT Extra&apos;,&apos;DejaVu Sans&apos;" transform="scale(0.041628,0.041406)" xml:space="preserve" x="6208" y="800"></text><text font-size="928" font-family="&apos;Symbol&apos;,&apos;OpenSymbol&apos;" transform="scale(0.041628,0.041406)" xml:space="preserve" x="3931" y="800"></text><text font-size="704" font-family="&apos;Symbol&apos;,&apos;OpenSymbol&apos;" transform="scale(0.041628,0.041406)" xml:space="preserve" x="893" y="1032"></text></g></svg>