<svg xmlns="http://www.w3.org/2000/svg" xmlns:xlink="http://www.w3.org/1999/xlink" width="300" height="89"><g transform="scale(1.00334,1.01136)"><line x1="2361" y1="1112" x2="2846" y2="1112" stroke="rgb(0, 0, 0)" stroke-width="16" stroke-miterlimit="0" stroke-linecap="round" stroke-linejoin="round" shape-rendering="optimizeSpeed" transform="scale(0.041666,0.041511)" /><line x1="4226" y1="1112" x2="7111" y2="1112" stroke="rgb(0, 0, 0)" stroke-width="16" stroke-miterlimit="0" stroke-linecap="round" stroke-linejoin="round" shape-rendering="optimizeSpeed" transform="scale(0.041666,0.041511)" /><text font-size="928" font-family="Times New Roman" font-style="italic" transform="scale(0.041666,0.041511)" xml:space="preserve" x="5444" y="2052">n</text><text font-size="928" font-family="Times New Roman" font-style="italic" transform="scale(0.041666,0.041511)" xml:space="preserve" x="4564" y="776">n</text><text font-size="928" font-family="Times New Roman" font-style="italic" transform="scale(0.041666,0.041511)" xml:space="preserve" x="2379" y="2052">n</text><text font-size="640" font-family="Times New Roman" font-style="italic" transform="scale(0.041666,0.041511)" xml:space="preserve" x="749" y="1984">n</text><text font-size="928" font-family="Times New Roman" transform="scale(0.041666,0.041511)" xml:space="preserve" x="6630" y="776">π</text><text font-size="928" font-family="Times New Roman" transform="scale(0.041666,0.041511)" xml:space="preserve" x="6187" y="776">)</text><text font-size="928" font-family="Times New Roman" transform="scale(0.041666,0.041511)" xml:space="preserve" x="5794" y="776">1</text><text font-size="928" font-family="Times New Roman" transform="scale(0.041666,0.041511)" xml:space="preserve" x="4229" y="776">(</text><text font-size="928" font-family="Times New Roman" transform="scale(0.041666,0.041511)" xml:space="preserve" x="2971 3331 3595" y="1344">sin</text><text font-size="928" font-family="Times New Roman" transform="scale(0.041666,0.041511)" xml:space="preserve" x="2371" y="776">1</text><text font-size="928" font-family="Times New Roman" transform="scale(0.041666,0.041511)" xml:space="preserve" x="860 1124 1388" y="1344">lim</text><text font-size="928" font-family="&apos;Symbol&apos;,&apos;OpenSymbol&apos;" transform="scale(0.041666,0.041511)" xml:space="preserve" x="5201" y="776"></text><text font-size="928" font-family="&apos;Symbol&apos;,&apos;OpenSymbol&apos;" transform="scale(0.041666,0.041511)" xml:space="preserve" x="50" y="1344"></text><text font-size="640" font-family="&apos;Symbol&apos;,&apos;OpenSymbol&apos;" transform="scale(0.041666,0.041511)" xml:space="preserve" x="1753" y="1984"></text><text font-size="640" font-family="&apos;Symbol&apos;,&apos;OpenSymbol&apos;" transform="scale(0.041666,0.041511)" xml:space="preserve" x="1101" y="1984"></text></g></svg>