<svg xmlns="http://www.w3.org/2000/svg" xmlns:xlink="http://www.w3.org/1999/xlink" width="277" height="102"><g transform="scale(1.00362,1)"><line x1="5068" y1="1240" x2="5553" y2="1240" stroke="rgb(0, 0, 0)" stroke-width="16" stroke-miterlimit="0" stroke-linecap="round" stroke-linejoin="round" shape-rendering="optimizeSpeed" transform="scale(0.041616,0.041801)" /><line x1="3327" y1="1469" x2="3458" y2="1400" stroke="rgb(0, 0, 0)" stroke-width="16" stroke-miterlimit="0" stroke-linecap="round" stroke-linejoin="round" shape-rendering="optimizeSpeed" transform="scale(0.041616,0.041801)" /><line x1="3458" y1="1408" x2="3651" y2="2210" stroke="rgb(0, 0, 0)" stroke-width="32" stroke-miterlimit="0" stroke-linecap="round" stroke-linejoin="round" shape-rendering="optimizeSpeed" transform="scale(0.041616,0.041801)" /><line x1="3659" y1="2210" x2="3875" y2="122" stroke="rgb(0, 0, 0)" stroke-width="16" stroke-miterlimit="0" stroke-linecap="round" stroke-linejoin="round" shape-rendering="optimizeSpeed" transform="scale(0.041616,0.041801)" /><line x1="3875" y1="122" x2="5585" y2="122" stroke="rgb(0, 0, 0)" stroke-width="16" stroke-miterlimit="0" stroke-linecap="round" stroke-linejoin="round" shape-rendering="optimizeSpeed" transform="scale(0.041616,0.041801)" /><line x1="6094" y1="1240" x2="6579" y2="1240" stroke="rgb(0, 0, 0)" stroke-width="16" stroke-miterlimit="0" stroke-linecap="round" stroke-linejoin="round" shape-rendering="optimizeSpeed" transform="scale(0.041616,0.041801)" /><text font-size="928" font-family="Times New Roman" font-style="italic" transform="scale(0.041616,0.041801)" xml:space="preserve" x="6112" y="2180">n</text><text font-size="928" font-family="Times New Roman" font-style="italic" transform="scale(0.041616,0.041801)" xml:space="preserve" x="5086" y="2180">n</text><text font-size="928" font-family="Times New Roman" font-style="italic" transform="scale(0.041616,0.041801)" xml:space="preserve" x="5166" y="904">i</text><text font-size="640" font-family="Times New Roman" font-style="italic" transform="scale(0.041616,0.041801)" xml:space="preserve" x="2599" y="577">n</text><text font-size="640" font-family="Times New Roman" font-style="italic" transform="scale(0.041616,0.041801)" xml:space="preserve" x="2354" y="2384">i</text><text font-size="640" font-family="Times New Roman" font-style="italic" transform="scale(0.041616,0.041801)" xml:space="preserve" x="770" y="2112">n</text><text font-size="928" font-family="Times New Roman" transform="scale(0.041616,0.041801)" xml:space="preserve" x="6104" y="904">1</text><text font-size="928" font-family="Times New Roman" transform="scale(0.041616,0.041801)" xml:space="preserve" x="3833" y="1472">1</text><text font-size="928" font-family="Times New Roman" transform="scale(0.041616,0.041801)" xml:space="preserve" x="869 1133 1398" y="1472">lim</text><text font-size="640" font-family="Times New Roman" transform="scale(0.041616,0.041801)" xml:space="preserve" x="2884" y="2384">1</text><text font-size="928" font-family="&apos;Symbol&apos;,&apos;OpenSymbol&apos;" transform="scale(0.041616,0.041801)" xml:space="preserve" x="5731" y="1472"></text><text font-size="928" font-family="&apos;Symbol&apos;,&apos;OpenSymbol&apos;" transform="scale(0.041616,0.041801)" xml:space="preserve" x="4371" y="1472"></text><text font-size="928" font-family="&apos;Symbol&apos;,&apos;OpenSymbol&apos;" transform="scale(0.041616,0.041801)" xml:space="preserve" x="50" y="1472"></text><text font-size="1216" font-family="&apos;Symbol&apos;,&apos;OpenSymbol&apos;" transform="scale(0.041616,0.041801)" xml:space="preserve" x="2327" y="1630"></text><text font-size="640" font-family="&apos;Symbol&apos;,&apos;OpenSymbol&apos;" transform="scale(0.041616,0.041801)" xml:space="preserve" x="2574" y="2384"></text><text font-size="640" font-family="&apos;Symbol&apos;,&apos;OpenSymbol&apos;" transform="scale(0.041616,0.041801)" xml:space="preserve" x="1750" y="2112"></text><text font-size="640" font-family="&apos;Symbol&apos;,&apos;OpenSymbol&apos;" transform="scale(0.041616,0.041801)" xml:space="preserve" x="1110" y="2112"></text></g></svg>