<svg xmlns="http://www.w3.org/2000/svg" xmlns:xlink="http://www.w3.org/1999/xlink" width="407" height="45"><g transform="scale(1,1.02273)"><text font-size="896" font-family="Times New Roman" font-style="italic" transform="scale(0.041666,0.04136)" xml:space="preserve" x="9327" y="768">x</text><text font-size="896" font-family="Times New Roman" font-style="italic" transform="scale(0.041666,0.04136)" xml:space="preserve" x="7482" y="768">y</text><text font-size="896" font-family="Times New Roman" font-style="italic" transform="scale(0.041666,0.04136)" xml:space="preserve" x="4594" y="768">x</text><text font-size="896" font-family="Times New Roman" font-style="italic" transform="scale(0.041666,0.04136)" xml:space="preserve" x="3425" y="768">y</text><text font-size="896" font-family="Times New Roman" font-style="italic" transform="scale(0.041666,0.04136)" xml:space="preserve" x="2107" y="768">x</text><text font-size="896" font-family="Times New Roman" font-style="italic" transform="scale(0.041666,0.04136)" xml:space="preserve" x="834" y="768">y</text><text font-size="608" font-family="Times New Roman" font-style="italic" transform="scale(0.041666,0.04136)" xml:space="preserve" x="7886" y="992">n</text><text font-size="896" font-family="&apos;Symbol&apos;,&apos;OpenSymbol&apos;" transform="scale(0.041666,0.04136)" xml:space="preserve" x="8781" y="768"></text><text font-size="896" font-family="&apos;Symbol&apos;,&apos;OpenSymbol&apos;" transform="scale(0.041666,0.04136)" xml:space="preserve" x="6732" y="768"></text><text font-size="896" font-family="&apos;Symbol&apos;,&apos;OpenSymbol&apos;" transform="scale(0.041666,0.04136)" xml:space="preserve" x="5162" y="768"></text><text font-size="896" font-family="&apos;Symbol&apos;,&apos;OpenSymbol&apos;" transform="scale(0.041666,0.04136)" xml:space="preserve" x="4048" y="768"></text><text font-size="896" font-family="&apos;Symbol&apos;,&apos;OpenSymbol&apos;" transform="scale(0.041666,0.04136)" xml:space="preserve" x="2675" y="768"></text><text font-size="896" font-family="&apos;Symbol&apos;,&apos;OpenSymbol&apos;" transform="scale(0.041666,0.04136)" xml:space="preserve" x="1561" y="768"></text><text font-size="896" font-family="&apos;Symbol&apos;,&apos;OpenSymbol&apos;" transform="scale(0.041666,0.04136)" xml:space="preserve" x="50" y="768"></text><text font-size="608" font-family="&apos;Symbol&apos;,&apos;OpenSymbol&apos;" transform="scale(0.041666,0.04136)" xml:space="preserve" x="8210" y="992"></text><text font-size="608" font-family="Times New Roman" transform="scale(0.041666,0.04136)" xml:space="preserve" x="8495" y="992">1</text><text font-size="608" font-family="Times New Roman" transform="scale(0.041666,0.04136)" xml:space="preserve" x="3762" y="992">1</text><text font-size="608" font-family="Times New Roman" transform="scale(0.041666,0.04136)" xml:space="preserve" x="1228" y="992">0</text><text font-size="896" font-family="&apos;MT Extra&apos;,&apos;DejaVu Sans&apos;" transform="scale(0.041666,0.04136)" xml:space="preserve" x="5744" y="768"></text></g></svg>