<svg xmlns="http://www.w3.org/2000/svg" xmlns:xlink="http://www.w3.org/1999/xlink" width="547" height="46"><text font-size="928" font-family="Times New Roman" font-style="italic" transform="scale(0.041666,0.041964)" xml:space="preserve" x="12624" y="800">b</text><text font-size="928" font-family="Times New Roman" font-style="italic" transform="scale(0.041666,0.041964)" xml:space="preserve" x="10874" y="800">x</text><text font-size="928" font-family="Times New Roman" font-style="italic" transform="scale(0.041666,0.041964)" xml:space="preserve" x="8419" y="800">x</text><text font-size="928" font-family="Times New Roman" font-style="italic" transform="scale(0.041666,0.041964)" xml:space="preserve" x="4945" y="800">x</text><text font-size="928" font-family="Times New Roman" font-style="italic" transform="scale(0.041666,0.041964)" xml:space="preserve" x="3281" y="800">x</text><text font-size="928" font-family="Times New Roman" font-style="italic" transform="scale(0.041666,0.041964)" xml:space="preserve" x="1496" y="800">x</text><text font-size="928" font-family="Times New Roman" font-style="italic" transform="scale(0.041666,0.041964)" xml:space="preserve" x="50" y="800">a</text><text font-size="704" font-family="Times New Roman" font-style="italic" transform="scale(0.041666,0.041964)" xml:space="preserve" x="11285" y="1032">n</text><text font-size="704" font-family="Times New Roman" font-style="italic" transform="scale(0.041666,0.041964)" xml:space="preserve" x="8830" y="1032">n</text><text font-size="928" font-family="&apos;Symbol&apos;,&apos;OpenSymbol&apos;" transform="scale(0.041666,0.041964)" xml:space="preserve" x="11937" y="800"></text><text font-size="928" font-family="&apos;Symbol&apos;,&apos;OpenSymbol&apos;" transform="scale(0.041666,0.041964)" xml:space="preserve" x="10115" y="800"></text><text font-size="928" font-family="&apos;Symbol&apos;,&apos;OpenSymbol&apos;" transform="scale(0.041666,0.041964)" xml:space="preserve" x="7660" y="800"></text><text font-size="928" font-family="&apos;Symbol&apos;,&apos;OpenSymbol&apos;" transform="scale(0.041666,0.041964)" xml:space="preserve" x="5982" y="800"></text><text font-size="928" font-family="&apos;Symbol&apos;,&apos;OpenSymbol&apos;" transform="scale(0.041666,0.041964)" xml:space="preserve" x="4186" y="800"></text><text font-size="928" font-family="&apos;Symbol&apos;,&apos;OpenSymbol&apos;" transform="scale(0.041666,0.041964)" xml:space="preserve" x="2522" y="800"></text><text font-size="928" font-family="&apos;Symbol&apos;,&apos;OpenSymbol&apos;" transform="scale(0.041666,0.041964)" xml:space="preserve" x="737" y="800"></text><text font-size="704" font-family="&apos;Symbol&apos;,&apos;OpenSymbol&apos;" transform="scale(0.041666,0.041964)" xml:space="preserve" x="9209" y="1032"></text><text font-size="704" font-family="Times New Roman" transform="scale(0.041666,0.041964)" xml:space="preserve" x="9544" y="1032">1</text><text font-size="704" font-family="Times New Roman" transform="scale(0.041666,0.041964)" xml:space="preserve" x="5356" y="1032">2</text><text font-size="704" font-family="Times New Roman" transform="scale(0.041666,0.041964)" xml:space="preserve" x="3615" y="1032">1</text><text font-size="704" font-family="Times New Roman" transform="scale(0.041666,0.041964)" xml:space="preserve" x="1896" y="1032">0</text><text font-size="928" font-family="&apos;MT Extra&apos;,&apos;DejaVu Sans&apos;" transform="scale(0.041666,0.041964)" xml:space="preserve" x="6611" y="800"></text></svg>