<svg xmlns="http://www.w3.org/2000/svg" xmlns:xlink="http://www.w3.org/1999/xlink" width="382" height="89"><g transform="scale(1,1.01136)"><line x1="1665" y1="1112" x2="3452" y2="1112" stroke="rgb(0, 0, 0)" stroke-width="16" stroke-miterlimit="0" stroke-linecap="round" stroke-linejoin="round" shape-rendering="optimizeSpeed" transform="scale(0.041702,0.041511)" /><text font-size="928" font-family="Times New Roman" font-style="italic" transform="scale(0.041702,0.041511)" xml:space="preserve" x="8216" y="1344">M</text><text font-size="928" font-family="Times New Roman" font-style="italic" transform="scale(0.041702,0.041511)" xml:space="preserve" x="6848" y="1344">x</text><text font-size="928" font-family="Times New Roman" font-style="italic" transform="scale(0.041702,0.041511)" xml:space="preserve" x="5520" y="1344">x</text><text font-size="928" font-family="Times New Roman" font-style="italic" transform="scale(0.041702,0.041511)" xml:space="preserve" x="4662" y="1344">f</text><text font-size="928" font-family="Times New Roman" font-style="italic" transform="scale(0.041702,0.041511)" xml:space="preserve" x="2971" y="2052">a</text><text font-size="928" font-family="Times New Roman" font-style="italic" transform="scale(0.041702,0.041511)" xml:space="preserve" x="1654" y="2052">b</text><text font-size="928" font-family="Times New Roman" font-style="italic" transform="scale(0.041702,0.041511)" xml:space="preserve" x="50" y="1344">m</text><text font-size="640" font-family="Times New Roman" font-style="italic" transform="scale(0.041702,0.041511)" xml:space="preserve" x="4139" y="692">b</text><text font-size="640" font-family="Times New Roman" font-style="italic" transform="scale(0.041702,0.041511)" xml:space="preserve" x="4025" y="1852">a</text><text font-size="928" font-family="&apos;Symbol&apos;,&apos;OpenSymbol&apos;" transform="scale(0.041702,0.041511)" xml:space="preserve" x="7474" y="1344"></text><text font-size="928" font-family="&apos;Symbol&apos;,&apos;OpenSymbol&apos;" transform="scale(0.041702,0.041511)" xml:space="preserve" x="2291" y="2052"></text><text font-size="928" font-family="&apos;Symbol&apos;,&apos;OpenSymbol&apos;" transform="scale(0.041702,0.041511)" xml:space="preserve" x="923" y="1344"></text><text font-size="1344" font-family="&apos;Symbol&apos;,&apos;OpenSymbol&apos;" transform="scale(0.041702,0.041511)" xml:space="preserve" x="3620" y="1658"></text><text font-size="928" font-family="Times New Roman" transform="scale(0.041702,0.041511)" xml:space="preserve" x="6370" y="1344">d</text><text font-size="928" font-family="Times New Roman" transform="scale(0.041702,0.041511)" xml:space="preserve" x="5956" y="1344">)</text><text font-size="928" font-family="Times New Roman" transform="scale(0.041702,0.041511)" xml:space="preserve" x="5142" y="1344">(</text><text font-size="928" font-family="Times New Roman" transform="scale(0.041702,0.041511)" xml:space="preserve" x="2326" y="776">1</text></g></svg>