<svg xmlns="http://www.w3.org/2000/svg" xmlns:xlink="http://www.w3.org/1999/xlink" width="409" height="86"><g transform="scale(1.00245,1)"><line x1="764" y1="1088" x2="2482" y2="1088" stroke="rgb(0, 0, 0)" stroke-width="16" stroke-miterlimit="0" stroke-linecap="round" stroke-linejoin="round" shape-rendering="optimizeSpeed" transform="scale(0.041632,0.041826)" /><text font-size="896" font-family="Times New Roman" transform="scale(0.041632,0.041826)" xml:space="preserve" x="9474" y="1312">)</text><text font-size="896" font-family="Times New Roman" transform="scale(0.041632,0.041826)" xml:space="preserve" x="5482" y="1312">4</text><text font-size="896" font-family="Times New Roman" transform="scale(0.041632,0.041826)" xml:space="preserve" x="2598" y="1312">(</text><text font-size="896" font-family="Times New Roman" transform="scale(0.041632,0.041826)" xml:space="preserve" x="1070" y="1996">6</text><text font-size="608" font-family="Times New Roman" transform="scale(0.041632,0.041826)" xml:space="preserve" x="8880" y="1536">2</text><text font-size="608" font-family="Times New Roman" transform="scale(0.041632,0.041826)" xml:space="preserve" x="7236" y="1536">1</text><text font-size="608" font-family="Times New Roman" transform="scale(0.041632,0.041826)" xml:space="preserve" x="6433" y="1536">2</text><text font-size="608" font-family="Times New Roman" transform="scale(0.041632,0.041826)" xml:space="preserve" x="4279" y="1536">2</text><text font-size="608" font-family="Times New Roman" transform="scale(0.041632,0.041826)" xml:space="preserve" x="3409" y="1536">2</text><text font-size="608" font-family="Times New Roman" font-style="italic" transform="scale(0.041632,0.041826)" xml:space="preserve" x="9198" y="1536">i</text><text font-size="608" font-family="Times New Roman" font-style="italic" transform="scale(0.041632,0.041826)" xml:space="preserve" x="6751" y="1536">i</text><text font-size="608" font-family="Times New Roman" font-style="italic" transform="scale(0.041632,0.041826)" xml:space="preserve" x="3727" y="1536">i</text><text font-size="896" font-family="Times New Roman" font-style="italic" transform="scale(0.041632,0.041826)" xml:space="preserve" x="8476" y="1312">y</text><text font-size="896" font-family="Times New Roman" font-style="italic" transform="scale(0.041632,0.041826)" xml:space="preserve" x="6029" y="1312">y</text><text font-size="896" font-family="Times New Roman" font-style="italic" transform="scale(0.041632,0.041826)" xml:space="preserve" x="3005" y="1312">y</text><text font-size="896" font-family="Times New Roman" font-style="italic" transform="scale(0.041632,0.041826)" xml:space="preserve" x="1533" y="1996">m</text><text font-size="896" font-family="Times New Roman" font-style="italic" transform="scale(0.041632,0.041826)" xml:space="preserve" x="2016" y="763">a</text><text font-size="896" font-family="Times New Roman" font-style="italic" transform="scale(0.041632,0.041826)" xml:space="preserve" x="754" y="763">b</text><text font-size="896" font-family="&apos;Symbol&apos;,&apos;OpenSymbol&apos;" transform="scale(0.041632,0.041826)" xml:space="preserve" x="7726" y="1312"></text><text font-size="896" font-family="&apos;Symbol&apos;,&apos;OpenSymbol&apos;" transform="scale(0.041632,0.041826)" xml:space="preserve" x="4816" y="1312"></text><text font-size="896" font-family="&apos;Symbol&apos;,&apos;OpenSymbol&apos;" transform="scale(0.041632,0.041826)" xml:space="preserve" x="1364" y="763"></text><text font-size="896" font-family="&apos;Symbol&apos;,&apos;OpenSymbol&apos;" transform="scale(0.041632,0.041826)" xml:space="preserve" x="50" y="1312"></text><text font-size="608" font-family="&apos;Symbol&apos;,&apos;OpenSymbol&apos;" transform="scale(0.041632,0.041826)" xml:space="preserve" x="6951" y="1536"></text><text font-size="608" font-family="&apos;Symbol&apos;,&apos;OpenSymbol&apos;" transform="scale(0.041632,0.041826)" xml:space="preserve" x="3927" y="1536"></text></g></svg>