<svg xmlns="http://www.w3.org/2000/svg" xmlns:xlink="http://www.w3.org/1999/xlink" width="308" height="109"><g transform="scale(1.00326,1.00926)"><line x1="6187" y1="1304" x2="7303" y2="1304" stroke="rgb(0, 0, 0)" stroke-width="16" stroke-miterlimit="0" stroke-linecap="round" stroke-linejoin="round" shape-rendering="optimizeSpeed" transform="scale(0.041666,0.041539)" /><text font-size="1408" font-family="&apos;Symbol&apos;,&apos;OpenSymbol&apos;" transform="scale(0.041666,0.041539)" xml:space="preserve" x="3839" y="1755"></text><text font-size="640" font-family="&apos;Symbol&apos;,&apos;OpenSymbol&apos;" transform="scale(0.041666,0.041539)" xml:space="preserve" x="4229" y="561"></text><text font-size="640" font-family="&apos;Symbol&apos;,&apos;OpenSymbol&apos;" transform="scale(0.041666,0.041539)" xml:space="preserve" x="4179" y="2527"></text><text font-size="640" font-family="&apos;Symbol&apos;,&apos;OpenSymbol&apos;" transform="scale(0.041666,0.041539)" xml:space="preserve" x="2441" y="2176"></text><text font-size="640" font-family="&apos;Symbol&apos;,&apos;OpenSymbol&apos;" transform="scale(0.041666,0.041539)" xml:space="preserve" x="1789" y="2176"></text><text font-size="928" font-family="&apos;Symbol&apos;,&apos;OpenSymbol&apos;" transform="scale(0.041666,0.041539)" xml:space="preserve" x="705" y="1536"></text><text font-size="640" font-family="Times New Roman" transform="scale(0.041666,0.041539)" xml:space="preserve" x="4551" y="561">1</text><text font-size="640" font-family="Times New Roman" transform="scale(0.041666,0.041539)" xml:space="preserve" x="4561" y="2527">0</text><text font-size="928" font-family="Times New Roman" transform="scale(0.041666,0.041539)" xml:space="preserve" x="6822" y="968">π</text><text font-size="928" font-family="Times New Roman" transform="scale(0.041666,0.041539)" xml:space="preserve" x="4932 5292 5556" y="1536">sin</text><text font-size="928" font-family="Times New Roman" transform="scale(0.041666,0.041539)" xml:space="preserve" x="1548 1812 2076" y="1536">lim</text><text font-size="640" font-family="Times New Roman" font-style="italic" transform="scale(0.041666,0.041539)" xml:space="preserve" x="3867" y="561">n</text><text font-size="640" font-family="Times New Roman" font-style="italic" transform="scale(0.041666,0.041539)" xml:space="preserve" x="3807" y="2527">k</text><text font-size="640" font-family="Times New Roman" font-style="italic" transform="scale(0.041666,0.041539)" xml:space="preserve" x="1437" y="2176">n</text><text font-size="928" font-family="Times New Roman" font-style="italic" transform="scale(0.041666,0.041539)" xml:space="preserve" x="6521" y="2244">n</text><text font-size="928" font-family="Times New Roman" font-style="italic" transform="scale(0.041666,0.041539)" xml:space="preserve" x="6205" y="968">k</text><text font-size="928" font-family="Times New Roman" font-style="italic" transform="scale(0.041666,0.041539)" xml:space="preserve" x="78" y="1536">I</text></g></svg>