<svg xmlns="http://www.w3.org/2000/svg" xmlns:xlink="http://www.w3.org/1999/xlink" width="247" height="102"><text font-size="1125" font-family="&apos;Symbol&apos;,&apos;OpenSymbol&apos;" transform="scale(0.041666,0.041801)" xml:space="preserve" x="3284" y="1469"></text><text font-size="1125" font-family="&apos;Symbol&apos;,&apos;OpenSymbol&apos;" transform="scale(0.041666,0.041801)" xml:space="preserve" x="4479" y="1469"></text><line x1="5387" y1="1240" x2="5872" y2="1240" stroke="rgb(0, 0, 0)" stroke-width="16" stroke-miterlimit="0" stroke-linecap="round" stroke-linejoin="round" shape-rendering="optimizeSpeed" transform="scale(0.041666,0.041801)" /><text font-size="928" font-family="Times New Roman" font-style="italic" transform="scale(0.041666,0.041801)" xml:space="preserve" x="5405" y="2180">n</text><text font-size="640" font-family="Times New Roman" font-style="italic" transform="scale(0.041666,0.041801)" xml:space="preserve" x="2599" y="577">n</text><text font-size="640" font-family="Times New Roman" font-style="italic" transform="scale(0.041666,0.041801)" xml:space="preserve" x="2354" y="2384">i</text><text font-size="640" font-family="Times New Roman" font-style="italic" transform="scale(0.041666,0.041801)" xml:space="preserve" x="4837" y="1014">p</text><text font-size="640" font-family="Times New Roman" font-style="italic" transform="scale(0.041666,0.041801)" xml:space="preserve" x="770" y="2112">n</text><text font-size="928" font-family="Times New Roman" transform="scale(0.041666,0.041801)" xml:space="preserve" x="5397" y="904">1</text><text font-size="928" font-family="Times New Roman" transform="scale(0.041666,0.041801)" xml:space="preserve" x="869 1133 1397" y="1472">lim</text><text font-size="640" font-family="Times New Roman" transform="scale(0.041666,0.041801)" xml:space="preserve" x="2884" y="2384">1</text><text font-size="1216" font-family="&apos;Symbol&apos;,&apos;OpenSymbol&apos;" transform="scale(0.041666,0.041801)" xml:space="preserve" x="2327" y="1630"></text><text font-size="640" font-family="&apos;Symbol&apos;,&apos;OpenSymbol&apos;" transform="scale(0.041666,0.041801)" xml:space="preserve" x="2574" y="2384"></text><text font-size="640" font-family="&apos;Symbol&apos;,&apos;OpenSymbol&apos;" transform="scale(0.041666,0.041801)" xml:space="preserve" x="1750" y="2112"></text><text font-size="640" font-family="&apos;Symbol&apos;,&apos;OpenSymbol&apos;" transform="scale(0.041666,0.041801)" xml:space="preserve" x="1110" y="2112"></text><text font-size="928" font-family="&apos;Symbol&apos;,&apos;OpenSymbol&apos;" transform="scale(0.041666,0.041801)" xml:space="preserve" x="50" y="1472"></text></svg>