<svg xmlns="http://www.w3.org/2000/svg" xmlns:xlink="http://www.w3.org/1999/xlink" width="424" height="46"><text font-size="928" font-family="Times New Roman" transform="scale(0.041634,0.041964)" xml:space="preserve" x="9858" y="800">)</text><text font-size="928" font-family="Times New Roman" transform="scale(0.041634,0.041964)" xml:space="preserve" x="9048" y="800">,</text><text font-size="928" font-family="Times New Roman" transform="scale(0.041634,0.041964)" xml:space="preserve" x="7866" y="800">,</text><text font-size="928" font-family="Times New Roman" transform="scale(0.041634,0.041964)" xml:space="preserve" x="7405" y="800">1</text><text font-size="928" font-family="Times New Roman" transform="scale(0.041634,0.041964)" xml:space="preserve" x="7177" y="800">,</text><text font-size="928" font-family="Times New Roman" transform="scale(0.041634,0.041964)" xml:space="preserve" x="6644" y="800">0</text><text font-size="928" font-family="Times New Roman" transform="scale(0.041634,0.041964)" xml:space="preserve" x="5153" y="800">(</text><text font-size="928" font-family="Times New Roman" transform="scale(0.041634,0.041964)" xml:space="preserve" x="2798" y="800">)</text><text font-size="928" font-family="Times New Roman" transform="scale(0.041634,0.041964)" xml:space="preserve" x="1729" y="800">(</text><text font-size="928" font-family="Times New Roman" font-style="italic" transform="scale(0.041634,0.041964)" xml:space="preserve" x="9378" y="800">n</text><text font-size="928" font-family="Times New Roman" font-style="italic" transform="scale(0.041634,0.041964)" xml:space="preserve" x="5459" y="800">i</text><text font-size="928" font-family="Times New Roman" font-style="italic" transform="scale(0.041634,0.041964)" xml:space="preserve" x="4113" y="800">y</text><text font-size="928" font-family="Times New Roman" font-style="italic" transform="scale(0.041634,0.041964)" xml:space="preserve" x="2107" y="800">x</text><text font-size="928" font-family="Times New Roman" font-style="italic" transform="scale(0.041634,0.041964)" xml:space="preserve" x="1249" y="800">f</text><text font-size="640" font-family="Times New Roman" font-style="italic" transform="scale(0.041634,0.041964)" xml:space="preserve" x="4520" y="1032">i</text><text font-size="640" font-family="Times New Roman" font-style="italic" transform="scale(0.041634,0.041964)" xml:space="preserve" x="2499" y="1032">i</text><text font-size="928" font-family="&apos;MT Extra&apos;,&apos;DejaVu Sans&apos;" transform="scale(0.041634,0.041964)" xml:space="preserve" x="8109" y="800"></text><text font-size="928" font-family="&apos;Symbol&apos;,&apos;OpenSymbol&apos;" transform="scale(0.041634,0.041964)" xml:space="preserve" x="5943" y="800"></text><text font-size="928" font-family="&apos;Symbol&apos;,&apos;OpenSymbol&apos;" transform="scale(0.041634,0.041964)" xml:space="preserve" x="3311" y="800"></text><text font-size="928" font-family="&apos;楷体_GB2312&apos;,&apos;DejaVu Sans&apos;" transform="scale(0.041634,0.041964)" xml:space="preserve" x="35" y="800">记</text></svg>