<svg xmlns="http://www.w3.org/2000/svg" xmlns:xlink="http://www.w3.org/1999/xlink" width="542" height="81"><g transform="scale(1,1.0125)"><text font-size="640" font-family="Times New Roman" transform="scale(0.041692,0.041495)" xml:space="preserve" x="12671" y="1448">5</text><text font-size="640" font-family="Times New Roman" transform="scale(0.041692,0.041495)" xml:space="preserve" x="10824" y="1448">4</text><text font-size="640" font-family="Times New Roman" transform="scale(0.041692,0.041495)" xml:space="preserve" x="8992" y="1448">3</text><text font-size="640" font-family="Times New Roman" transform="scale(0.041692,0.041495)" xml:space="preserve" x="7145" y="1448">2</text><text font-size="640" font-family="Times New Roman" transform="scale(0.041692,0.041495)" xml:space="preserve" x="5343" y="1448">1</text><text font-size="928" font-family="Times New Roman" transform="scale(0.041692,0.041495)" xml:space="preserve" x="2814" y="1216">d</text><text font-size="928" font-family="Times New Roman" transform="scale(0.041692,0.041495)" xml:space="preserve" x="2400" y="1216">)</text><text font-size="928" font-family="Times New Roman" transform="scale(0.041692,0.041495)" xml:space="preserve" x="1586" y="1216">(</text><text font-size="928" font-family="Times New Roman" font-style="italic" transform="scale(0.041692,0.041495)" xml:space="preserve" x="12179" y="1216">A</text><text font-size="928" font-family="Times New Roman" font-style="italic" transform="scale(0.041692,0.041495)" xml:space="preserve" x="10312" y="1216">A</text><text font-size="928" font-family="Times New Roman" font-style="italic" transform="scale(0.041692,0.041495)" xml:space="preserve" x="8500" y="1216">A</text><text font-size="928" font-family="Times New Roman" font-style="italic" transform="scale(0.041692,0.041495)" xml:space="preserve" x="6633" y="1216">A</text><text font-size="928" font-family="Times New Roman" font-style="italic" transform="scale(0.041692,0.041495)" xml:space="preserve" x="4901" y="1216">A</text><text font-size="928" font-family="Times New Roman" font-style="italic" transform="scale(0.041692,0.041495)" xml:space="preserve" x="3460" y="1216">x</text><text font-size="928" font-family="Times New Roman" font-style="italic" transform="scale(0.041692,0.041495)" xml:space="preserve" x="1964" y="1216">x</text><text font-size="928" font-family="Times New Roman" font-style="italic" transform="scale(0.041692,0.041495)" xml:space="preserve" x="1106" y="1216">f</text><text font-size="640" font-family="Times New Roman" font-style="italic" transform="scale(0.041692,0.041495)" xml:space="preserve" x="583" y="564">b</text><text font-size="640" font-family="Times New Roman" font-style="italic" transform="scale(0.041692,0.041495)" xml:space="preserve" x="469" y="1724">a</text><text font-size="928" font-family="&apos;Symbol&apos;,&apos;OpenSymbol&apos;" transform="scale(0.041692,0.041495)" xml:space="preserve" x="11412" y="1216"></text><text font-size="928" font-family="&apos;Symbol&apos;,&apos;OpenSymbol&apos;" transform="scale(0.041692,0.041495)" xml:space="preserve" x="9560" y="1216"></text><text font-size="928" font-family="&apos;Symbol&apos;,&apos;OpenSymbol&apos;" transform="scale(0.041692,0.041495)" xml:space="preserve" x="7733" y="1216"></text><text font-size="928" font-family="&apos;Symbol&apos;,&apos;OpenSymbol&apos;" transform="scale(0.041692,0.041495)" xml:space="preserve" x="5881" y="1216"></text><text font-size="928" font-family="&apos;Symbol&apos;,&apos;OpenSymbol&apos;" transform="scale(0.041692,0.041495)" xml:space="preserve" x="4101" y="1216"></text><text font-size="1344" font-family="&apos;Symbol&apos;,&apos;OpenSymbol&apos;" transform="scale(0.041692,0.041495)" xml:space="preserve" x="64" y="1530"></text></g></svg>