<svg xmlns="http://www.w3.org/2000/svg" xmlns:xlink="http://www.w3.org/1999/xlink" width="711" height="105"><g transform="scale(1,1.00962)"><line x1="3049" y1="1144" x2="3534" y2="1144" stroke="rgb(0, 0, 0)" stroke-width="16" stroke-miterlimit="0" stroke-linecap="round" stroke-linejoin="round" shape-rendering="optimizeSpeed" transform="scale(0.041666,0.041534)" /><line x1="5307" y1="1144" x2="6394" y2="1144" stroke="rgb(0, 0, 0)" stroke-width="16" stroke-miterlimit="0" stroke-linecap="round" stroke-linejoin="round" shape-rendering="optimizeSpeed" transform="scale(0.041666,0.041534)" /><line x1="10153" y1="1144" x2="11255" y2="1144" stroke="rgb(0, 0, 0)" stroke-width="16" stroke-miterlimit="0" stroke-linecap="round" stroke-linejoin="round" shape-rendering="optimizeSpeed" transform="scale(0.041666,0.041534)" /><line x1="13378" y1="1144" x2="16263" y2="1144" stroke="rgb(0, 0, 0)" stroke-width="16" stroke-miterlimit="0" stroke-linecap="round" stroke-linejoin="round" shape-rendering="optimizeSpeed" transform="scale(0.041666,0.041534)" /><text font-size="928" font-family="&apos;Symbol&apos;,&apos;OpenSymbol&apos;" transform="scale(0.041666,0.041534)" xml:space="preserve" x="16323" y="1832"></text><text font-size="928" font-family="&apos;Symbol&apos;,&apos;OpenSymbol&apos;" transform="scale(0.041666,0.041534)" xml:space="preserve" x="16323" y="2150"></text><text font-size="928" font-family="&apos;Symbol&apos;,&apos;OpenSymbol&apos;" transform="scale(0.041666,0.041534)" xml:space="preserve" x="16323" y="921"></text><text font-size="928" font-family="&apos;Symbol&apos;,&apos;OpenSymbol&apos;" transform="scale(0.041666,0.041534)" xml:space="preserve" x="3702" y="1832"></text><text font-size="928" font-family="&apos;Symbol&apos;,&apos;OpenSymbol&apos;" transform="scale(0.041666,0.041534)" xml:space="preserve" x="3702" y="2150"></text><text font-size="928" font-family="&apos;Symbol&apos;,&apos;OpenSymbol&apos;" transform="scale(0.041666,0.041534)" xml:space="preserve" x="3702" y="921"></text><text font-size="928" font-family="&apos;Symbol&apos;,&apos;OpenSymbol&apos;" transform="scale(0.041666,0.041534)" xml:space="preserve" x="14353" y="808"></text><text font-size="928" font-family="&apos;Symbol&apos;,&apos;OpenSymbol&apos;" transform="scale(0.041666,0.041534)" xml:space="preserve" x="11457" y="1376"></text><text font-size="928" font-family="&apos;Symbol&apos;,&apos;OpenSymbol&apos;" transform="scale(0.041666,0.041534)" xml:space="preserve" x="8232" y="1376"></text><text font-size="928" font-family="&apos;Symbol&apos;,&apos;OpenSymbol&apos;" transform="scale(0.041666,0.041534)" xml:space="preserve" x="6596" y="1376"></text><text font-size="928" font-family="&apos;Symbol&apos;,&apos;OpenSymbol&apos;" transform="scale(0.041666,0.041534)" xml:space="preserve" x="705" y="1376"></text><text font-size="640" font-family="&apos;Symbol&apos;,&apos;OpenSymbol&apos;" transform="scale(0.041666,0.041534)" xml:space="preserve" x="2441" y="2016"></text><text font-size="640" font-family="&apos;Symbol&apos;,&apos;OpenSymbol&apos;" transform="scale(0.041666,0.041534)" xml:space="preserve" x="1789" y="2016"></text><text font-size="928" font-family="Times New Roman" font-style="italic" transform="scale(0.041666,0.041534)" xml:space="preserve" x="14596" y="2084">n</text><text font-size="928" font-family="Times New Roman" font-style="italic" transform="scale(0.041666,0.041534)" xml:space="preserve" x="13716" y="808">n</text><text font-size="928" font-family="Times New Roman" font-style="italic" transform="scale(0.041666,0.041534)" xml:space="preserve" x="10480" y="2084">n</text><text font-size="928" font-family="Times New Roman" font-style="italic" transform="scale(0.041666,0.041534)" xml:space="preserve" x="10171" y="808">n</text><text font-size="928" font-family="Times New Roman" font-style="italic" transform="scale(0.041666,0.041534)" xml:space="preserve" x="5626" y="2084">n</text><text font-size="928" font-family="Times New Roman" font-style="italic" transform="scale(0.041666,0.041534)" xml:space="preserve" x="3067" y="2084">n</text><text font-size="928" font-family="Times New Roman" font-style="italic" transform="scale(0.041666,0.041534)" xml:space="preserve" x="78" y="1376">I</text><text font-size="640" font-family="Times New Roman" font-style="italic" transform="scale(0.041666,0.041534)" xml:space="preserve" x="1437" y="2016">n</text><text font-size="928" font-family="Times New Roman" transform="scale(0.041666,0.041534)" xml:space="preserve" x="15782" y="808">π</text><text font-size="928" font-family="Times New Roman" transform="scale(0.041666,0.041534)" xml:space="preserve" x="15339" y="808">)</text><text font-size="928" font-family="Times New Roman" transform="scale(0.041666,0.041534)" xml:space="preserve" x="14946" y="808">1</text><text font-size="928" font-family="Times New Roman" transform="scale(0.041666,0.041534)" xml:space="preserve" x="13381" y="808">(</text><text font-size="928" font-family="Times New Roman" transform="scale(0.041666,0.041534)" xml:space="preserve" x="12123 12483 12747" y="1376">sin</text><text font-size="928" font-family="Times New Roman" transform="scale(0.041666,0.041534)" xml:space="preserve" x="10774" y="808">π</text><text font-size="928" font-family="Times New Roman" transform="scale(0.041666,0.041534)" xml:space="preserve" x="8898 9258 9522" y="1376">sin</text><text font-size="928" font-family="Times New Roman" transform="scale(0.041666,0.041534)" xml:space="preserve" x="5913" y="808">π</text><text font-size="928" font-family="Times New Roman" transform="scale(0.041666,0.041534)" xml:space="preserve" x="5325" y="808">2</text><text font-size="928" font-family="Times New Roman" transform="scale(0.041666,0.041534)" xml:space="preserve" x="4052 4412 4676" y="1376">sin</text><text font-size="928" font-family="Times New Roman" transform="scale(0.041666,0.041534)" xml:space="preserve" x="3059" y="808">1</text><text font-size="928" font-family="Times New Roman" transform="scale(0.041666,0.041534)" xml:space="preserve" x="1548 1812 2076" y="1376">lim</text><text font-size="928" font-family="&apos;MT Extra&apos;,&apos;DejaVu Sans&apos;" transform="scale(0.041666,0.041534)" xml:space="preserve" x="7204" y="1376"></text></g></svg>