<svg xmlns="http://www.w3.org/2000/svg" xmlns:xlink="http://www.w3.org/1999/xlink" width="686" height="105"><g transform="scale(1,1.00962)"><line x1="3049" y1="1144" x2="3534" y2="1144" stroke="rgb(0, 0, 0)" stroke-width="16" stroke-miterlimit="0" stroke-linecap="round" stroke-linejoin="round" shape-rendering="optimizeSpeed" transform="scale(0.041686,0.041534)" /><line x1="5307" y1="1144" x2="5820" y2="1144" stroke="rgb(0, 0, 0)" stroke-width="16" stroke-miterlimit="0" stroke-linecap="round" stroke-linejoin="round" shape-rendering="optimizeSpeed" transform="scale(0.041686,0.041534)" /><line x1="7943" y1="1144" x2="9030" y2="1144" stroke="rgb(0, 0, 0)" stroke-width="16" stroke-miterlimit="0" stroke-linecap="round" stroke-linejoin="round" shape-rendering="optimizeSpeed" transform="scale(0.041686,0.041534)" /><line x1="12789" y1="1144" x2="15659" y2="1144" stroke="rgb(0, 0, 0)" stroke-width="16" stroke-miterlimit="0" stroke-linecap="round" stroke-linejoin="round" shape-rendering="optimizeSpeed" transform="scale(0.041686,0.041534)" /><text font-size="928" font-family="&apos;Symbol&apos;,&apos;OpenSymbol&apos;" transform="scale(0.041686,0.041534)" xml:space="preserve" x="15719" y="1832"></text><text font-size="928" font-family="&apos;Symbol&apos;,&apos;OpenSymbol&apos;" transform="scale(0.041686,0.041534)" xml:space="preserve" x="15719" y="2150"></text><text font-size="928" font-family="&apos;Symbol&apos;,&apos;OpenSymbol&apos;" transform="scale(0.041686,0.041534)" xml:space="preserve" x="15719" y="921"></text><text font-size="928" font-family="&apos;Symbol&apos;,&apos;OpenSymbol&apos;" transform="scale(0.041686,0.041534)" xml:space="preserve" x="3702" y="1832"></text><text font-size="928" font-family="&apos;Symbol&apos;,&apos;OpenSymbol&apos;" transform="scale(0.041686,0.041534)" xml:space="preserve" x="3702" y="2150"></text><text font-size="928" font-family="&apos;Symbol&apos;,&apos;OpenSymbol&apos;" transform="scale(0.041686,0.041534)" xml:space="preserve" x="3702" y="921"></text><text font-size="928" font-family="&apos;Symbol&apos;,&apos;OpenSymbol&apos;" transform="scale(0.041686,0.041534)" xml:space="preserve" x="13764" y="808"></text><text font-size="928" font-family="&apos;Symbol&apos;,&apos;OpenSymbol&apos;" transform="scale(0.041686,0.041534)" xml:space="preserve" x="10868" y="1376"></text><text font-size="928" font-family="&apos;Symbol&apos;,&apos;OpenSymbol&apos;" transform="scale(0.041686,0.041534)" xml:space="preserve" x="9232" y="1376"></text><text font-size="928" font-family="&apos;Symbol&apos;,&apos;OpenSymbol&apos;" transform="scale(0.041686,0.041534)" xml:space="preserve" x="6022" y="1376"></text><text font-size="928" font-family="&apos;Symbol&apos;,&apos;OpenSymbol&apos;" transform="scale(0.041686,0.041534)" xml:space="preserve" x="705" y="1376"></text><text font-size="640" font-family="&apos;Symbol&apos;,&apos;OpenSymbol&apos;" transform="scale(0.041686,0.041534)" xml:space="preserve" x="2441" y="2016"></text><text font-size="640" font-family="&apos;Symbol&apos;,&apos;OpenSymbol&apos;" transform="scale(0.041686,0.041534)" xml:space="preserve" x="1789" y="2016"></text><text font-size="928" font-family="Times New Roman" font-style="italic" transform="scale(0.041686,0.041534)" xml:space="preserve" x="14000" y="2084">n</text><text font-size="928" font-family="Times New Roman" font-style="italic" transform="scale(0.041686,0.041534)" xml:space="preserve" x="13127" y="808">n</text><text font-size="928" font-family="Times New Roman" font-style="italic" transform="scale(0.041686,0.041534)" xml:space="preserve" x="8262" y="2084">n</text><text font-size="928" font-family="Times New Roman" font-style="italic" transform="scale(0.041686,0.041534)" xml:space="preserve" x="5339" y="2084">n</text><text font-size="928" font-family="Times New Roman" font-style="italic" transform="scale(0.041686,0.041534)" xml:space="preserve" x="3067" y="2084">n</text><text font-size="928" font-family="Times New Roman" font-style="italic" transform="scale(0.041686,0.041534)" xml:space="preserve" x="78" y="1376">I</text><text font-size="640" font-family="Times New Roman" font-style="italic" transform="scale(0.041686,0.041534)" xml:space="preserve" x="1437" y="2016">n</text><text font-size="928" font-family="Times New Roman" transform="scale(0.041686,0.041534)" xml:space="preserve" x="15178" y="808">π</text><text font-size="928" font-family="Times New Roman" transform="scale(0.041686,0.041534)" xml:space="preserve" x="14735" y="808">)</text><text font-size="928" font-family="Times New Roman" transform="scale(0.041686,0.041534)" xml:space="preserve" x="14342" y="808">1</text><text font-size="928" font-family="Times New Roman" transform="scale(0.041686,0.041534)" xml:space="preserve" x="12792" y="808">(</text><text font-size="928" font-family="Times New Roman" transform="scale(0.041686,0.041534)" xml:space="preserve" x="11534 11894 12158" y="1376">sin</text><text font-size="928" font-family="Times New Roman" transform="scale(0.041686,0.041534)" xml:space="preserve" x="8549" y="808">π</text><text font-size="928" font-family="Times New Roman" transform="scale(0.041686,0.041534)" xml:space="preserve" x="7961" y="808">2</text><text font-size="928" font-family="Times New Roman" transform="scale(0.041686,0.041534)" xml:space="preserve" x="6688 7048 7312" y="1376">sin</text><text font-size="928" font-family="Times New Roman" transform="scale(0.041686,0.041534)" xml:space="preserve" x="5339" y="808">π</text><text font-size="928" font-family="Times New Roman" transform="scale(0.041686,0.041534)" xml:space="preserve" x="4052 4412 4676" y="1376">sin</text><text font-size="928" font-family="Times New Roman" transform="scale(0.041686,0.041534)" xml:space="preserve" x="3059" y="808">1</text><text font-size="928" font-family="Times New Roman" transform="scale(0.041686,0.041534)" xml:space="preserve" x="1548 1812 2076" y="1376">lim</text><text font-size="928" font-family="&apos;MT Extra&apos;,&apos;DejaVu Sans&apos;" transform="scale(0.041686,0.041534)" xml:space="preserve" x="9840" y="1376"></text></g></svg>