<svg xmlns="http://www.w3.org/2000/svg" xmlns:xlink="http://www.w3.org/1999/xlink" width="341" height="81"><g transform="scale(1.00294,1.0125)"><text font-size="928" font-family="Times New Roman" font-style="italic" transform="scale(0.041625,0.041495)" xml:space="preserve" x="7707" y="1216">x</text><text font-size="928" font-family="Times New Roman" font-style="italic" transform="scale(0.041625,0.041495)" xml:space="preserve" x="6379" y="1216">x</text><text font-size="928" font-family="Times New Roman" font-style="italic" transform="scale(0.041625,0.041495)" xml:space="preserve" x="1890" y="1216">x</text><text font-size="928" font-family="Times New Roman" font-style="italic" transform="scale(0.041625,0.041495)" xml:space="preserve" x="882" y="1216">x</text><text font-size="928" font-family="Times New Roman" transform="scale(0.041625,0.041495)" xml:space="preserve" x="7229" y="1216">d</text><text font-size="928" font-family="Times New Roman" transform="scale(0.041625,0.041495)" xml:space="preserve" x="6815" y="1216">)</text><text font-size="928" font-family="Times New Roman" transform="scale(0.041625,0.041495)" xml:space="preserve" x="5091" y="1216">1</text><text font-size="928" font-family="Times New Roman" transform="scale(0.041625,0.041495)" xml:space="preserve" x="4858" y="1216">(</text><text font-size="928" font-family="Times New Roman" transform="scale(0.041625,0.041495)" xml:space="preserve" x="4009 4273" y="1216">ln</text><text font-size="928" font-family="Times New Roman" transform="scale(0.041625,0.041495)" xml:space="preserve" x="1412" y="1216">d</text><text font-size="640" font-family="Times New Roman" transform="scale(0.041625,0.041495)" xml:space="preserve" x="3654" y="564">1</text><text font-size="640" font-family="Times New Roman" transform="scale(0.041625,0.041495)" xml:space="preserve" x="3580" y="1724">0</text><text font-size="640" font-family="Times New Roman" transform="scale(0.041625,0.041495)" xml:space="preserve" x="445" y="564">1</text><text font-size="640" font-family="Times New Roman" transform="scale(0.041625,0.041495)" xml:space="preserve" x="371" y="1724">0</text><text font-size="1344" font-family="&apos;Symbol&apos;,&apos;OpenSymbol&apos;" transform="scale(0.041625,0.041495)" xml:space="preserve" x="3273" y="1530"></text><text font-size="1344" font-family="&apos;Symbol&apos;,&apos;OpenSymbol&apos;" transform="scale(0.041625,0.041495)" xml:space="preserve" x="64" y="1530"></text><text font-size="928" font-family="&apos;Symbol&apos;,&apos;OpenSymbol&apos;" transform="scale(0.041625,0.041495)" xml:space="preserve" x="5641" y="1216"></text><text font-size="928" font-family="&apos;Symbol&apos;,&apos;OpenSymbol&apos;" transform="scale(0.041625,0.041495)" xml:space="preserve" x="2531" y="1216"></text></g></svg>