<svg xmlns="http://www.w3.org/2000/svg" xmlns:xlink="http://www.w3.org/1999/xlink" width="440" height="90"><g transform="scale(1.00228,1)"><line x1="764" y1="1088" x2="2482" y2="1088" stroke="rgb(0, 0, 0)" stroke-width="16" stroke-miterlimit="0" stroke-linecap="round" stroke-linejoin="round" shape-rendering="optimizeSpeed" transform="scale(0.041666,0.041819)" /><text font-size="896" font-family="Times New Roman" transform="scale(0.041666,0.041819)" xml:space="preserve" x="10212" y="1312">)</text><text font-size="896" font-family="Times New Roman" transform="scale(0.041666,0.041819)" xml:space="preserve" x="6220" y="1312">4</text><text font-size="896" font-family="Times New Roman" transform="scale(0.041666,0.041819)" xml:space="preserve" x="3407" y="1312">(</text><text font-size="896" font-family="Times New Roman" transform="scale(0.041666,0.041819)" xml:space="preserve" x="1070" y="1996">6</text><text font-size="608" font-family="Times New Roman" transform="scale(0.041666,0.041819)" xml:space="preserve" x="9618" y="1536">2</text><text font-size="608" font-family="Times New Roman" transform="scale(0.041666,0.041819)" xml:space="preserve" x="7974" y="1536">1</text><text font-size="608" font-family="Times New Roman" transform="scale(0.041666,0.041819)" xml:space="preserve" x="7171" y="1536">2</text><text font-size="608" font-family="Times New Roman" transform="scale(0.041666,0.041819)" xml:space="preserve" x="5017" y="1536">2</text><text font-size="608" font-family="Times New Roman" transform="scale(0.041666,0.041819)" xml:space="preserve" x="4147" y="1536">2</text><text font-size="608" font-family="Times New Roman" transform="scale(0.041666,0.041819)" xml:space="preserve" x="3083" y="2094">1</text><text font-size="608" font-family="Times New Roman" font-style="italic" transform="scale(0.041666,0.041819)" xml:space="preserve" x="9936" y="1536">i</text><text font-size="608" font-family="Times New Roman" font-style="italic" transform="scale(0.041666,0.041819)" xml:space="preserve" x="7489" y="1536">i</text><text font-size="608" font-family="Times New Roman" font-style="italic" transform="scale(0.041666,0.041819)" xml:space="preserve" x="4465" y="1536">i</text><text font-size="608" font-family="Times New Roman" font-style="italic" transform="scale(0.041666,0.041819)" xml:space="preserve" x="2755" y="539">m</text><text font-size="608" font-family="Times New Roman" font-style="italic" transform="scale(0.041666,0.041819)" xml:space="preserve" x="2598" y="2094">i</text><text font-size="896" font-family="Times New Roman" font-style="italic" transform="scale(0.041666,0.041819)" xml:space="preserve" x="9214" y="1312">y</text><text font-size="896" font-family="Times New Roman" font-style="italic" transform="scale(0.041666,0.041819)" xml:space="preserve" x="6767" y="1312">y</text><text font-size="896" font-family="Times New Roman" font-style="italic" transform="scale(0.041666,0.041819)" xml:space="preserve" x="3743" y="1312">y</text><text font-size="896" font-family="Times New Roman" font-style="italic" transform="scale(0.041666,0.041819)" xml:space="preserve" x="1533" y="1996">m</text><text font-size="896" font-family="Times New Roman" font-style="italic" transform="scale(0.041666,0.041819)" xml:space="preserve" x="2016" y="763">a</text><text font-size="896" font-family="Times New Roman" font-style="italic" transform="scale(0.041666,0.041819)" xml:space="preserve" x="754" y="763">b</text><text font-size="896" font-family="&apos;Symbol&apos;,&apos;OpenSymbol&apos;" transform="scale(0.041666,0.041819)" xml:space="preserve" x="8464" y="1312"></text><text font-size="896" font-family="&apos;Symbol&apos;,&apos;OpenSymbol&apos;" transform="scale(0.041666,0.041819)" xml:space="preserve" x="5554" y="1312"></text><text font-size="896" font-family="&apos;Symbol&apos;,&apos;OpenSymbol&apos;" transform="scale(0.041666,0.041819)" xml:space="preserve" x="1364" y="763"></text><text font-size="896" font-family="&apos;Symbol&apos;,&apos;OpenSymbol&apos;" transform="scale(0.041666,0.041819)" xml:space="preserve" x="50" y="1312"></text><text font-size="608" font-family="&apos;Symbol&apos;,&apos;OpenSymbol&apos;" transform="scale(0.041666,0.041819)" xml:space="preserve" x="7689" y="1536"></text><text font-size="608" font-family="&apos;Symbol&apos;,&apos;OpenSymbol&apos;" transform="scale(0.041666,0.041819)" xml:space="preserve" x="4665" y="1536"></text><text font-size="608" font-family="&apos;Symbol&apos;,&apos;OpenSymbol&apos;" transform="scale(0.041666,0.041819)" xml:space="preserve" x="2798" y="2094"></text><text font-size="960" font-family="&apos;Symbol&apos;,&apos;OpenSymbol&apos;" transform="scale(0.041666,0.041819)" xml:space="preserve" x="2631" y="1396"></text></g></svg>