<svg xmlns="http://www.w3.org/2000/svg" xmlns:xlink="http://www.w3.org/1999/xlink" width="417" height="74"><g transform="scale(1.0024,1)"><text font-size="928" font-family="&apos;楷体_GB2312&apos;,&apos;DejaVu Sans&apos;" transform="scale(0.041633,0.041852)" xml:space="preserve" x="9068" y="832">时</text><text font-size="928" font-family="&apos;楷体_GB2312&apos;,&apos;DejaVu Sans&apos;" transform="scale(0.041633,0.041852)" xml:space="preserve" x="6 919" y="832">只要</text><text font-size="928" font-family="Times New Roman" transform="scale(0.041633,0.041852)" xml:space="preserve" x="8593" y="832">0</text><text font-size="928" font-family="Times New Roman" transform="scale(0.041633,0.041852)" xml:space="preserve" x="6929" y="832">}</text><text font-size="928" font-family="Times New Roman" transform="scale(0.041633,0.041852)" xml:space="preserve" x="5216" y="832">{</text><text font-size="928" font-family="Times New Roman" transform="scale(0.041633,0.041852)" xml:space="preserve" x="3563 4260 4668" y="832">max</text><text font-size="704" font-family="Times New Roman" transform="scale(0.041633,0.041852)" xml:space="preserve" x="3390" y="1550">1</text><text font-size="928" font-family="&apos;Symbol&apos;,&apos;OpenSymbol&apos;" transform="scale(0.041633,0.041852)" xml:space="preserve" x="7500" y="832"></text><text font-size="928" font-family="&apos;Symbol&apos;,&apos;OpenSymbol&apos;" transform="scale(0.041633,0.041852)" xml:space="preserve" x="5638" y="832"></text><text font-size="928" font-family="&apos;Symbol&apos;,&apos;OpenSymbol&apos;" transform="scale(0.041633,0.041852)" xml:space="preserve" x="2748" y="832"></text><text font-size="704" font-family="&apos;Symbol&apos;,&apos;OpenSymbol&apos;" transform="scale(0.041633,0.041852)" xml:space="preserve" x="4501" y="1550"></text><text font-size="704" font-family="&apos;Symbol&apos;,&apos;OpenSymbol&apos;" transform="scale(0.041633,0.041852)" xml:space="preserve" x="3752" y="1550"></text><text font-size="704" font-family="Times New Roman" font-style="italic" transform="scale(0.041633,0.041852)" xml:space="preserve" x="6671" y="1064">i</text><text font-size="704" font-family="Times New Roman" font-style="italic" transform="scale(0.041633,0.041852)" xml:space="preserve" x="4913" y="1550">n</text><text font-size="704" font-family="Times New Roman" font-style="italic" transform="scale(0.041633,0.041852)" xml:space="preserve" x="4216" y="1550">i</text><text font-size="928" font-family="Times New Roman" font-style="italic" transform="scale(0.041633,0.041852)" xml:space="preserve" x="6250" y="832">x</text><text font-size="928" font-family="&apos;Symbol&apos;,&apos;OpenSymbol&apos;" font-style="italic" transform="scale(0.041633,0.041852)" xml:space="preserve" x="1974" y="832"></text></g></svg>