<svg xmlns="http://www.w3.org/2000/svg" xmlns:xlink="http://www.w3.org/1999/xlink" width="350" height="81"><g transform="scale(1,1.0125)"><text font-size="928" font-family="&apos;Symbol&apos;,&apos;OpenSymbol&apos;" transform="scale(0.041706,0.041495)" xml:space="preserve" x="7870" y="1216"></text><text font-size="928" font-family="&apos;Symbol&apos;,&apos;OpenSymbol&apos;" transform="scale(0.041706,0.041495)" xml:space="preserve" x="2027" y="1216"></text><text font-size="1344" font-family="&apos;Symbol&apos;,&apos;OpenSymbol&apos;" transform="scale(0.041706,0.041495)" xml:space="preserve" x="4001" y="1530"></text><text font-size="640" font-family="Times New Roman" font-style="italic" transform="scale(0.041706,0.041495)" xml:space="preserve" x="4520" y="564">b</text><text font-size="640" font-family="Times New Roman" font-style="italic" transform="scale(0.041706,0.041495)" xml:space="preserve" x="4406" y="1724">a</text><text font-size="928" font-family="Times New Roman" font-style="italic" transform="scale(0.041706,0.041495)" xml:space="preserve" x="7229" y="1216">x</text><text font-size="928" font-family="Times New Roman" font-style="italic" transform="scale(0.041706,0.041495)" xml:space="preserve" x="5901" y="1216">x</text><text font-size="928" font-family="Times New Roman" font-style="italic" transform="scale(0.041706,0.041495)" xml:space="preserve" x="5043" y="1216">f</text><text font-size="928" font-family="Times New Roman" font-style="italic" transform="scale(0.041706,0.041495)" xml:space="preserve" x="1081" y="1216">x</text><text font-size="928" font-family="Times New Roman" font-style="italic" transform="scale(0.041706,0.041495)" xml:space="preserve" x="223" y="1216">f</text><text font-size="928" font-family="Times New Roman" transform="scale(0.041706,0.041495)" xml:space="preserve" x="6751" y="1216">d</text><text font-size="928" font-family="Times New Roman" transform="scale(0.041706,0.041495)" xml:space="preserve" x="6337" y="1216">)</text><text font-size="928" font-family="Times New Roman" transform="scale(0.041706,0.041495)" xml:space="preserve" x="5523" y="1216">(</text><text font-size="928" font-family="Times New Roman" transform="scale(0.041706,0.041495)" xml:space="preserve" x="3285" y="1216">,</text><text font-size="928" font-family="Times New Roman" transform="scale(0.041706,0.041495)" xml:space="preserve" x="2740" y="1216">0</text><text font-size="928" font-family="Times New Roman" transform="scale(0.041706,0.041495)" xml:space="preserve" x="1517" y="1216">)</text><text font-size="928" font-family="Times New Roman" transform="scale(0.041706,0.041495)" xml:space="preserve" x="703" y="1216">(</text></g></svg>