<svg xmlns="http://www.w3.org/2000/svg" xmlns:xlink="http://www.w3.org/1999/xlink" width="503" height="81"><g transform="scale(1,1.0125)"><text font-size="928" font-family="Times New Roman" transform="scale(0.041666,0.041495)" xml:space="preserve" x="11744" y="1216">)</text><text font-size="928" font-family="Times New Roman" transform="scale(0.041666,0.041495)" xml:space="preserve" x="9627" y="1216">(</text><text font-size="928" font-family="Times New Roman" transform="scale(0.041666,0.041495)" xml:space="preserve" x="6852" y="1216">d</text><text font-size="928" font-family="Times New Roman" transform="scale(0.041666,0.041495)" xml:space="preserve" x="6438" y="1216">)</text><text font-size="928" font-family="Times New Roman" transform="scale(0.041666,0.041495)" xml:space="preserve" x="5624" y="1216">(</text><text font-size="928" font-family="Times New Roman" transform="scale(0.041666,0.041495)" xml:space="preserve" x="2850" y="1216">)</text><text font-size="928" font-family="Times New Roman" transform="scale(0.041666,0.041495)" xml:space="preserve" x="733" y="1216">(</text><text font-size="928" font-family="Times New Roman" font-style="italic" transform="scale(0.041666,0.041495)" xml:space="preserve" x="11250" y="1216">a</text><text font-size="928" font-family="Times New Roman" font-style="italic" transform="scale(0.041666,0.041495)" xml:space="preserve" x="9933" y="1216">b</text><text font-size="928" font-family="Times New Roman" font-style="italic" transform="scale(0.041666,0.041495)" xml:space="preserve" x="8698" y="1216">M</text><text font-size="928" font-family="Times New Roman" font-style="italic" transform="scale(0.041666,0.041495)" xml:space="preserve" x="7330" y="1216">x</text><text font-size="928" font-family="Times New Roman" font-style="italic" transform="scale(0.041666,0.041495)" xml:space="preserve" x="6002" y="1216">x</text><text font-size="928" font-family="Times New Roman" font-style="italic" transform="scale(0.041666,0.041495)" xml:space="preserve" x="5144" y="1216">f</text><text font-size="928" font-family="Times New Roman" font-style="italic" transform="scale(0.041666,0.041495)" xml:space="preserve" x="2356" y="1216">a</text><text font-size="928" font-family="Times New Roman" font-style="italic" transform="scale(0.041666,0.041495)" xml:space="preserve" x="1039" y="1216">b</text><text font-size="928" font-family="Times New Roman" font-style="italic" transform="scale(0.041666,0.041495)" xml:space="preserve" x="50" y="1216">m</text><text font-size="640" font-family="Times New Roman" font-style="italic" transform="scale(0.041666,0.041495)" xml:space="preserve" x="4621" y="564">b</text><text font-size="640" font-family="Times New Roman" font-style="italic" transform="scale(0.041666,0.041495)" xml:space="preserve" x="4507" y="1724">a</text><text font-size="928" font-family="&apos;Symbol&apos;,&apos;OpenSymbol&apos;" transform="scale(0.041666,0.041495)" xml:space="preserve" x="10570" y="1216"></text><text font-size="928" font-family="&apos;Symbol&apos;,&apos;OpenSymbol&apos;" transform="scale(0.041666,0.041495)" xml:space="preserve" x="7956" y="1216"></text><text font-size="928" font-family="&apos;Symbol&apos;,&apos;OpenSymbol&apos;" transform="scale(0.041666,0.041495)" xml:space="preserve" x="3360" y="1216"></text><text font-size="928" font-family="&apos;Symbol&apos;,&apos;OpenSymbol&apos;" transform="scale(0.041666,0.041495)" xml:space="preserve" x="1676" y="1216"></text><text font-size="1344" font-family="&apos;Symbol&apos;,&apos;OpenSymbol&apos;" transform="scale(0.041666,0.041495)" xml:space="preserve" x="4102" y="1530"></text></g></svg>