<svg xmlns="http://www.w3.org/2000/svg" xmlns:xlink="http://www.w3.org/1999/xlink" width="414" height="46"><text font-size="928" font-family="Times New Roman" transform="scale(0.0417,0.041964)" xml:space="preserve" x="9611" y="800">)</text><text font-size="928" font-family="Times New Roman" transform="scale(0.0417,0.041964)" xml:space="preserve" x="8801" y="800">,</text><text font-size="928" font-family="Times New Roman" transform="scale(0.0417,0.041964)" xml:space="preserve" x="7619" y="800">,</text><text font-size="928" font-family="Times New Roman" transform="scale(0.0417,0.041964)" xml:space="preserve" x="7158" y="800">1</text><text font-size="928" font-family="Times New Roman" transform="scale(0.0417,0.041964)" xml:space="preserve" x="6930" y="800">,</text><text font-size="928" font-family="Times New Roman" transform="scale(0.0417,0.041964)" xml:space="preserve" x="6397" y="800">0</text><text font-size="928" font-family="Times New Roman" transform="scale(0.0417,0.041964)" xml:space="preserve" x="4906" y="800">(</text><text font-size="928" font-family="Times New Roman" font-style="italic" transform="scale(0.0417,0.041964)" xml:space="preserve" x="9131" y="800">n</text><text font-size="928" font-family="Times New Roman" font-style="italic" transform="scale(0.0417,0.041964)" xml:space="preserve" x="5212" y="800">i</text><text font-size="928" font-family="Times New Roman" font-style="italic" transform="scale(0.0417,0.041964)" xml:space="preserve" x="4292" y="800">x</text><text font-size="928" font-family="Times New Roman" font-style="italic" transform="scale(0.0417,0.041964)" xml:space="preserve" x="2986" y="800">i</text><text font-size="928" font-family="Times New Roman" font-style="italic" transform="scale(0.0417,0.041964)" xml:space="preserve" x="1693" y="800">a</text><text font-size="928" font-family="Times New Roman" font-style="italic" transform="scale(0.0417,0.041964)" xml:space="preserve" x="93" y="800">x</text><text font-size="640" font-family="Times New Roman" font-style="italic" transform="scale(0.0417,0.041964)" xml:space="preserve" x="485" y="1032">i</text><text font-size="928" font-family="&apos;MT Extra&apos;,&apos;DejaVu Sans&apos;" transform="scale(0.0417,0.041964)" xml:space="preserve" x="7862" y="800"></text><text font-size="928" font-family="&apos;Symbol&apos;,&apos;OpenSymbol&apos;" transform="scale(0.0417,0.041964)" xml:space="preserve" x="5696" y="800"></text><text font-size="928" font-family="&apos;Symbol&apos;,&apos;OpenSymbol&apos;" transform="scale(0.0417,0.041964)" xml:space="preserve" x="3727" y="800"></text><text font-size="928" font-family="&apos;Symbol&apos;,&apos;OpenSymbol&apos;" transform="scale(0.0417,0.041964)" xml:space="preserve" x="3378" y="800"></text><text font-size="928" font-family="&apos;Symbol&apos;,&apos;OpenSymbol&apos;" transform="scale(0.0417,0.041964)" xml:space="preserve" x="2332" y="800"></text><text font-size="928" font-family="&apos;Symbol&apos;,&apos;OpenSymbol&apos;" transform="scale(0.0417,0.041964)" xml:space="preserve" x="977" y="800"></text></svg>