<svg xmlns="http://www.w3.org/2000/svg" xmlns:xlink="http://www.w3.org/1999/xlink" width="538" height="53"><g transform="scale(1,1.01923)"><text font-size="928" font-family="Times New Roman" transform="scale(0.041692,0.041406)" xml:space="preserve" x="12502" y="992">1</text><text font-size="928" font-family="Times New Roman" transform="scale(0.041692,0.041406)" xml:space="preserve" x="11456" y="992">)</text><text font-size="928" font-family="Times New Roman" transform="scale(0.041692,0.041406)" xml:space="preserve" x="11063" y="992">1</text><text font-size="928" font-family="Times New Roman" transform="scale(0.041692,0.041406)" xml:space="preserve" x="9537" y="992">(</text><text font-size="928" font-family="Times New Roman" transform="scale(0.041692,0.041406)" xml:space="preserve" x="9143" y="992">3</text><text font-size="928" font-family="Times New Roman" transform="scale(0.041692,0.041406)" xml:space="preserve" x="7576" y="992">)</text><text font-size="928" font-family="Times New Roman" transform="scale(0.041692,0.041406)" xml:space="preserve" x="7183" y="992">1</text><text font-size="928" font-family="Times New Roman" transform="scale(0.041692,0.041406)" xml:space="preserve" x="5657" y="992">(</text><text font-size="928" font-family="Times New Roman" transform="scale(0.041692,0.041406)" xml:space="preserve" x="5263" y="992">3</text><text font-size="928" font-family="Times New Roman" transform="scale(0.041692,0.041406)" xml:space="preserve" x="3655" y="992">)</text><text font-size="928" font-family="Times New Roman" transform="scale(0.041692,0.041406)" xml:space="preserve" x="3262" y="992">1</text><text font-size="928" font-family="Times New Roman" transform="scale(0.041692,0.041406)" xml:space="preserve" x="1736" y="992">(</text><text font-size="640" font-family="Times New Roman" transform="scale(0.041692,0.041406)" xml:space="preserve" x="7925" y="575">2</text><text font-size="640" font-family="Times New Roman" transform="scale(0.041692,0.041406)" xml:space="preserve" x="3984" y="575">3</text><text font-size="640" font-family="Times New Roman" transform="scale(0.041692,0.041406)" xml:space="preserve" x="539" y="575">3</text><text font-size="928" font-family="&apos;Symbol&apos;,&apos;OpenSymbol&apos;" transform="scale(0.041692,0.041406)" xml:space="preserve" x="11921" y="992"></text><text font-size="928" font-family="&apos;Symbol&apos;,&apos;OpenSymbol&apos;" transform="scale(0.041692,0.041406)" xml:space="preserve" x="10497" y="992"></text><text font-size="928" font-family="&apos;Symbol&apos;,&apos;OpenSymbol&apos;" transform="scale(0.041692,0.041406)" xml:space="preserve" x="8489" y="992"></text><text font-size="928" font-family="&apos;Symbol&apos;,&apos;OpenSymbol&apos;" transform="scale(0.041692,0.041406)" xml:space="preserve" x="6617" y="992"></text><text font-size="928" font-family="&apos;Symbol&apos;,&apos;OpenSymbol&apos;" transform="scale(0.041692,0.041406)" xml:space="preserve" x="4576" y="992"></text><text font-size="928" font-family="&apos;Symbol&apos;,&apos;OpenSymbol&apos;" transform="scale(0.041692,0.041406)" xml:space="preserve" x="2696" y="992"></text><text font-size="928" font-family="&apos;Symbol&apos;,&apos;OpenSymbol&apos;" transform="scale(0.041692,0.041406)" xml:space="preserve" x="1083" y="992"></text><text font-size="928" font-family="Times New Roman" font-style="italic" transform="scale(0.041692,0.041406)" xml:space="preserve" x="9872" y="992">n</text><text font-size="928" font-family="Times New Roman" font-style="italic" transform="scale(0.041692,0.041406)" xml:space="preserve" x="5992" y="992">n</text><text font-size="928" font-family="Times New Roman" font-style="italic" transform="scale(0.041692,0.041406)" xml:space="preserve" x="2071" y="992">n</text><text font-size="928" font-family="Times New Roman" font-style="italic" transform="scale(0.041692,0.041406)" xml:space="preserve" x="50" y="992">n</text></g></svg>