<svg xmlns="http://www.w3.org/2000/svg" xmlns:xlink="http://www.w3.org/1999/xlink" width="290" height="102"><line x1="3006" y1="1240" x2="3491" y2="1240" stroke="rgb(0, 0, 0)" stroke-width="16" stroke-miterlimit="0" stroke-linecap="round" stroke-linejoin="round" shape-rendering="optimizeSpeed" transform="scale(0.041714,0.041801)" /><line x1="6369" y1="1240" x2="6854" y2="1240" stroke="rgb(0, 0, 0)" stroke-width="16" stroke-miterlimit="0" stroke-linecap="round" stroke-linejoin="round" shape-rendering="optimizeSpeed" transform="scale(0.041714,0.041801)" /><line x1="4628" y1="1469" x2="4759" y2="1400" stroke="rgb(0, 0, 0)" stroke-width="16" stroke-miterlimit="0" stroke-linecap="round" stroke-linejoin="round" shape-rendering="optimizeSpeed" transform="scale(0.041714,0.041801)" /><line x1="4759" y1="1408" x2="4952" y2="2210" stroke="rgb(0, 0, 0)" stroke-width="32" stroke-miterlimit="0" stroke-linecap="round" stroke-linejoin="round" shape-rendering="optimizeSpeed" transform="scale(0.041714,0.041801)" /><line x1="4960" y1="2210" x2="5176" y2="122" stroke="rgb(0, 0, 0)" stroke-width="16" stroke-miterlimit="0" stroke-linecap="round" stroke-linejoin="round" shape-rendering="optimizeSpeed" transform="scale(0.041714,0.041801)" /><line x1="5176" y1="122" x2="6886" y2="122" stroke="rgb(0, 0, 0)" stroke-width="16" stroke-miterlimit="0" stroke-linecap="round" stroke-linejoin="round" shape-rendering="optimizeSpeed" transform="scale(0.041714,0.041801)" /><text font-size="1216" font-family="&apos;Symbol&apos;,&apos;OpenSymbol&apos;" transform="scale(0.041714,0.041801)" xml:space="preserve" x="3628" y="1630"></text><text font-size="640" font-family="&apos;Symbol&apos;,&apos;OpenSymbol&apos;" transform="scale(0.041714,0.041801)" xml:space="preserve" x="3875" y="2384"></text><text font-size="640" font-family="&apos;Symbol&apos;,&apos;OpenSymbol&apos;" transform="scale(0.041714,0.041801)" xml:space="preserve" x="2410" y="2112"></text><text font-size="640" font-family="&apos;Symbol&apos;,&apos;OpenSymbol&apos;" transform="scale(0.041714,0.041801)" xml:space="preserve" x="1770" y="2112"></text><text font-size="928" font-family="&apos;Symbol&apos;,&apos;OpenSymbol&apos;" transform="scale(0.041714,0.041801)" xml:space="preserve" x="5672" y="1472"></text><text font-size="640" font-family="Times New Roman" font-style="italic" transform="scale(0.041714,0.041801)" xml:space="preserve" x="3900" y="577">n</text><text font-size="640" font-family="Times New Roman" font-style="italic" transform="scale(0.041714,0.041801)" xml:space="preserve" x="3655" y="2384">i</text><text font-size="640" font-family="Times New Roman" font-style="italic" transform="scale(0.041714,0.041801)" xml:space="preserve" x="1430" y="2112">n</text><text font-size="928" font-family="Times New Roman" font-style="italic" transform="scale(0.041714,0.041801)" xml:space="preserve" x="6387" y="2180">n</text><text font-size="928" font-family="Times New Roman" font-style="italic" transform="scale(0.041714,0.041801)" xml:space="preserve" x="6467" y="904">i</text><text font-size="928" font-family="Times New Roman" font-style="italic" transform="scale(0.041714,0.041801)" xml:space="preserve" x="3024" y="2180">n</text><text font-size="640" font-family="Times New Roman" transform="scale(0.041714,0.041801)" xml:space="preserve" x="4185" y="2384">1</text><text font-size="928" font-family="Times New Roman" transform="scale(0.041714,0.041801)" xml:space="preserve" x="5134" y="1472">1</text><text font-size="928" font-family="Times New Roman" transform="scale(0.041714,0.041801)" xml:space="preserve" x="3016" y="904">1</text><text font-size="928" font-family="Times New Roman" transform="scale(0.041714,0.041801)" xml:space="preserve" x="1529 1793 2056" y="1472">lim</text><text font-size="928" font-family="Times New Roman" transform="scale(0.041714,0.041801)" xml:space="preserve" x="661" y="1472">)</text><text font-size="928" font-family="Times New Roman" transform="scale(0.041714,0.041801)" xml:space="preserve" x="268" y="1472">1</text><text font-size="928" font-family="Times New Roman" transform="scale(0.041714,0.041801)" xml:space="preserve" x="35" y="1472">(</text></svg>