<svg xmlns="http://www.w3.org/2000/svg" xmlns:xlink="http://www.w3.org/1999/xlink" width="257" height="89"><g transform="scale(1.00391,1.01136)"><line x1="780" y1="1112" x2="1235" y2="1112" stroke="rgb(0, 0, 0)" stroke-width="16" stroke-miterlimit="0" stroke-linecap="round" stroke-linejoin="round" shape-rendering="optimizeSpeed" transform="scale(0.041612,0.041511)" /><line x1="2830" y1="1112" x2="3315" y2="1112" stroke="rgb(0, 0, 0)" stroke-width="16" stroke-miterlimit="0" stroke-linecap="round" stroke-linejoin="round" shape-rendering="optimizeSpeed" transform="scale(0.041612,0.041511)" /><line x1="5306" y1="1112" x2="5791" y2="1112" stroke="rgb(0, 0, 0)" stroke-width="16" stroke-miterlimit="0" stroke-linecap="round" stroke-linejoin="round" shape-rendering="optimizeSpeed" transform="scale(0.041612,0.041511)" /><text font-size="928" font-family="Times New Roman" transform="scale(0.041612,0.041511)" xml:space="preserve" x="5836" y="1344">)</text><text font-size="928" font-family="Times New Roman" transform="scale(0.041612,0.041511)" xml:space="preserve" x="5316" y="776">1</text><text font-size="928" font-family="Times New Roman" transform="scale(0.041612,0.041511)" xml:space="preserve" x="3999" y="1344">2</text><text font-size="928" font-family="Times New Roman" transform="scale(0.041612,0.041511)" xml:space="preserve" x="3360 3672" y="1344">)(</text><text font-size="928" font-family="Times New Roman" transform="scale(0.041612,0.041511)" xml:space="preserve" x="2840" y="776">1</text><text font-size="928" font-family="Times New Roman" transform="scale(0.041612,0.041511)" xml:space="preserve" x="1595" y="1344">1</text><text font-size="928" font-family="Times New Roman" transform="scale(0.041612,0.041511)" xml:space="preserve" x="1362" y="1344">(</text><text font-size="928" font-family="Times New Roman" transform="scale(0.041612,0.041511)" xml:space="preserve" x="783" y="2052">6</text><text font-size="928" font-family="Times New Roman" transform="scale(0.041612,0.041511)" xml:space="preserve" x="775" y="776">1</text><text font-size="928" font-family="Times New Roman" font-style="italic" transform="scale(0.041612,0.041511)" xml:space="preserve" x="5324" y="2052">n</text><text font-size="928" font-family="Times New Roman" font-style="italic" transform="scale(0.041612,0.041511)" xml:space="preserve" x="2848" y="2052">n</text><text font-size="928" font-family="&apos;Symbol&apos;,&apos;OpenSymbol&apos;" transform="scale(0.041612,0.041511)" xml:space="preserve" x="4609" y="1344"></text><text font-size="928" font-family="&apos;Symbol&apos;,&apos;OpenSymbol&apos;" transform="scale(0.041612,0.041511)" xml:space="preserve" x="2133" y="1344"></text><text font-size="928" font-family="&apos;Symbol&apos;,&apos;OpenSymbol&apos;" transform="scale(0.041612,0.041511)" xml:space="preserve" x="50" y="1344"></text></g></svg>