<svg xmlns="http://www.w3.org/2000/svg" xmlns:xlink="http://www.w3.org/1999/xlink" width="289" height="53"><g transform="scale(1.00347,1.01923)"><text font-size="928" font-family="Times New Roman" transform="scale(0.041618,0.041406)" xml:space="preserve" x="6665" y="800">,</text><text font-size="928" font-family="Times New Roman" transform="scale(0.041618,0.041406)" xml:space="preserve" x="6224" y="800">]</text><text font-size="928" font-family="Times New Roman" transform="scale(0.041618,0.041406)" xml:space="preserve" x="5219" y="800">,</text><text font-size="928" font-family="Times New Roman" transform="scale(0.041618,0.041406)" xml:space="preserve" x="3589" y="800">[</text><text font-size="704" font-family="Times New Roman" transform="scale(0.041618,0.041406)" xml:space="preserve" x="4758" y="1032">1</text><text font-size="704" font-family="Times New Roman" font-style="italic" transform="scale(0.041618,0.041406)" xml:space="preserve" x="5908" y="1032">i</text><text font-size="704" font-family="Times New Roman" font-style="italic" transform="scale(0.041618,0.041406)" xml:space="preserve" x="4187" y="1032">i</text><text font-size="704" font-family="Times New Roman" font-style="italic" transform="scale(0.041618,0.041406)" xml:space="preserve" x="2481" y="1032">i</text><text font-size="928" font-family="Times New Roman" font-style="italic" transform="scale(0.041618,0.041406)" xml:space="preserve" x="5616" y="800">t</text><text font-size="928" font-family="Times New Roman" font-style="italic" transform="scale(0.041618,0.041406)" xml:space="preserve" x="3895" y="800">t</text><text font-size="704" font-family="&apos;Symbol&apos;,&apos;OpenSymbol&apos;" transform="scale(0.041618,0.041406)" xml:space="preserve" x="4423" y="1032"></text><text font-size="928" font-family="&apos;Symbol&apos;,&apos;OpenSymbol&apos;" transform="scale(0.041618,0.041406)" xml:space="preserve" x="2888" y="800"></text><text font-size="928" font-family="&apos;Symbol&apos;,&apos;OpenSymbol&apos;" font-style="italic" transform="scale(0.041618,0.041406)" xml:space="preserve" x="1960" y="800"></text><text font-size="928" font-family="&apos;楷体_GB2312&apos;,&apos;DejaVu Sans&apos;" transform="scale(0.041618,0.041406)" xml:space="preserve" x="50 963" y="800">任取</text></g></svg>