<svg xmlns="http://www.w3.org/2000/svg" xmlns:xlink="http://www.w3.org/1999/xlink" width="305" height="109"><g transform="scale(1.00329,1.00926)"><line x1="6430" y1="1304" x2="6929" y2="1304" stroke="rgb(0, 0, 0)" stroke-width="16" stroke-miterlimit="0" stroke-linecap="round" stroke-linejoin="round" shape-rendering="optimizeSpeed" transform="scale(0.041621,0.041539)" /><text font-size="928" font-family="Times New Roman" transform="scale(0.041621,0.041539)" xml:space="preserve" x="6974" y="1536">)</text><text font-size="928" font-family="Times New Roman" transform="scale(0.041621,0.041539)" xml:space="preserve" x="5286" y="1536">(</text><text font-size="928" font-family="Times New Roman" transform="scale(0.041621,0.041539)" xml:space="preserve" x="5590" y="1536">π</text><text font-size="928" font-family="Times New Roman" transform="scale(0.041621,0.041539)" xml:space="preserve" x="4164 4524 4789" y="1536">sin</text><text font-size="928" font-family="Times New Roman" transform="scale(0.041621,0.041539)" xml:space="preserve" x="1548 1812 2077" y="1536">lim</text><text font-size="640" font-family="Times New Roman" transform="scale(0.041621,0.041539)" xml:space="preserve" x="3783" y="561">1</text><text font-size="640" font-family="Times New Roman" transform="scale(0.041621,0.041539)" xml:space="preserve" x="3793" y="2527">0</text><text font-size="1408" font-family="&apos;Symbol&apos;,&apos;OpenSymbol&apos;" transform="scale(0.041621,0.041539)" xml:space="preserve" x="3071" y="1755"></text><text font-size="640" font-family="&apos;Symbol&apos;,&apos;OpenSymbol&apos;" transform="scale(0.041621,0.041539)" xml:space="preserve" x="3461" y="561"></text><text font-size="640" font-family="&apos;Symbol&apos;,&apos;OpenSymbol&apos;" transform="scale(0.041621,0.041539)" xml:space="preserve" x="3411" y="2527"></text><text font-size="640" font-family="&apos;Symbol&apos;,&apos;OpenSymbol&apos;" transform="scale(0.041621,0.041539)" xml:space="preserve" x="2441" y="2176"></text><text font-size="640" font-family="&apos;Symbol&apos;,&apos;OpenSymbol&apos;" transform="scale(0.041621,0.041539)" xml:space="preserve" x="1789" y="2176"></text><text font-size="928" font-family="&apos;Symbol&apos;,&apos;OpenSymbol&apos;" transform="scale(0.041621,0.041539)" xml:space="preserve" x="6055" y="1536"></text><text font-size="928" font-family="&apos;Symbol&apos;,&apos;OpenSymbol&apos;" transform="scale(0.041621,0.041539)" xml:space="preserve" x="705" y="1536"></text><text font-size="640" font-family="Times New Roman" font-style="italic" transform="scale(0.041621,0.041539)" xml:space="preserve" x="3099" y="561">n</text><text font-size="640" font-family="Times New Roman" font-style="italic" transform="scale(0.041621,0.041539)" xml:space="preserve" x="3039" y="2527">k</text><text font-size="640" font-family="Times New Roman" font-style="italic" transform="scale(0.041621,0.041539)" xml:space="preserve" x="1437" y="2176">n</text><text font-size="928" font-family="Times New Roman" font-style="italic" transform="scale(0.041621,0.041539)" xml:space="preserve" x="6455" y="2244">n</text><text font-size="928" font-family="Times New Roman" font-style="italic" transform="scale(0.041621,0.041539)" xml:space="preserve" x="6448" y="968">k</text><text font-size="928" font-family="Times New Roman" font-style="italic" transform="scale(0.041621,0.041539)" xml:space="preserve" x="78" y="1536">I</text></g></svg>