<svg xmlns="http://www.w3.org/2000/svg" xmlns:xlink="http://www.w3.org/1999/xlink" width="334" height="102"><text font-size="928" font-family="Times New Roman" transform="scale(0.041708,0.041801)" xml:space="preserve" x="7537" y="1472">0</text><text font-size="928" font-family="Times New Roman" transform="scale(0.041708,0.041801)" xml:space="preserve" x="4953" y="1472">)</text><text font-size="928" font-family="Times New Roman" transform="scale(0.041708,0.041801)" xml:space="preserve" x="3868" y="1472">(</text><text font-size="928" font-family="Times New Roman" transform="scale(0.041708,0.041801)" xml:space="preserve" x="824 1088 1351" y="1472">lim</text><text font-size="640" font-family="Times New Roman" transform="scale(0.041708,0.041801)" xml:space="preserve" x="2794" y="2384">1</text><text font-size="640" font-family="Times New Roman" transform="scale(0.041708,0.041801)" xml:space="preserve" x="1810" y="2112">0</text><text font-size="928" font-family="&apos;Symbol&apos;,&apos;OpenSymbol&apos;" transform="scale(0.041708,0.041801)" xml:space="preserve" x="6836" y="1472"></text><text font-size="928" font-family="&apos;Symbol&apos;,&apos;OpenSymbol&apos;" transform="scale(0.041708,0.041801)" xml:space="preserve" x="5370" y="1472"></text><text font-size="928" font-family="&apos;Symbol&apos;,&apos;OpenSymbol&apos;" transform="scale(0.041708,0.041801)" xml:space="preserve" x="50" y="1472"></text><text font-size="1216" font-family="&apos;Symbol&apos;,&apos;OpenSymbol&apos;" transform="scale(0.041708,0.041801)" xml:space="preserve" x="2237" y="1630"></text><text font-size="640" font-family="&apos;Symbol&apos;,&apos;OpenSymbol&apos;" transform="scale(0.041708,0.041801)" xml:space="preserve" x="2484" y="2384"></text><text font-size="640" font-family="&apos;Symbol&apos;,&apos;OpenSymbol&apos;" transform="scale(0.041708,0.041801)" xml:space="preserve" x="1170" y="2112"></text><text font-size="640" font-family="Times New Roman" font-style="italic" transform="scale(0.041708,0.041801)" xml:space="preserve" x="6359" y="1704">i</text><text font-size="640" font-family="Times New Roman" font-style="italic" transform="scale(0.041708,0.041801)" xml:space="preserve" x="4654" y="1704">i</text><text font-size="640" font-family="Times New Roman" font-style="italic" transform="scale(0.041708,0.041801)" xml:space="preserve" x="2509" y="577">n</text><text font-size="640" font-family="Times New Roman" font-style="italic" transform="scale(0.041708,0.041801)" xml:space="preserve" x="2264" y="2384">i</text><text font-size="928" font-family="Times New Roman" font-style="italic" transform="scale(0.041708,0.041801)" xml:space="preserve" x="5935" y="1472">x</text><text font-size="928" font-family="Times New Roman" font-style="italic" transform="scale(0.041708,0.041801)" xml:space="preserve" x="3388" y="1472">f</text><text font-size="928" font-family="&apos;Symbol&apos;,&apos;OpenSymbol&apos;" font-style="italic" transform="scale(0.041708,0.041801)" xml:space="preserve" x="4130" y="1472"></text><text font-size="640" font-family="&apos;Symbol&apos;,&apos;OpenSymbol&apos;" font-style="italic" transform="scale(0.041708,0.041801)" xml:space="preserve" x="760" y="2112"></text></svg>