<svg xmlns="http://www.w3.org/2000/svg" xmlns:xlink="http://www.w3.org/1999/xlink" width="401" height="106"><g transform="scale(1.0025,1)"><line x1="780" y1="1272" x2="2543" y2="1272" stroke="rgb(0, 0, 0)" stroke-width="16" stroke-miterlimit="0" stroke-linecap="round" stroke-linejoin="round" shape-rendering="optimizeSpeed" transform="scale(0.041632,0.041796)" /><line x1="7800" y1="1272" x2="9563" y2="1272" stroke="rgb(0, 0, 0)" stroke-width="16" stroke-miterlimit="0" stroke-linecap="round" stroke-linejoin="round" shape-rendering="optimizeSpeed" transform="scale(0.041632,0.041796)" /><text font-size="928" font-family="Times New Roman" font-style="italic" transform="scale(0.041632,0.041796)" xml:space="preserve" x="8457" y="2212">n</text><text font-size="928" font-family="Times New Roman" font-style="italic" transform="scale(0.041632,0.041796)" xml:space="preserve" x="9082" y="936">a</text><text font-size="928" font-family="Times New Roman" font-style="italic" transform="scale(0.041632,0.041796)" xml:space="preserve" x="7789" y="936">b</text><text font-size="928" font-family="Times New Roman" font-style="italic" transform="scale(0.041632,0.041796)" xml:space="preserve" x="5483" y="1504">f</text><text font-size="928" font-family="Times New Roman" font-style="italic" transform="scale(0.041632,0.041796)" xml:space="preserve" x="2062" y="2212">a</text><text font-size="928" font-family="Times New Roman" font-style="italic" transform="scale(0.041632,0.041796)" xml:space="preserve" x="769" y="2212">b</text><text font-size="640" font-family="Times New Roman" font-style="italic" transform="scale(0.041632,0.041796)" xml:space="preserve" x="4561" y="556">n</text><text font-size="640" font-family="Times New Roman" font-style="italic" transform="scale(0.041632,0.041796)" xml:space="preserve" x="4316" y="2469">i</text><text font-size="640" font-family="Times New Roman" font-style="italic" transform="scale(0.041632,0.041796)" xml:space="preserve" x="6717" y="1736">i</text><text font-size="640" font-family="Times New Roman" font-style="italic" transform="scale(0.041632,0.041796)" xml:space="preserve" x="2689" y="2144">n</text><text font-size="928" font-family="&apos;Symbol&apos;,&apos;OpenSymbol&apos;" transform="scale(0.041632,0.041796)" xml:space="preserve" x="8414" y="936"></text><text font-size="928" font-family="&apos;Symbol&apos;,&apos;OpenSymbol&apos;" transform="scale(0.041632,0.041796)" xml:space="preserve" x="7437" y="1504"></text><text font-size="928" font-family="&apos;Symbol&apos;,&apos;OpenSymbol&apos;" transform="scale(0.041632,0.041796)" xml:space="preserve" x="1394" y="2212"></text><text font-size="928" font-family="&apos;Symbol&apos;,&apos;OpenSymbol&apos;" transform="scale(0.041632,0.041796)" xml:space="preserve" x="50" y="1504"></text><text font-size="1344" font-family="&apos;Symbol&apos;,&apos;OpenSymbol&apos;" transform="scale(0.041632,0.041796)" xml:space="preserve" x="4244" y="1703"></text><text font-size="640" font-family="&apos;Symbol&apos;,&apos;OpenSymbol&apos;" transform="scale(0.041632,0.041796)" xml:space="preserve" x="4536" y="2469"></text><text font-size="640" font-family="&apos;Symbol&apos;,&apos;OpenSymbol&apos;" transform="scale(0.041632,0.041796)" xml:space="preserve" x="3669" y="2144"></text><text font-size="640" font-family="&apos;Symbol&apos;,&apos;OpenSymbol&apos;" transform="scale(0.041632,0.041796)" xml:space="preserve" x="3029" y="2144"></text><text font-size="928" font-family="Times New Roman" transform="scale(0.041632,0.041796)" xml:space="preserve" x="7016" y="1504">)</text><text font-size="928" font-family="Times New Roman" transform="scale(0.041632,0.041796)" xml:space="preserve" x="5963" y="1504">(</text><text font-size="928" font-family="Times New Roman" transform="scale(0.041632,0.041796)" xml:space="preserve" x="2788 3052 3316" y="1504">lim</text><text font-size="928" font-family="Times New Roman" transform="scale(0.041632,0.041796)" xml:space="preserve" x="1429" y="936">1</text><text font-size="640" font-family="Times New Roman" transform="scale(0.041632,0.041796)" xml:space="preserve" x="4846" y="2469">1</text><text font-size="928" font-family="&apos;Symbol&apos;,&apos;OpenSymbol&apos;" font-style="italic" transform="scale(0.041632,0.041796)" xml:space="preserve" x="6225" y="1504"></text></g></svg>