<svg xmlns="http://www.w3.org/2000/svg" xmlns:xlink="http://www.w3.org/1999/xlink" width="293" height="53"><g transform="scale(1.00342,1.01923)"><text font-size="928" font-family="Times New Roman" transform="scale(0.041619,0.041406)" xml:space="preserve" x="6689" y="800">)</text><text font-size="928" font-family="Times New Roman" transform="scale(0.041619,0.041406)" xml:space="preserve" x="5723" y="800">,</text><text font-size="928" font-family="Times New Roman" transform="scale(0.041619,0.041406)" xml:space="preserve" x="4541" y="800">,</text><text font-size="928" font-family="Times New Roman" transform="scale(0.041619,0.041406)" xml:space="preserve" x="4008" y="800">2</text><text font-size="928" font-family="Times New Roman" transform="scale(0.041619,0.041406)" xml:space="preserve" x="3582" y="800">,</text><text font-size="928" font-family="Times New Roman" transform="scale(0.041619,0.041406)" xml:space="preserve" x="3121" y="800">1</text><text font-size="928" font-family="Times New Roman" transform="scale(0.041619,0.041406)" xml:space="preserve" x="1717" y="800">(</text><text font-size="928" font-family="Times New Roman" font-style="italic" transform="scale(0.041619,0.041406)" xml:space="preserve" x="6209" y="800">n</text><text font-size="928" font-family="Times New Roman" font-style="italic" transform="scale(0.041619,0.041406)" xml:space="preserve" x="2023" y="800">i</text><text font-size="928" font-family="Times New Roman" font-style="italic" transform="scale(0.041619,0.041406)" xml:space="preserve" x="757" y="800">s</text><text font-size="704" font-family="Times New Roman" font-style="italic" transform="scale(0.041619,0.041406)" xml:space="preserve" x="1223" y="1032">i</text><text font-size="928" font-family="&apos;MT Extra&apos;,&apos;DejaVu Sans&apos;" transform="scale(0.041619,0.041406)" xml:space="preserve" x="4784" y="800"></text><text font-size="928" font-family="&apos;Symbol&apos;,&apos;OpenSymbol&apos;" transform="scale(0.041619,0.041406)" xml:space="preserve" x="2507" y="800"></text><text font-size="928" font-family="&apos;Symbol&apos;,&apos;OpenSymbol&apos;" transform="scale(0.041619,0.041406)" xml:space="preserve" x="50" y="800"></text></g></svg>