<svg xmlns="http://www.w3.org/2000/svg" xmlns:xlink="http://www.w3.org/1999/xlink" width="220" height="89"><g transform="scale(1.00457,1.01136)"><line x1="64" y1="1112" x2="534" y2="1112" stroke="rgb(0, 0, 0)" stroke-width="16" stroke-miterlimit="0" stroke-linecap="round" stroke-linejoin="round" shape-rendering="optimizeSpeed" transform="scale(0.041666,0.041511)" /><text font-size="928" font-family="Times New Roman" font-style="italic" transform="scale(0.041666,0.041511)" xml:space="preserve" x="4807" y="1344">x</text><text font-size="928" font-family="Times New Roman" font-style="italic" transform="scale(0.041666,0.041511)" xml:space="preserve" x="3244" y="1344">y</text><text font-size="928" font-family="Times New Roman" font-style="italic" transform="scale(0.041666,0.041511)" xml:space="preserve" x="1024" y="1344">y</text><text font-size="640" font-family="Times New Roman" font-style="italic" transform="scale(0.041666,0.041511)" xml:space="preserve" x="3651" y="1576">i</text><text font-size="640" font-family="Times New Roman" font-style="italic" transform="scale(0.041666,0.041511)" xml:space="preserve" x="1431" y="1576">i</text><text font-size="928" font-family="&apos;Symbol&apos;,&apos;OpenSymbol&apos;" transform="scale(0.041666,0.041511)" xml:space="preserve" x="4242" y="1344"></text><text font-size="928" font-family="&apos;Symbol&apos;,&apos;OpenSymbol&apos;" transform="scale(0.041666,0.041511)" xml:space="preserve" x="2475" y="1344"></text><text font-size="640" font-family="&apos;Symbol&apos;,&apos;OpenSymbol&apos;" transform="scale(0.041666,0.041511)" xml:space="preserve" x="1651" y="1576"></text><text font-size="928" font-family="Times New Roman" transform="scale(0.041666,0.041511)" xml:space="preserve" x="3950" y="1344">]</text><text font-size="928" font-family="Times New Roman" transform="scale(0.041666,0.041511)" xml:space="preserve" x="603" y="1344">[</text><text font-size="928" font-family="Times New Roman" transform="scale(0.041666,0.041511)" xml:space="preserve" x="82" y="2052">2</text><text font-size="928" font-family="Times New Roman" transform="scale(0.041666,0.041511)" xml:space="preserve" x="67" y="776">1</text><text font-size="640" font-family="Times New Roman" transform="scale(0.041666,0.041511)" xml:space="preserve" x="1961" y="1576">1</text></g></svg>