<svg xmlns="http://www.w3.org/2000/svg" xmlns:xlink="http://www.w3.org/1999/xlink" width="228" height="89"><g transform="scale(1.00441,1.01136)"><line x1="64" y1="1112" x2="519" y2="1112" stroke="rgb(0, 0, 0)" stroke-width="16" stroke-miterlimit="0" stroke-linecap="round" stroke-linejoin="round" shape-rendering="optimizeSpeed" transform="scale(0.041666,0.041511)" /><line x1="2114" y1="1112" x2="2599" y2="1112" stroke="rgb(0, 0, 0)" stroke-width="16" stroke-miterlimit="0" stroke-linecap="round" stroke-linejoin="round" shape-rendering="optimizeSpeed" transform="scale(0.041666,0.041511)" /><line x1="4590" y1="1112" x2="5075" y2="1112" stroke="rgb(0, 0, 0)" stroke-width="16" stroke-miterlimit="0" stroke-linecap="round" stroke-linejoin="round" shape-rendering="optimizeSpeed" transform="scale(0.041666,0.041511)" /><text font-size="928" font-family="Times New Roman" transform="scale(0.041666,0.041511)" xml:space="preserve" x="5120" y="1344">)</text><text font-size="928" font-family="Times New Roman" transform="scale(0.041666,0.041511)" xml:space="preserve" x="4600" y="776">1</text><text font-size="928" font-family="Times New Roman" transform="scale(0.041666,0.041511)" xml:space="preserve" x="3283" y="1344">2</text><text font-size="928" font-family="Times New Roman" transform="scale(0.041666,0.041511)" xml:space="preserve" x="2644 2956" y="1344">)(</text><text font-size="928" font-family="Times New Roman" transform="scale(0.041666,0.041511)" xml:space="preserve" x="2124" y="776">1</text><text font-size="928" font-family="Times New Roman" transform="scale(0.041666,0.041511)" xml:space="preserve" x="879" y="1344">1</text><text font-size="928" font-family="Times New Roman" transform="scale(0.041666,0.041511)" xml:space="preserve" x="646" y="1344">(</text><text font-size="928" font-family="Times New Roman" transform="scale(0.041666,0.041511)" xml:space="preserve" x="67" y="2052">6</text><text font-size="928" font-family="Times New Roman" transform="scale(0.041666,0.041511)" xml:space="preserve" x="59" y="776">1</text><text font-size="928" font-family="Times New Roman" font-style="italic" transform="scale(0.041666,0.041511)" xml:space="preserve" x="4608" y="2052">n</text><text font-size="928" font-family="Times New Roman" font-style="italic" transform="scale(0.041666,0.041511)" xml:space="preserve" x="2132" y="2052">n</text><text font-size="928" font-family="&apos;Symbol&apos;,&apos;OpenSymbol&apos;" transform="scale(0.041666,0.041511)" xml:space="preserve" x="3893" y="1344"></text><text font-size="928" font-family="&apos;Symbol&apos;,&apos;OpenSymbol&apos;" transform="scale(0.041666,0.041511)" xml:space="preserve" x="1417" y="1344"></text></g></svg>