<svg xmlns="http://www.w3.org/2000/svg" xmlns:xlink="http://www.w3.org/1999/xlink" width="230" height="110"><text font-size="704" font-family="Times New Roman" font-style="italic" transform="scale(0.041726,0.041792)" xml:space="preserve" x="5275" y="1800">i</text><text font-size="704" font-family="Times New Roman" font-style="italic" transform="scale(0.041726,0.041792)" xml:space="preserve" x="1640" y="630">n</text><text font-size="704" font-family="Times New Roman" font-style="italic" transform="scale(0.041726,0.041792)" xml:space="preserve" x="1376" y="2570">i</text><text font-size="704" font-family="Times New Roman" font-style="italic" transform="scale(0.041726,0.041792)" xml:space="preserve" x="3586" y="1800">i</text><text font-size="928" font-family="Times New Roman" font-style="italic" transform="scale(0.041726,0.041792)" xml:space="preserve" x="4983" y="1568">t</text><text font-size="928" font-family="Times New Roman" font-style="italic" transform="scale(0.041726,0.041792)" xml:space="preserve" x="2367" y="1568">v</text><text font-size="928" font-family="Times New Roman" font-style="italic" transform="scale(0.041726,0.041792)" xml:space="preserve" x="64" y="1568">s</text><text font-size="928" font-family="&apos;Symbol&apos;,&apos;OpenSymbol&apos;" transform="scale(0.041726,0.041792)" xml:space="preserve" x="4319" y="1568"></text><text font-size="928" font-family="&apos;Symbol&apos;,&apos;OpenSymbol&apos;" transform="scale(0.041726,0.041792)" xml:space="preserve" x="650" y="1568"></text><text font-size="1280" font-family="&apos;Symbol&apos;,&apos;OpenSymbol&apos;" transform="scale(0.041726,0.041792)" xml:space="preserve" x="1360" y="1746"></text><text font-size="704" font-family="&apos;Symbol&apos;,&apos;OpenSymbol&apos;" transform="scale(0.041726,0.041792)" xml:space="preserve" x="1612" y="2570"></text><text font-size="704" font-family="Times New Roman" transform="scale(0.041726,0.041792)" xml:space="preserve" x="1947" y="2570">1</text><text font-size="928" font-family="Times New Roman" transform="scale(0.041726,0.041792)" xml:space="preserve" x="3902" y="1568">)</text><text font-size="928" font-family="Times New Roman" transform="scale(0.041726,0.041792)" xml:space="preserve" x="2803" y="1568">(</text><text font-size="928" font-family="&apos;Symbol&apos;,&apos;OpenSymbol&apos;" font-style="italic" transform="scale(0.041726,0.041792)" xml:space="preserve" x="3065" y="1568"></text></svg>