<svg xmlns="http://www.w3.org/2000/svg" xmlns:xlink="http://www.w3.org/1999/xlink" width="284" height="110"><g transform="scale(1.00353,1)"><text font-size="1280" font-family="&apos;Symbol&apos;,&apos;OpenSymbol&apos;" transform="scale(0.041666,0.041792)" xml:space="preserve" x="2356" y="1746"></text><text font-size="704" font-family="&apos;Symbol&apos;,&apos;OpenSymbol&apos;" transform="scale(0.041666,0.041792)" xml:space="preserve" x="2608" y="2570"></text><text font-size="704" font-family="&apos;Symbol&apos;,&apos;OpenSymbol&apos;" transform="scale(0.041666,0.041792)" xml:space="preserve" x="1203" y="2272"></text><text font-size="928" font-family="&apos;Symbol&apos;,&apos;OpenSymbol&apos;" transform="scale(0.041666,0.041792)" xml:space="preserve" x="5465" y="1568"></text><text font-size="928" font-family="&apos;Symbol&apos;,&apos;OpenSymbol&apos;" transform="scale(0.041666,0.041792)" xml:space="preserve" x="50" y="1568"></text><text font-size="704" font-family="Times New Roman" font-style="italic" transform="scale(0.041666,0.041792)" xml:space="preserve" x="2636" y="630">n</text><text font-size="704" font-family="Times New Roman" font-style="italic" transform="scale(0.041666,0.041792)" xml:space="preserve" x="2372" y="2570">i</text><text font-size="704" font-family="Times New Roman" font-style="italic" transform="scale(0.041666,0.041792)" xml:space="preserve" x="6451" y="1800">i</text><text font-size="704" font-family="Times New Roman" font-style="italic" transform="scale(0.041666,0.041792)" xml:space="preserve" x="4814" y="1800">i</text><text font-size="928" font-family="Times New Roman" font-style="italic" transform="scale(0.041666,0.041792)" xml:space="preserve" x="6030" y="1568">x</text><text font-size="928" font-family="Times New Roman" font-style="italic" transform="scale(0.041666,0.041792)" xml:space="preserve" x="3551" y="1568">f</text><text font-size="704" font-family="Times New Roman" transform="scale(0.041666,0.041792)" xml:space="preserve" x="2943" y="2570">1</text><text font-size="704" font-family="Times New Roman" transform="scale(0.041666,0.041792)" xml:space="preserve" x="1901" y="2272">0</text><text font-size="928" font-family="Times New Roman" transform="scale(0.041666,0.041792)" xml:space="preserve" x="5130" y="1568">)</text><text font-size="928" font-family="Times New Roman" transform="scale(0.041666,0.041792)" xml:space="preserve" x="4031" y="1568">(</text><text font-size="928" font-family="Times New Roman" transform="scale(0.041666,0.041792)" xml:space="preserve" x="884 1148 1412" y="1568">lim</text><text font-size="928" font-family="&apos;Symbol&apos;,&apos;OpenSymbol&apos;" font-style="italic" transform="scale(0.041666,0.041792)" xml:space="preserve" x="4293" y="1568"></text><text font-size="704" font-family="&apos;Symbol&apos;,&apos;OpenSymbol&apos;" font-style="italic" transform="scale(0.041666,0.041792)" xml:space="preserve" x="758" y="2272"></text></g></svg>