<svg xmlns="http://www.w3.org/2000/svg" xmlns:xlink="http://www.w3.org/1999/xlink" width="297" height="110"><g transform="scale(1.00338,1)"><text font-size="704" font-family="Times New Roman" font-style="italic" transform="scale(0.041619,0.041792)" xml:space="preserve" x="6871" y="1800">i</text><text font-size="704" font-family="Times New Roman" font-style="italic" transform="scale(0.041619,0.041792)" xml:space="preserve" x="3236" y="630">n</text><text font-size="704" font-family="Times New Roman" font-style="italic" transform="scale(0.041619,0.041792)" xml:space="preserve" x="2972" y="2570">i</text><text font-size="704" font-family="Times New Roman" font-style="italic" transform="scale(0.041619,0.041792)" xml:space="preserve" x="5182" y="1800">i</text><text font-size="928" font-family="Times New Roman" font-style="italic" transform="scale(0.041619,0.041792)" xml:space="preserve" x="6579" y="1568">t</text><text font-size="928" font-family="Times New Roman" font-style="italic" transform="scale(0.041619,0.041792)" xml:space="preserve" x="3963" y="1568">v</text><text font-size="928" font-family="Times New Roman" font-style="italic" transform="scale(0.041619,0.041792)" xml:space="preserve" x="64" y="1568">s</text><text font-size="928" font-family="&apos;Symbol&apos;,&apos;OpenSymbol&apos;" transform="scale(0.041619,0.041792)" xml:space="preserve" x="5915" y="1568"></text><text font-size="928" font-family="&apos;Symbol&apos;,&apos;OpenSymbol&apos;" transform="scale(0.041619,0.041792)" xml:space="preserve" x="650" y="1568"></text><text font-size="1280" font-family="&apos;Symbol&apos;,&apos;OpenSymbol&apos;" transform="scale(0.041619,0.041792)" xml:space="preserve" x="2956" y="1746"></text><text font-size="704" font-family="&apos;Symbol&apos;,&apos;OpenSymbol&apos;" transform="scale(0.041619,0.041792)" xml:space="preserve" x="3208" y="2570"></text><text font-size="704" font-family="&apos;Symbol&apos;,&apos;OpenSymbol&apos;" transform="scale(0.041619,0.041792)" xml:space="preserve" x="1803" y="2272"></text><text font-size="704" font-family="Times New Roman" transform="scale(0.041619,0.041792)" xml:space="preserve" x="3543" y="2570">1</text><text font-size="704" font-family="Times New Roman" transform="scale(0.041619,0.041792)" xml:space="preserve" x="2501" y="2272">0</text><text font-size="928" font-family="Times New Roman" transform="scale(0.041619,0.041792)" xml:space="preserve" x="5498" y="1568">)</text><text font-size="928" font-family="Times New Roman" transform="scale(0.041619,0.041792)" xml:space="preserve" x="4399" y="1568">(</text><text font-size="928" font-family="Times New Roman" transform="scale(0.041619,0.041792)" xml:space="preserve" x="1484 1748 2013" y="1568">lim</text><text font-size="928" font-family="&apos;Symbol&apos;,&apos;OpenSymbol&apos;" font-style="italic" transform="scale(0.041619,0.041792)" xml:space="preserve" x="4661" y="1568"></text><text font-size="704" font-family="&apos;Symbol&apos;,&apos;OpenSymbol&apos;" font-style="italic" transform="scale(0.041619,0.041792)" xml:space="preserve" x="1358" y="2272"></text></g></svg>