<svg xmlns="http://www.w3.org/2000/svg" xmlns:xlink="http://www.w3.org/1999/xlink" width="354" height="54"><text font-size="640" font-family="Times New Roman" font-style="italic" transform="scale(0.041705,0.04192)" xml:space="preserve" x="8260" y="1224">i</text><text font-size="640" font-family="Times New Roman" font-style="italic" transform="scale(0.041705,0.04192)" xml:space="preserve" x="6825" y="1224">i</text><text font-size="640" font-family="Times New Roman" font-style="italic" transform="scale(0.041705,0.04192)" xml:space="preserve" x="5198" y="1224">i</text><text font-size="640" font-family="Times New Roman" font-style="italic" transform="scale(0.041705,0.04192)" xml:space="preserve" x="3607" y="1224">i</text><text font-size="928" font-family="Times New Roman" font-style="italic" transform="scale(0.041705,0.04192)" xml:space="preserve" x="7868" y="992">x</text><text font-size="928" font-family="Times New Roman" font-style="italic" transform="scale(0.041705,0.04192)" xml:space="preserve" x="4806" y="992">x</text><text font-size="928" font-family="Times New Roman" font-style="italic" transform="scale(0.041705,0.04192)" xml:space="preserve" x="2373" y="992">f</text><text font-size="928" font-family="&apos;Symbol&apos;,&apos;OpenSymbol&apos;" transform="scale(0.041705,0.04192)" xml:space="preserve" x="7303" y="992"></text><text font-size="928" font-family="&apos;Symbol&apos;,&apos;OpenSymbol&apos;" transform="scale(0.041705,0.04192)" xml:space="preserve" x="5690" y="992"></text><text font-size="928" font-family="&apos;Symbol&apos;,&apos;OpenSymbol&apos;" transform="scale(0.041705,0.04192)" xml:space="preserve" x="4241" y="992"></text><text font-size="640" font-family="Times New Roman" transform="scale(0.041705,0.04192)" xml:space="preserve" x="6943" y="575">2</text><text font-size="928" font-family="Times New Roman" transform="scale(0.041705,0.04192)" xml:space="preserve" x="3906" y="992">)</text><text font-size="928" font-family="Times New Roman" transform="scale(0.041705,0.04192)" xml:space="preserve" x="2853" y="992">(</text><text font-size="928" font-family="&apos;Symbol&apos;,&apos;OpenSymbol&apos;" font-style="italic" transform="scale(0.041705,0.04192)" xml:space="preserve" x="6333" y="992"></text><text font-size="928" font-family="&apos;Symbol&apos;,&apos;OpenSymbol&apos;" font-style="italic" transform="scale(0.041705,0.04192)" xml:space="preserve" x="3115" y="992"></text><text font-size="928" font-family="&apos;楷体_GB2312&apos;,&apos;DejaVu Sans&apos;" transform="scale(0.041705,0.04192)" xml:space="preserve" x="6" y="992">则</text></svg>