<svg xmlns="http://www.w3.org/2000/svg" xmlns:xlink="http://www.w3.org/1999/xlink" width="391" height="101"><g transform="scale(1,1.01)"><line x1="3180" y1="1336" x2="9333" y2="1336" stroke="rgb(0, 0, 0)" stroke-width="16" stroke-miterlimit="0" stroke-linecap="round" stroke-linejoin="round" shape-rendering="optimizeSpeed" transform="scale(0.041666,0.041529)" /><text font-size="640" font-family="Times New Roman" transform="scale(0.041666,0.041529)" xml:space="preserve" x="6722" y="1921">1</text><text font-size="928" font-family="Times New Roman" transform="scale(0.041666,0.041529)" xml:space="preserve" x="4865" y="1000">2</text><text font-size="928" font-family="Times New Roman" transform="scale(0.041666,0.041529)" xml:space="preserve" x="3096" y="1000">1</text><text font-size="928" font-family="Times New Roman" transform="scale(0.041666,0.041529)" xml:space="preserve" x="1703 1967 2231" y="1568">lim</text><text font-size="928" font-family="Times New Roman" transform="scale(0.041666,0.041529)" xml:space="preserve" x="835" y="1568">)</text><text font-size="928" font-family="Times New Roman" transform="scale(0.041666,0.041529)" xml:space="preserve" x="370" y="1568">2</text><text font-size="928" font-family="Times New Roman" transform="scale(0.041666,0.041529)" xml:space="preserve" x="35" y="1568">(</text><text font-size="640" font-family="&apos;Symbol&apos;,&apos;OpenSymbol&apos;" transform="scale(0.041666,0.041529)" xml:space="preserve" x="6402" y="1921"></text><text font-size="640" font-family="&apos;Symbol&apos;,&apos;OpenSymbol&apos;" transform="scale(0.041666,0.041529)" xml:space="preserve" x="2584" y="2208"></text><text font-size="640" font-family="&apos;Symbol&apos;,&apos;OpenSymbol&apos;" transform="scale(0.041666,0.041529)" xml:space="preserve" x="1944" y="2208"></text><text font-size="928" font-family="&apos;Symbol&apos;,&apos;OpenSymbol&apos;" transform="scale(0.041666,0.041529)" xml:space="preserve" x="7635" y="1000"></text><text font-size="928" font-family="&apos;Symbol&apos;,&apos;OpenSymbol&apos;" transform="scale(0.041666,0.041529)" xml:space="preserve" x="6023" y="1000"></text><text font-size="928" font-family="&apos;Symbol&apos;,&apos;OpenSymbol&apos;" transform="scale(0.041666,0.041529)" xml:space="preserve" x="4182" y="1000"></text><text font-size="640" font-family="Times New Roman" font-style="italic" transform="scale(0.041666,0.041529)" xml:space="preserve" x="6042" y="1921">p</text><text font-size="640" font-family="Times New Roman" font-style="italic" transform="scale(0.041666,0.041529)" xml:space="preserve" x="8907" y="583">p</text><text font-size="640" font-family="Times New Roman" font-style="italic" transform="scale(0.041666,0.041529)" xml:space="preserve" x="5439" y="583">p</text><text font-size="640" font-family="Times New Roman" font-style="italic" transform="scale(0.041666,0.041529)" xml:space="preserve" x="3598" y="583">p</text><text font-size="640" font-family="Times New Roman" font-style="italic" transform="scale(0.041666,0.041529)" xml:space="preserve" x="1604" y="2208">n</text><text font-size="928" font-family="Times New Roman" font-style="italic" transform="scale(0.041666,0.041529)" xml:space="preserve" x="5453" y="2338">n</text><text font-size="928" font-family="Times New Roman" font-style="italic" transform="scale(0.041666,0.041529)" xml:space="preserve" x="8318" y="1000">n</text><text font-size="928" font-family="&apos;MT Extra&apos;,&apos;DejaVu Sans&apos;" transform="scale(0.041666,0.041529)" xml:space="preserve" x="6619" y="1000"></text></g></svg>