<svg xmlns="http://www.w3.org/2000/svg" xmlns:xlink="http://www.w3.org/1999/xlink" width="572" height="90"><g transform="scale(1.00175,1)"><line x1="764" y1="1088" x2="2482" y2="1088" stroke="rgb(0, 0, 0)" stroke-width="16" stroke-miterlimit="0" stroke-linecap="round" stroke-linejoin="round" shape-rendering="optimizeSpeed" transform="scale(0.041666,0.041819)" /><text font-size="1129" font-family="&apos;Symbol&apos;,&apos;OpenSymbol&apos;" transform="scale(0.041666,0.041819)" xml:space="preserve" x="2570" y="1307"></text><text font-size="1129" font-family="&apos;Symbol&apos;,&apos;OpenSymbol&apos;" transform="scale(0.041666,0.041819)" xml:space="preserve" x="13470" y="1307"></text><text font-size="608" font-family="Times New Roman" font-style="italic" transform="scale(0.041666,0.041819)" xml:space="preserve" x="13012" y="1536">i</text><text font-size="608" font-family="Times New Roman" font-style="italic" transform="scale(0.041666,0.041819)" xml:space="preserve" x="11159" y="539">m</text><text font-size="608" font-family="Times New Roman" font-style="italic" transform="scale(0.041666,0.041819)" xml:space="preserve" x="11278" y="2094">i</text><text font-size="608" font-family="Times New Roman" font-style="italic" transform="scale(0.041666,0.041819)" xml:space="preserve" x="9050" y="1536">i</text><text font-size="608" font-family="Times New Roman" font-style="italic" transform="scale(0.041666,0.041819)" xml:space="preserve" x="7473" y="539">m</text><text font-size="608" font-family="Times New Roman" font-style="italic" transform="scale(0.041666,0.041819)" xml:space="preserve" x="7316" y="2094">i</text><text font-size="608" font-family="Times New Roman" font-style="italic" transform="scale(0.041666,0.041819)" xml:space="preserve" x="5521" y="1536">m</text><text font-size="896" font-family="Times New Roman" font-style="italic" transform="scale(0.041666,0.041819)" xml:space="preserve" x="12290" y="1312">y</text><text font-size="896" font-family="Times New Roman" font-style="italic" transform="scale(0.041666,0.041819)" xml:space="preserve" x="8328" y="1312">y</text><text font-size="896" font-family="Times New Roman" font-style="italic" transform="scale(0.041666,0.041819)" xml:space="preserve" x="4780" y="1312">y</text><text font-size="896" font-family="Times New Roman" font-style="italic" transform="scale(0.041666,0.041819)" xml:space="preserve" x="3099" y="1312">y</text><text font-size="896" font-family="Times New Roman" font-style="italic" transform="scale(0.041666,0.041819)" xml:space="preserve" x="1533" y="1996">m</text><text font-size="896" font-family="Times New Roman" font-style="italic" transform="scale(0.041666,0.041819)" xml:space="preserve" x="2016" y="763">a</text><text font-size="896" font-family="Times New Roman" font-style="italic" transform="scale(0.041666,0.041819)" xml:space="preserve" x="754" y="763">b</text><text font-size="608" font-family="Times New Roman" transform="scale(0.041666,0.041819)" xml:space="preserve" x="12694" y="1536">2</text><text font-size="608" font-family="Times New Roman" transform="scale(0.041666,0.041819)" xml:space="preserve" x="11901" y="539">1</text><text font-size="608" font-family="Times New Roman" transform="scale(0.041666,0.041819)" xml:space="preserve" x="11763" y="2094">1</text><text font-size="608" font-family="Times New Roman" transform="scale(0.041666,0.041819)" xml:space="preserve" x="9535" y="1536">1</text><text font-size="608" font-family="Times New Roman" transform="scale(0.041666,0.041819)" xml:space="preserve" x="8732" y="1536">2</text><text font-size="608" font-family="Times New Roman" transform="scale(0.041666,0.041819)" xml:space="preserve" x="7801" y="2094">1</text><text font-size="608" font-family="Times New Roman" transform="scale(0.041666,0.041819)" xml:space="preserve" x="5184" y="1536">2</text><text font-size="608" font-family="Times New Roman" transform="scale(0.041666,0.041819)" xml:space="preserve" x="3493" y="1536">0</text><text font-size="896" font-family="Times New Roman" transform="scale(0.041666,0.041819)" xml:space="preserve" x="10691" y="1312">2</text><text font-size="896" font-family="Times New Roman" transform="scale(0.041666,0.041819)" xml:space="preserve" x="6867" y="1312">4</text><text font-size="896" font-family="Times New Roman" transform="scale(0.041666,0.041819)" xml:space="preserve" x="1070" y="1996">6</text><text font-size="960" font-family="&apos;Symbol&apos;,&apos;OpenSymbol&apos;" transform="scale(0.041666,0.041819)" xml:space="preserve" x="11311" y="1396"></text><text font-size="960" font-family="&apos;Symbol&apos;,&apos;OpenSymbol&apos;" transform="scale(0.041666,0.041819)" xml:space="preserve" x="7349" y="1396"></text><text font-size="608" font-family="&apos;Symbol&apos;,&apos;OpenSymbol&apos;" transform="scale(0.041666,0.041819)" xml:space="preserve" x="11616" y="539"></text><text font-size="608" font-family="&apos;Symbol&apos;,&apos;OpenSymbol&apos;" transform="scale(0.041666,0.041819)" xml:space="preserve" x="11478" y="2094"></text><text font-size="608" font-family="&apos;Symbol&apos;,&apos;OpenSymbol&apos;" transform="scale(0.041666,0.041819)" xml:space="preserve" x="9250" y="1536"></text><text font-size="608" font-family="&apos;Symbol&apos;,&apos;OpenSymbol&apos;" transform="scale(0.041666,0.041819)" xml:space="preserve" x="7516" y="2094"></text><text font-size="896" font-family="&apos;Symbol&apos;,&apos;OpenSymbol&apos;" transform="scale(0.041666,0.041819)" xml:space="preserve" x="10025" y="1312"></text><text font-size="896" font-family="&apos;Symbol&apos;,&apos;OpenSymbol&apos;" transform="scale(0.041666,0.041819)" xml:space="preserve" x="6201" y="1312"></text><text font-size="896" font-family="&apos;Symbol&apos;,&apos;OpenSymbol&apos;" transform="scale(0.041666,0.041819)" xml:space="preserve" x="4030" y="1312"></text><text font-size="896" font-family="&apos;Symbol&apos;,&apos;OpenSymbol&apos;" transform="scale(0.041666,0.041819)" xml:space="preserve" x="1364" y="763"></text><text font-size="896" font-family="&apos;Symbol&apos;,&apos;OpenSymbol&apos;" transform="scale(0.041666,0.041819)" xml:space="preserve" x="50" y="1312"></text></g></svg>