<svg xmlns="http://www.w3.org/2000/svg" xmlns:xlink="http://www.w3.org/1999/xlink" width="295" height="123"><g transform="scale(1.16142,1.16038)"><text font-size="640" font-family="Times New Roman" font-style="italic" transform="scale(0.041721,0.041796)" xml:space="preserve" x="5872" y="1736">i</text><text font-size="640" font-family="Times New Roman" font-style="italic" transform="scale(0.041721,0.041796)" xml:space="preserve" x="1872" y="556">n</text><text font-size="640" font-family="Times New Roman" font-style="italic" transform="scale(0.041721,0.041796)" xml:space="preserve" x="1615" y="2469">i</text><text font-size="640" font-family="Times New Roman" font-style="italic" transform="scale(0.041721,0.041796)" xml:space="preserve" x="4084" y="1736">i</text><text font-size="928" font-family="Times New Roman" font-style="italic" transform="scale(0.041721,0.041796)" xml:space="preserve" x="5436" y="1504">x</text><text font-size="928" font-family="Times New Roman" font-style="italic" transform="scale(0.041721,0.041796)" xml:space="preserve" x="2806" y="1504">f</text><text font-size="928" font-family="&apos;Symbol&apos;,&apos;OpenSymbol&apos;" transform="scale(0.041721,0.041796)" xml:space="preserve" x="4824" y="1504"></text><text font-size="1344" font-family="&apos;Symbol&apos;,&apos;OpenSymbol&apos;" transform="scale(0.041721,0.041796)" xml:space="preserve" x="1555" y="1703"></text><text font-size="640" font-family="&apos;Symbol&apos;,&apos;OpenSymbol&apos;" transform="scale(0.041721,0.041796)" xml:space="preserve" x="1847" y="2469"></text><text font-size="640" font-family="&apos;Symbol&apos;,&apos;OpenSymbol&apos;" transform="scale(0.041721,0.041796)" xml:space="preserve" x="466" y="2144"></text><text font-size="640" font-family="Times New Roman" transform="scale(0.041721,0.041796)" xml:space="preserve" x="2169" y="2469">1</text><text font-size="640" font-family="Times New Roman" transform="scale(0.041721,0.041796)" xml:space="preserve" x="1118" y="2144">0</text><text font-size="928" font-family="Times New Roman" transform="scale(0.041721,0.041796)" xml:space="preserve" x="4395" y="1504">)</text><text font-size="928" font-family="Times New Roman" transform="scale(0.041721,0.041796)" xml:space="preserve" x="3286" y="1504">(</text><text font-size="928" font-family="Times New Roman" transform="scale(0.041721,0.041796)" xml:space="preserve" x="120 384 647" y="1504">lim</text><text font-size="928" font-family="&apos;Symbol&apos;,&apos;OpenSymbol&apos;" font-style="italic" transform="scale(0.041721,0.041796)" xml:space="preserve" x="3548" y="1504"></text><text font-size="640" font-family="&apos;Symbol&apos;,&apos;OpenSymbol&apos;" font-style="italic" transform="scale(0.041721,0.041796)" xml:space="preserve" x="44" y="2144"></text></g></svg>