<svg xmlns="http://www.w3.org/2000/svg" xmlns:xlink="http://www.w3.org/1999/xlink" width="592" height="106"><g transform="scale(1.00169,1)"><line x1="764" y1="1280" x2="2482" y2="1280" stroke="rgb(0, 0, 0)" stroke-width="16" stroke-miterlimit="0" stroke-linecap="round" stroke-linejoin="round" shape-rendering="optimizeSpeed" transform="scale(0.041666,0.041796)" /><text font-size="1129" font-family="&apos;Symbol&apos;,&apos;OpenSymbol&apos;" transform="scale(0.041666,0.041796)" xml:space="preserve" x="2570" y="1499"></text><text font-size="1129" font-family="&apos;Symbol&apos;,&apos;OpenSymbol&apos;" transform="scale(0.041666,0.041796)" xml:space="preserve" x="13938" y="1499"></text><text font-size="608" font-family="Times New Roman" font-style="italic" transform="scale(0.041666,0.041796)" xml:space="preserve" x="13480" y="1728">i</text><text font-size="608" font-family="Times New Roman" font-style="italic" transform="scale(0.041666,0.041796)" xml:space="preserve" x="11466" y="532">m</text><text font-size="608" font-family="Times New Roman" font-style="italic" transform="scale(0.041666,0.041796)" xml:space="preserve" x="11585" y="2484">i</text><text font-size="608" font-family="Times New Roman" font-style="italic" transform="scale(0.041666,0.041796)" xml:space="preserve" x="9353" y="1728">i</text><text font-size="608" font-family="Times New Roman" font-style="italic" transform="scale(0.041666,0.041796)" xml:space="preserve" x="7615" y="532">m</text><text font-size="608" font-family="Times New Roman" font-style="italic" transform="scale(0.041666,0.041796)" xml:space="preserve" x="7458" y="2484">i</text><text font-size="608" font-family="Times New Roman" font-style="italic" transform="scale(0.041666,0.041796)" xml:space="preserve" x="5521" y="1728">m</text><text font-size="896" font-family="Times New Roman" font-style="italic" transform="scale(0.041666,0.041796)" xml:space="preserve" x="12758" y="1504">y</text><text font-size="896" font-family="Times New Roman" font-style="italic" transform="scale(0.041666,0.041796)" xml:space="preserve" x="8631" y="1504">y</text><text font-size="896" font-family="Times New Roman" font-style="italic" transform="scale(0.041666,0.041796)" xml:space="preserve" x="4780" y="1504">y</text><text font-size="896" font-family="Times New Roman" font-style="italic" transform="scale(0.041666,0.041796)" xml:space="preserve" x="3099" y="1504">y</text><text font-size="896" font-family="Times New Roman" font-style="italic" transform="scale(0.041666,0.041796)" xml:space="preserve" x="1533" y="2188">m</text><text font-size="896" font-family="Times New Roman" font-style="italic" transform="scale(0.041666,0.041796)" xml:space="preserve" x="2016" y="955">a</text><text font-size="896" font-family="Times New Roman" font-style="italic" transform="scale(0.041666,0.041796)" xml:space="preserve" x="754" y="955">b</text><text font-size="608" font-family="Times New Roman" transform="scale(0.041666,0.041796)" xml:space="preserve" x="13162" y="1728">2</text><text font-size="608" font-family="Times New Roman" transform="scale(0.041666,0.041796)" xml:space="preserve" x="12208" y="532">1</text><text font-size="608" font-family="Times New Roman" transform="scale(0.041666,0.041796)" xml:space="preserve" x="12070" y="2484">1</text><text font-size="608" font-family="Times New Roman" transform="scale(0.041666,0.041796)" xml:space="preserve" x="9838" y="1728">1</text><text font-size="608" font-family="Times New Roman" transform="scale(0.041666,0.041796)" xml:space="preserve" x="9035" y="1728">2</text><text font-size="608" font-family="Times New Roman" transform="scale(0.041666,0.041796)" xml:space="preserve" x="7943" y="2484">1</text><text font-size="608" font-family="Times New Roman" transform="scale(0.041666,0.041796)" xml:space="preserve" x="5184" y="1728">2</text><text font-size="608" font-family="Times New Roman" transform="scale(0.041666,0.041796)" xml:space="preserve" x="3493" y="1728">0</text><text font-size="896" font-family="Times New Roman" transform="scale(0.041666,0.041796)" xml:space="preserve" x="10994" y="1504">2</text><text font-size="896" font-family="Times New Roman" transform="scale(0.041666,0.041796)" xml:space="preserve" x="6867" y="1504">4</text><text font-size="896" font-family="Times New Roman" transform="scale(0.041666,0.041796)" xml:space="preserve" x="1070" y="2188">6</text><text font-size="1440" font-family="&apos;Symbol&apos;,&apos;OpenSymbol&apos;" transform="scale(0.041666,0.041796)" xml:space="preserve" x="11449" y="1741"></text><text font-size="1440" font-family="&apos;Symbol&apos;,&apos;OpenSymbol&apos;" transform="scale(0.041666,0.041796)" xml:space="preserve" x="7322" y="1741"></text><text font-size="608" font-family="&apos;Symbol&apos;,&apos;OpenSymbol&apos;" transform="scale(0.041666,0.041796)" xml:space="preserve" x="11923" y="532"></text><text font-size="608" font-family="&apos;Symbol&apos;,&apos;OpenSymbol&apos;" transform="scale(0.041666,0.041796)" xml:space="preserve" x="11785" y="2484"></text><text font-size="608" font-family="&apos;Symbol&apos;,&apos;OpenSymbol&apos;" transform="scale(0.041666,0.041796)" xml:space="preserve" x="9553" y="1728"></text><text font-size="608" font-family="&apos;Symbol&apos;,&apos;OpenSymbol&apos;" transform="scale(0.041666,0.041796)" xml:space="preserve" x="7658" y="2484"></text><text font-size="896" font-family="&apos;Symbol&apos;,&apos;OpenSymbol&apos;" transform="scale(0.041666,0.041796)" xml:space="preserve" x="10328" y="1504"></text><text font-size="896" font-family="&apos;Symbol&apos;,&apos;OpenSymbol&apos;" transform="scale(0.041666,0.041796)" xml:space="preserve" x="6201" y="1504"></text><text font-size="896" font-family="&apos;Symbol&apos;,&apos;OpenSymbol&apos;" transform="scale(0.041666,0.041796)" xml:space="preserve" x="4030" y="1504"></text><text font-size="896" font-family="&apos;Symbol&apos;,&apos;OpenSymbol&apos;" transform="scale(0.041666,0.041796)" xml:space="preserve" x="1364" y="955"></text><text font-size="896" font-family="&apos;Symbol&apos;,&apos;OpenSymbol&apos;" transform="scale(0.041666,0.041796)" xml:space="preserve" x="50" y="1504"></text></g></svg>