<svg xmlns="http://www.w3.org/2000/svg" xmlns:xlink="http://www.w3.org/1999/xlink" width="581" height="81"><g transform="scale(1.00172,1.0125)"><text font-size="1344" font-family="&apos;Symbol&apos;,&apos;OpenSymbol&apos;" transform="scale(0.041642,0.041495)" xml:space="preserve" x="10299" y="1530"></text><text font-size="1344" font-family="&apos;Symbol&apos;,&apos;OpenSymbol&apos;" transform="scale(0.041642,0.041495)" xml:space="preserve" x="5769" y="1530"></text><text font-size="1344" font-family="&apos;Symbol&apos;,&apos;OpenSymbol&apos;" transform="scale(0.041642,0.041495)" xml:space="preserve" x="1158" y="1530"></text><text font-size="928" font-family="&apos;Symbol&apos;,&apos;OpenSymbol&apos;" transform="scale(0.041642,0.041495)" xml:space="preserve" x="9590" y="1216"></text><text font-size="928" font-family="&apos;Symbol&apos;,&apos;OpenSymbol&apos;" transform="scale(0.041642,0.041495)" xml:space="preserve" x="5027" y="1216"></text><text font-size="640" font-family="Times New Roman" font-style="italic" transform="scale(0.041642,0.041495)" xml:space="preserve" x="10818" y="564">b</text><text font-size="640" font-family="Times New Roman" font-style="italic" transform="scale(0.041642,0.041495)" xml:space="preserve" x="10694" y="1724">c</text><text font-size="640" font-family="Times New Roman" font-style="italic" transform="scale(0.041642,0.041495)" xml:space="preserve" x="6298" y="564">c</text><text font-size="640" font-family="Times New Roman" font-style="italic" transform="scale(0.041642,0.041495)" xml:space="preserve" x="6174" y="1724">a</text><text font-size="640" font-family="Times New Roman" font-style="italic" transform="scale(0.041642,0.041495)" xml:space="preserve" x="1677" y="564">b</text><text font-size="640" font-family="Times New Roman" font-style="italic" transform="scale(0.041642,0.041495)" xml:space="preserve" x="1563" y="1724">a</text><text font-size="928" font-family="Times New Roman" font-style="italic" transform="scale(0.041642,0.041495)" xml:space="preserve" x="13477" y="1216">x</text><text font-size="928" font-family="Times New Roman" font-style="italic" transform="scale(0.041642,0.041495)" xml:space="preserve" x="12149" y="1216">x</text><text font-size="928" font-family="Times New Roman" font-style="italic" transform="scale(0.041642,0.041495)" xml:space="preserve" x="11291" y="1216">f</text><text font-size="928" font-family="Times New Roman" font-style="italic" transform="scale(0.041642,0.041495)" xml:space="preserve" x="8997" y="1216">x</text><text font-size="928" font-family="Times New Roman" font-style="italic" transform="scale(0.041642,0.041495)" xml:space="preserve" x="7669" y="1216">x</text><text font-size="928" font-family="Times New Roman" font-style="italic" transform="scale(0.041642,0.041495)" xml:space="preserve" x="6811" y="1216">f</text><text font-size="928" font-family="Times New Roman" font-style="italic" transform="scale(0.041642,0.041495)" xml:space="preserve" x="4386" y="1216">x</text><text font-size="928" font-family="Times New Roman" font-style="italic" transform="scale(0.041642,0.041495)" xml:space="preserve" x="3058" y="1216">x</text><text font-size="928" font-family="Times New Roman" font-style="italic" transform="scale(0.041642,0.041495)" xml:space="preserve" x="2200" y="1216">f</text><text font-size="928" font-family="Times New Roman" transform="scale(0.041642,0.041495)" xml:space="preserve" x="12999" y="1216">d</text><text font-size="928" font-family="Times New Roman" transform="scale(0.041642,0.041495)" xml:space="preserve" x="12585" y="1216">)</text><text font-size="928" font-family="Times New Roman" transform="scale(0.041642,0.041495)" xml:space="preserve" x="11771" y="1216">(</text><text font-size="928" font-family="Times New Roman" transform="scale(0.041642,0.041495)" xml:space="preserve" x="8519" y="1216">d</text><text font-size="928" font-family="Times New Roman" transform="scale(0.041642,0.041495)" xml:space="preserve" x="8105" y="1216">)</text><text font-size="928" font-family="Times New Roman" transform="scale(0.041642,0.041495)" xml:space="preserve" x="7291" y="1216">(</text><text font-size="928" font-family="Times New Roman" transform="scale(0.041642,0.041495)" xml:space="preserve" x="3908" y="1216">d</text><text font-size="928" font-family="Times New Roman" transform="scale(0.041642,0.041495)" xml:space="preserve" x="3494" y="1216">)</text><text font-size="928" font-family="Times New Roman" transform="scale(0.041642,0.041495)" xml:space="preserve" x="2680" y="1216">(</text><text font-size="928" font-family="Times New Roman" transform="scale(0.041642,0.041495)" xml:space="preserve" x="485" y="1216">.</text><text font-size="928" font-family="Times New Roman" transform="scale(0.041642,0.041495)" xml:space="preserve" x="21" y="1216">5</text></g></svg>