<svg xmlns="http://www.w3.org/2000/svg" xmlns:xlink="http://www.w3.org/1999/xlink" width="710" height="81"><g transform="scale(1,1.0125)"><text font-size="1344" font-family="&apos;Symbol&apos;,&apos;OpenSymbol&apos;" transform="scale(0.041686,0.041495)" xml:space="preserve" x="13418" y="1530"></text><text font-size="1344" font-family="&apos;Symbol&apos;,&apos;OpenSymbol&apos;" transform="scale(0.041686,0.041495)" xml:space="preserve" x="8888" y="1530"></text><text font-size="1344" font-family="&apos;Symbol&apos;,&apos;OpenSymbol&apos;" transform="scale(0.041686,0.041495)" xml:space="preserve" x="1187" y="1530"></text><text font-size="928" font-family="&apos;Symbol&apos;,&apos;OpenSymbol&apos;" transform="scale(0.041686,0.041495)" xml:space="preserve" x="12709" y="1216"></text><text font-size="928" font-family="&apos;Symbol&apos;,&apos;OpenSymbol&apos;" transform="scale(0.041686,0.041495)" xml:space="preserve" x="8146" y="1216"></text><text font-size="928" font-family="&apos;Symbol&apos;,&apos;OpenSymbol&apos;" transform="scale(0.041686,0.041495)" xml:space="preserve" x="4262" y="1216"></text><text font-size="640" font-family="Times New Roman" font-style="italic" transform="scale(0.041686,0.041495)" xml:space="preserve" x="13937" y="564">b</text><text font-size="640" font-family="Times New Roman" font-style="italic" transform="scale(0.041686,0.041495)" xml:space="preserve" x="13823" y="1724">a</text><text font-size="640" font-family="Times New Roman" font-style="italic" transform="scale(0.041686,0.041495)" xml:space="preserve" x="9407" y="564">b</text><text font-size="640" font-family="Times New Roman" font-style="italic" transform="scale(0.041686,0.041495)" xml:space="preserve" x="9293" y="1724">a</text><text font-size="640" font-family="Times New Roman" font-style="italic" transform="scale(0.041686,0.041495)" xml:space="preserve" x="1706" y="564">b</text><text font-size="640" font-family="Times New Roman" font-style="italic" transform="scale(0.041686,0.041495)" xml:space="preserve" x="1592" y="1724">a</text><text font-size="928" font-family="Times New Roman" font-style="italic" transform="scale(0.041686,0.041495)" xml:space="preserve" x="16574" y="1216">x</text><text font-size="928" font-family="Times New Roman" font-style="italic" transform="scale(0.041686,0.041495)" xml:space="preserve" x="15246" y="1216">x</text><text font-size="928" font-family="Times New Roman" font-style="italic" transform="scale(0.041686,0.041495)" xml:space="preserve" x="14330" y="1216">g</text><text font-size="928" font-family="Times New Roman" font-style="italic" transform="scale(0.041686,0.041495)" xml:space="preserve" x="12116" y="1216">x</text><text font-size="928" font-family="Times New Roman" font-style="italic" transform="scale(0.041686,0.041495)" xml:space="preserve" x="10788" y="1216">x</text><text font-size="928" font-family="Times New Roman" font-style="italic" transform="scale(0.041686,0.041495)" xml:space="preserve" x="9930" y="1216">f</text><text font-size="928" font-family="Times New Roman" font-style="italic" transform="scale(0.041686,0.041495)" xml:space="preserve" x="7505" y="1216">x</text><text font-size="928" font-family="Times New Roman" font-style="italic" transform="scale(0.041686,0.041495)" xml:space="preserve" x="5916" y="1216">x</text><text font-size="928" font-family="Times New Roman" font-style="italic" transform="scale(0.041686,0.041495)" xml:space="preserve" x="5000" y="1216">g</text><text font-size="928" font-family="Times New Roman" font-style="italic" transform="scale(0.041686,0.041495)" xml:space="preserve" x="3349" y="1216">x</text><text font-size="928" font-family="Times New Roman" font-style="italic" transform="scale(0.041686,0.041495)" xml:space="preserve" x="2491" y="1216">f</text><text font-size="928" font-family="Times New Roman" transform="scale(0.041686,0.041495)" xml:space="preserve" x="16096" y="1216">d</text><text font-size="928" font-family="Times New Roman" transform="scale(0.041686,0.041495)" xml:space="preserve" x="15682" y="1216">)</text><text font-size="928" font-family="Times New Roman" transform="scale(0.041686,0.041495)" xml:space="preserve" x="14868" y="1216">(</text><text font-size="928" font-family="Times New Roman" transform="scale(0.041686,0.041495)" xml:space="preserve" x="11638" y="1216">d</text><text font-size="928" font-family="Times New Roman" transform="scale(0.041686,0.041495)" xml:space="preserve" x="11224" y="1216">)</text><text font-size="928" font-family="Times New Roman" transform="scale(0.041686,0.041495)" xml:space="preserve" x="10410" y="1216">(</text><text font-size="928" font-family="Times New Roman" transform="scale(0.041686,0.041495)" xml:space="preserve" x="7027" y="1216">d</text><text font-size="928" font-family="Times New Roman" transform="scale(0.041686,0.041495)" xml:space="preserve" x="6352 6664" y="1216">)]</text><text font-size="928" font-family="Times New Roman" transform="scale(0.041686,0.041495)" xml:space="preserve" x="5538" y="1216">(</text><text font-size="928" font-family="Times New Roman" transform="scale(0.041686,0.041495)" xml:space="preserve" x="3785" y="1216">)</text><text font-size="928" font-family="Times New Roman" transform="scale(0.041686,0.041495)" xml:space="preserve" x="2971" y="1216">(</text><text font-size="928" font-family="Times New Roman" transform="scale(0.041686,0.041495)" xml:space="preserve" x="1983" y="1216">[</text><text font-size="928" font-family="Times New Roman" transform="scale(0.041686,0.041495)" xml:space="preserve" x="514" y="1216">.</text><text font-size="928" font-family="Times New Roman" transform="scale(0.041686,0.041495)" xml:space="preserve" x="50" y="1216">4</text></g></svg>