<svg xmlns="http://www.w3.org/2000/svg" xmlns:xlink="http://www.w3.org/1999/xlink" width="201" height="81"><g transform="scale(1.005,1.0125)"><text font-size="1216" font-family="&apos;Symbol&apos;,&apos;OpenSymbol&apos;" transform="scale(0.041597,0.041495)" xml:space="preserve" x="300" y="958"></text><text font-size="928" font-family="&apos;Symbol&apos;,&apos;OpenSymbol&apos;" transform="scale(0.041597,0.041495)" xml:space="preserve" x="3427" y="800"></text><text font-size="640" font-family="Times New Roman" transform="scale(0.041597,0.041495)" xml:space="preserve" x="1230" y="1712">]</text><text font-size="640" font-family="Times New Roman" transform="scale(0.041597,0.041495)" xml:space="preserve" x="596" y="1712">,</text><text font-size="640" font-family="Times New Roman" transform="scale(0.041597,0.041495)" xml:space="preserve" x="4" y="1712">[</text><text font-size="928" font-family="Times New Roman" transform="scale(0.041597,0.041495)" xml:space="preserve" x="3092" y="800">)</text><text font-size="928" font-family="Times New Roman" transform="scale(0.041597,0.041495)" xml:space="preserve" x="1931" y="800">(</text><text font-size="640" font-family="Times New Roman" font-style="italic" transform="scale(0.041597,0.041495)" xml:space="preserve" x="876" y="1712">b</text><text font-size="640" font-family="Times New Roman" font-style="italic" transform="scale(0.041597,0.041495)" xml:space="preserve" x="248" y="1712">c</text><text font-size="640" font-family="Times New Roman" font-style="italic" transform="scale(0.041597,0.041495)" xml:space="preserve" x="4492" y="1032">i</text><text font-size="640" font-family="Times New Roman" font-style="italic" transform="scale(0.041597,0.041495)" xml:space="preserve" x="2793" y="1032">i</text><text font-size="928" font-family="Times New Roman" font-style="italic" transform="scale(0.041597,0.041495)" xml:space="preserve" x="3992" y="800">x</text><text font-size="928" font-family="Times New Roman" font-style="italic" transform="scale(0.041597,0.041495)" xml:space="preserve" x="1451" y="800">f</text><text font-size="928" font-family="&apos;Symbol&apos;,&apos;OpenSymbol&apos;" font-style="italic" transform="scale(0.041597,0.041495)" xml:space="preserve" x="2193" y="800"></text></g></svg>