<svg xmlns="http://www.w3.org/2000/svg" xmlns:xlink="http://www.w3.org/1999/xlink" width="405" height="86"><g transform="scale(1.00248,1)"><line x1="64" y1="1088" x2="506" y2="1088" stroke="rgb(0, 0, 0)" stroke-width="16" stroke-miterlimit="0" stroke-linecap="round" stroke-linejoin="round" shape-rendering="optimizeSpeed" transform="scale(0.041632,0.041826)" /><text font-size="896" font-family="Times New Roman" font-style="italic" transform="scale(0.041632,0.041826)" xml:space="preserve" x="9265" y="1312">x</text><text font-size="896" font-family="Times New Roman" font-style="italic" transform="scale(0.041632,0.041826)" xml:space="preserve" x="6500" y="1312">y</text><text font-size="896" font-family="Times New Roman" font-style="italic" transform="scale(0.041632,0.041826)" xml:space="preserve" x="4053" y="1312">y</text><text font-size="896" font-family="Times New Roman" font-style="italic" transform="scale(0.041632,0.041826)" xml:space="preserve" x="1029" y="1312">y</text><text font-size="608" font-family="Times New Roman" font-style="italic" transform="scale(0.041632,0.041826)" xml:space="preserve" x="7222" y="1536">i</text><text font-size="608" font-family="Times New Roman" font-style="italic" transform="scale(0.041632,0.041826)" xml:space="preserve" x="4775" y="1536">i</text><text font-size="608" font-family="Times New Roman" font-style="italic" transform="scale(0.041632,0.041826)" xml:space="preserve" x="1751" y="1536">i</text><text font-size="896" font-family="&apos;Symbol&apos;,&apos;OpenSymbol&apos;" transform="scale(0.041632,0.041826)" xml:space="preserve" x="8719" y="1312"></text><text font-size="896" font-family="&apos;Symbol&apos;,&apos;OpenSymbol&apos;" transform="scale(0.041632,0.041826)" xml:space="preserve" x="7912" y="1312"></text><text font-size="896" font-family="&apos;Symbol&apos;,&apos;OpenSymbol&apos;" transform="scale(0.041632,0.041826)" xml:space="preserve" x="5750" y="1312"></text><text font-size="896" font-family="&apos;Symbol&apos;,&apos;OpenSymbol&apos;" transform="scale(0.041632,0.041826)" xml:space="preserve" x="2840" y="1312"></text><text font-size="608" font-family="&apos;Symbol&apos;,&apos;OpenSymbol&apos;" transform="scale(0.041632,0.041826)" xml:space="preserve" x="4975" y="1536"></text><text font-size="608" font-family="&apos;Symbol&apos;,&apos;OpenSymbol&apos;" transform="scale(0.041632,0.041826)" xml:space="preserve" x="1951" y="1536"></text><text font-size="896" font-family="Times New Roman" transform="scale(0.041632,0.041826)" xml:space="preserve" x="8256" y="1312">2</text><text font-size="896" font-family="Times New Roman" transform="scale(0.041632,0.041826)" xml:space="preserve" x="7498" y="1312">)</text><text font-size="896" font-family="Times New Roman" transform="scale(0.041632,0.041826)" xml:space="preserve" x="3506" y="1312">4</text><text font-size="896" font-family="Times New Roman" transform="scale(0.041632,0.041826)" xml:space="preserve" x="622" y="1312">(</text><text font-size="896" font-family="Times New Roman" transform="scale(0.041632,0.041826)" xml:space="preserve" x="68" y="1996">6</text><text font-size="896" font-family="Times New Roman" transform="scale(0.041632,0.041826)" xml:space="preserve" x="61" y="763">1</text><text font-size="608" font-family="Times New Roman" transform="scale(0.041632,0.041826)" xml:space="preserve" x="6904" y="1536">2</text><text font-size="608" font-family="Times New Roman" transform="scale(0.041632,0.041826)" xml:space="preserve" x="5260" y="1536">1</text><text font-size="608" font-family="Times New Roman" transform="scale(0.041632,0.041826)" xml:space="preserve" x="4457" y="1536">2</text><text font-size="608" font-family="Times New Roman" transform="scale(0.041632,0.041826)" xml:space="preserve" x="2303" y="1536">2</text><text font-size="608" font-family="Times New Roman" transform="scale(0.041632,0.041826)" xml:space="preserve" x="1433" y="1536">2</text></g></svg>