<svg xmlns="http://www.w3.org/2000/svg" xmlns:xlink="http://www.w3.org/1999/xlink" width="202" height="81"><g transform="scale(1,1.0125)"><line x1="1565" y1="1009" x2="1696" y2="940" stroke="rgb(0, 0, 0)" stroke-width="16" stroke-miterlimit="0" stroke-linecap="round" stroke-linejoin="round" shape-rendering="optimizeSpeed" transform="scale(0.041735,0.041495)" /><line x1="1696" y1="948" x2="1889" y2="1246" stroke="rgb(0, 0, 0)" stroke-width="32" stroke-miterlimit="0" stroke-linecap="round" stroke-linejoin="round" shape-rendering="optimizeSpeed" transform="scale(0.041735,0.041495)" /><line x1="1897" y1="1246" x2="2113" y2="434" stroke="rgb(0, 0, 0)" stroke-width="16" stroke-miterlimit="0" stroke-linecap="round" stroke-linejoin="round" shape-rendering="optimizeSpeed" transform="scale(0.041735,0.041495)" /><line x1="2113" y1="434" x2="3782" y2="434" stroke="rgb(0, 0, 0)" stroke-width="16" stroke-miterlimit="0" stroke-linecap="round" stroke-linejoin="round" shape-rendering="optimizeSpeed" transform="scale(0.041735,0.041495)" /><text font-size="928" font-family="Times New Roman" font-style="italic" transform="scale(0.041735,0.041495)" xml:space="preserve" x="4399" y="1216">x</text><text font-size="928" font-family="Times New Roman" font-style="italic" transform="scale(0.041735,0.041495)" xml:space="preserve" x="3359" y="1216">x</text><text font-size="928" font-family="Times New Roman" transform="scale(0.041735,0.041495)" xml:space="preserve" x="3921" y="1216">d</text><text font-size="928" font-family="Times New Roman" transform="scale(0.041735,0.041495)" xml:space="preserve" x="2071" y="1216">1</text><text font-size="640" font-family="Times New Roman" transform="scale(0.041735,0.041495)" xml:space="preserve" x="1173" y="564">1</text><text font-size="640" font-family="Times New Roman" transform="scale(0.041735,0.041495)" xml:space="preserve" x="1099" y="1724">0</text><text font-size="1344" font-family="&apos;Symbol&apos;,&apos;OpenSymbol&apos;" transform="scale(0.041735,0.041495)" xml:space="preserve" x="792" y="1530"></text><text font-size="928" font-family="&apos;Symbol&apos;,&apos;OpenSymbol&apos;" transform="scale(0.041735,0.041495)" xml:space="preserve" x="2621" y="1216"></text><text font-size="928" font-family="&apos;Symbol&apos;,&apos;OpenSymbol&apos;" transform="scale(0.041735,0.041495)" xml:space="preserve" x="50" y="1216"></text></g></svg>