<svg xmlns="http://www.w3.org/2000/svg" xmlns:xlink="http://www.w3.org/1999/xlink" width="385" height="85"><g transform="scale(1.0026,1.0119)"><line x1="72" y1="75" x2="72" y2="1957" stroke="rgb(0, 0, 0)" stroke-width="16" stroke-miterlimit="0" stroke-linecap="round" stroke-linejoin="round" shape-rendering="optimizeSpeed" transform="scale(0.04163,0.041503)" /><line x1="4111" y1="75" x2="4111" y2="1957" stroke="rgb(0, 0, 0)" stroke-width="16" stroke-miterlimit="0" stroke-linecap="round" stroke-linejoin="round" shape-rendering="optimizeSpeed" transform="scale(0.04163,0.041503)" /><line x1="5907" y1="506" x2="5907" y2="1526" stroke="rgb(0, 0, 0)" stroke-width="16" stroke-miterlimit="0" stroke-linecap="round" stroke-linejoin="round" shape-rendering="optimizeSpeed" transform="scale(0.04163,0.041503)" /><line x1="8143" y1="506" x2="8143" y2="1526" stroke="rgb(0, 0, 0)" stroke-width="16" stroke-miterlimit="0" stroke-linecap="round" stroke-linejoin="round" shape-rendering="optimizeSpeed" transform="scale(0.04163,0.041503)" /><text font-size="928" font-family="Times New Roman" font-style="italic" transform="scale(0.04163,0.041503)" xml:space="preserve" x="8776" y="1248">x</text><text font-size="928" font-family="Times New Roman" font-style="italic" transform="scale(0.04163,0.041503)" xml:space="preserve" x="7182" y="1248">x</text><text font-size="928" font-family="Times New Roman" font-style="italic" transform="scale(0.04163,0.041503)" xml:space="preserve" x="6324" y="1248">f</text><text font-size="928" font-family="Times New Roman" font-style="italic" transform="scale(0.04163,0.041503)" xml:space="preserve" x="3470" y="1248">x</text><text font-size="928" font-family="Times New Roman" font-style="italic" transform="scale(0.04163,0.041503)" xml:space="preserve" x="2142" y="1248">x</text><text font-size="928" font-family="Times New Roman" font-style="italic" transform="scale(0.04163,0.041503)" xml:space="preserve" x="1284" y="1248">f</text><text font-size="640" font-family="Times New Roman" font-style="italic" transform="scale(0.04163,0.041503)" xml:space="preserve" x="5535" y="596">b</text><text font-size="640" font-family="Times New Roman" font-style="italic" transform="scale(0.04163,0.041503)" xml:space="preserve" x="5421" y="1756">a</text><text font-size="640" font-family="Times New Roman" font-style="italic" transform="scale(0.04163,0.041503)" xml:space="preserve" x="761" y="596">b</text><text font-size="640" font-family="Times New Roman" font-style="italic" transform="scale(0.04163,0.041503)" xml:space="preserve" x="647" y="1756">a</text><text font-size="928" font-family="Times New Roman" transform="scale(0.04163,0.041503)" xml:space="preserve" x="8298" y="1248">d</text><text font-size="928" font-family="Times New Roman" transform="scale(0.04163,0.041503)" xml:space="preserve" x="7618" y="1248">)</text><text font-size="928" font-family="Times New Roman" transform="scale(0.04163,0.041503)" xml:space="preserve" x="6804" y="1248">(</text><text font-size="928" font-family="Times New Roman" transform="scale(0.04163,0.041503)" xml:space="preserve" x="2992" y="1248">d</text><text font-size="928" font-family="Times New Roman" transform="scale(0.04163,0.041503)" xml:space="preserve" x="2578" y="1248">)</text><text font-size="928" font-family="Times New Roman" transform="scale(0.04163,0.041503)" xml:space="preserve" x="1764" y="1248">(</text><text font-size="1344" font-family="&apos;Symbol&apos;,&apos;OpenSymbol&apos;" transform="scale(0.04163,0.041503)" xml:space="preserve" x="5104" y="1562"></text><text font-size="1344" font-family="&apos;Symbol&apos;,&apos;OpenSymbol&apos;" transform="scale(0.04163,0.041503)" xml:space="preserve" x="330" y="1562"></text><text font-size="928" font-family="&apos;Symbol&apos;,&apos;OpenSymbol&apos;" transform="scale(0.04163,0.041503)" xml:space="preserve" x="4362" y="1248"></text></g></svg>