<svg xmlns="http://www.w3.org/2000/svg" xmlns:xlink="http://www.w3.org/1999/xlink" width="540" height="53"><g transform="scale(1.00186,1.01923)"><text font-size="928" font-family="Times New Roman" transform="scale(0.041666,0.041406)" xml:space="preserve" x="12521" y="992">1</text><text font-size="928" font-family="Times New Roman" transform="scale(0.041666,0.041406)" xml:space="preserve" x="9238" y="992">3</text><text font-size="928" font-family="Times New Roman" transform="scale(0.041666,0.041406)" xml:space="preserve" x="5278" y="992">3</text><text font-size="928" font-family="Times New Roman" transform="scale(0.041666,0.041406)" xml:space="preserve" x="1969" y="992">)</text><text font-size="928" font-family="Times New Roman" transform="scale(0.041666,0.041406)" xml:space="preserve" x="1576" y="992">1</text><text font-size="928" font-family="Times New Roman" transform="scale(0.041666,0.041406)" xml:space="preserve" x="35" y="992">(</text><text font-size="640" font-family="Times New Roman" transform="scale(0.041666,0.041406)" xml:space="preserve" x="6196" y="575">2</text><text font-size="640" font-family="Times New Roman" transform="scale(0.041666,0.041406)" xml:space="preserve" x="3999" y="575">3</text><text font-size="640" font-family="Times New Roman" transform="scale(0.041666,0.041406)" xml:space="preserve" x="2298" y="575">3</text><text font-size="928" font-family="&apos;Symbol&apos;,&apos;OpenSymbol&apos;" transform="scale(0.041666,0.041406)" xml:space="preserve" x="11940" y="992"></text><text font-size="928" font-family="&apos;Symbol&apos;,&apos;OpenSymbol&apos;" transform="scale(0.041666,0.041406)" xml:space="preserve" x="8584" y="992"></text><text font-size="928" font-family="&apos;Symbol&apos;,&apos;OpenSymbol&apos;" transform="scale(0.041666,0.041406)" xml:space="preserve" x="4591" y="992"></text><text font-size="928" font-family="&apos;Symbol&apos;,&apos;OpenSymbol&apos;" transform="scale(0.041666,0.041406)" xml:space="preserve" x="2842" y="992"></text><text font-size="928" font-family="&apos;Symbol&apos;,&apos;OpenSymbol&apos;" transform="scale(0.041666,0.041406)" xml:space="preserve" x="995" y="992"></text><text font-size="928" font-family="Times New Roman" font-style="italic" transform="scale(0.041666,0.041406)" xml:space="preserve" x="9647" y="992">n</text><text font-size="928" font-family="Times New Roman" font-style="italic" transform="scale(0.041666,0.041406)" xml:space="preserve" x="5687" y="992">n</text><text font-size="928" font-family="Times New Roman" font-style="italic" transform="scale(0.041666,0.041406)" xml:space="preserve" x="3510" y="992">n</text><text font-size="928" font-family="Times New Roman" font-style="italic" transform="scale(0.041666,0.041406)" xml:space="preserve" x="370" y="992">n</text></g></svg>