<svg xmlns="http://www.w3.org/2000/svg" xmlns:xlink="http://www.w3.org/1999/xlink" width="202" height="81"><g transform="scale(1,1.0125)"><text font-size="1216" font-family="&apos;Symbol&apos;,&apos;OpenSymbol&apos;" transform="scale(0.041735,0.041495)" xml:space="preserve" x="325" y="958"></text><text font-size="928" font-family="&apos;Symbol&apos;,&apos;OpenSymbol&apos;" transform="scale(0.041735,0.041495)" xml:space="preserve" x="3452" y="800"></text><text font-size="640" font-family="Times New Roman" transform="scale(0.041735,0.041495)" xml:space="preserve" x="1280" y="1712">]</text><text font-size="640" font-family="Times New Roman" transform="scale(0.041735,0.041495)" xml:space="preserve" x="646" y="1712">,</text><text font-size="640" font-family="Times New Roman" transform="scale(0.041735,0.041495)" xml:space="preserve" x="4" y="1712">[</text><text font-size="928" font-family="Times New Roman" transform="scale(0.041735,0.041495)" xml:space="preserve" x="3117" y="800">)</text><text font-size="928" font-family="Times New Roman" transform="scale(0.041735,0.041495)" xml:space="preserve" x="1956" y="800">(</text><text font-size="640" font-family="Times New Roman" font-style="italic" transform="scale(0.041735,0.041495)" xml:space="preserve" x="926" y="1712">b</text><text font-size="640" font-family="Times New Roman" font-style="italic" transform="scale(0.041735,0.041495)" xml:space="preserve" x="258" y="1712">a</text><text font-size="640" font-family="Times New Roman" font-style="italic" transform="scale(0.041735,0.041495)" xml:space="preserve" x="4517" y="1032">i</text><text font-size="640" font-family="Times New Roman" font-style="italic" transform="scale(0.041735,0.041495)" xml:space="preserve" x="2818" y="1032">i</text><text font-size="928" font-family="Times New Roman" font-style="italic" transform="scale(0.041735,0.041495)" xml:space="preserve" x="4017" y="800">x</text><text font-size="928" font-family="Times New Roman" font-style="italic" transform="scale(0.041735,0.041495)" xml:space="preserve" x="1476" y="800">f</text><text font-size="928" font-family="&apos;Symbol&apos;,&apos;OpenSymbol&apos;" font-style="italic" transform="scale(0.041735,0.041495)" xml:space="preserve" x="2218" y="800"></text></g></svg>