<svg xmlns="http://www.w3.org/2000/svg" xmlns:xlink="http://www.w3.org/1999/xlink" width="659" height="81"><g transform="scale(1,1.0125)"><line x1="2962" y1="474" x2="2962" y2="1494" stroke="rgb(0, 0, 0)" stroke-width="16" stroke-miterlimit="0" stroke-linecap="round" stroke-linejoin="round" shape-rendering="optimizeSpeed" transform="scale(0.041666,0.041495)" /><line x1="5198" y1="474" x2="5198" y2="1494" stroke="rgb(0, 0, 0)" stroke-width="16" stroke-miterlimit="0" stroke-linecap="round" stroke-linejoin="round" shape-rendering="optimizeSpeed" transform="scale(0.041666,0.041495)" /><line x1="12510" y1="474" x2="12510" y2="1494" stroke="rgb(0, 0, 0)" stroke-width="16" stroke-miterlimit="0" stroke-linecap="round" stroke-linejoin="round" shape-rendering="optimizeSpeed" transform="scale(0.041666,0.041495)" /><line x1="14746" y1="474" x2="14746" y2="1494" stroke="rgb(0, 0, 0)" stroke-width="16" stroke-miterlimit="0" stroke-linecap="round" stroke-linejoin="round" shape-rendering="optimizeSpeed" transform="scale(0.041666,0.041495)" /><text font-size="928" font-family="Times New Roman" font-style="italic" transform="scale(0.041666,0.041495)" xml:space="preserve" x="15379" y="1216">x</text><text font-size="928" font-family="Times New Roman" font-style="italic" transform="scale(0.041666,0.041495)" xml:space="preserve" x="13785" y="1216">x</text><text font-size="928" font-family="Times New Roman" font-style="italic" transform="scale(0.041666,0.041495)" xml:space="preserve" x="12927" y="1216">f</text><text font-size="928" font-family="Times New Roman" font-style="italic" transform="scale(0.041666,0.041495)" xml:space="preserve" x="10339" y="1216">x</text><text font-size="928" font-family="Times New Roman" font-style="italic" transform="scale(0.041666,0.041495)" xml:space="preserve" x="9011" y="1216">x</text><text font-size="928" font-family="Times New Roman" font-style="italic" transform="scale(0.041666,0.041495)" xml:space="preserve" x="8153" y="1216">f</text><text font-size="928" font-family="Times New Roman" font-style="italic" transform="scale(0.041666,0.041495)" xml:space="preserve" x="5831" y="1216">x</text><text font-size="928" font-family="Times New Roman" font-style="italic" transform="scale(0.041666,0.041495)" xml:space="preserve" x="4237" y="1216">x</text><text font-size="928" font-family="Times New Roman" font-style="italic" transform="scale(0.041666,0.041495)" xml:space="preserve" x="3379" y="1216">f</text><text font-size="640" font-family="Times New Roman" font-style="italic" transform="scale(0.041666,0.041495)" xml:space="preserve" x="12138" y="564">b</text><text font-size="640" font-family="Times New Roman" font-style="italic" transform="scale(0.041666,0.041495)" xml:space="preserve" x="12024" y="1724">a</text><text font-size="640" font-family="Times New Roman" font-style="italic" transform="scale(0.041666,0.041495)" xml:space="preserve" x="7630" y="564">b</text><text font-size="640" font-family="Times New Roman" font-style="italic" transform="scale(0.041666,0.041495)" xml:space="preserve" x="7516" y="1724">a</text><text font-size="640" font-family="Times New Roman" font-style="italic" transform="scale(0.041666,0.041495)" xml:space="preserve" x="2590" y="564">b</text><text font-size="640" font-family="Times New Roman" font-style="italic" transform="scale(0.041666,0.041495)" xml:space="preserve" x="2476" y="1724">a</text><text font-size="928" font-family="Times New Roman" transform="scale(0.041666,0.041495)" xml:space="preserve" x="14901" y="1216">d</text><text font-size="928" font-family="Times New Roman" transform="scale(0.041666,0.041495)" xml:space="preserve" x="14221" y="1216">)</text><text font-size="928" font-family="Times New Roman" transform="scale(0.041666,0.041495)" xml:space="preserve" x="13407" y="1216">(</text><text font-size="928" font-family="Times New Roman" transform="scale(0.041666,0.041495)" xml:space="preserve" x="9861" y="1216">d</text><text font-size="928" font-family="Times New Roman" transform="scale(0.041666,0.041495)" xml:space="preserve" x="9447" y="1216">)</text><text font-size="928" font-family="Times New Roman" transform="scale(0.041666,0.041495)" xml:space="preserve" x="8633" y="1216">(</text><text font-size="928" font-family="Times New Roman" transform="scale(0.041666,0.041495)" xml:space="preserve" x="5353" y="1216">d</text><text font-size="928" font-family="Times New Roman" transform="scale(0.041666,0.041495)" xml:space="preserve" x="4673" y="1216">)</text><text font-size="928" font-family="Times New Roman" transform="scale(0.041666,0.041495)" xml:space="preserve" x="3859" y="1216">(</text><text font-size="1344" font-family="&apos;Symbol&apos;,&apos;OpenSymbol&apos;" transform="scale(0.041666,0.041495)" xml:space="preserve" x="11707" y="1530"></text><text font-size="1344" font-family="&apos;Symbol&apos;,&apos;OpenSymbol&apos;" transform="scale(0.041666,0.041495)" xml:space="preserve" x="7199" y="1530"></text><text font-size="1344" font-family="&apos;Symbol&apos;,&apos;OpenSymbol&apos;" transform="scale(0.041666,0.041495)" xml:space="preserve" x="2159" y="1530"></text><text font-size="928" font-family="&apos;Symbol&apos;,&apos;OpenSymbol&apos;" transform="scale(0.041666,0.041495)" xml:space="preserve" x="10965" y="1216"></text><text font-size="928" font-family="&apos;Symbol&apos;,&apos;OpenSymbol&apos;" transform="scale(0.041666,0.041495)" xml:space="preserve" x="6457" y="1216"></text><text font-size="928" font-family="&apos;Symbol&apos;,&apos;OpenSymbol&apos;" transform="scale(0.041666,0.041495)" xml:space="preserve" x="1465" y="1216"></text><text font-size="928" font-family="&apos;Symbol&apos;,&apos;OpenSymbol&apos;" transform="scale(0.041666,0.041495)" xml:space="preserve" x="-95" y="1216"></text></g></svg>