<svg xmlns="http://www.w3.org/2000/svg" xmlns:xlink="http://www.w3.org/1999/xlink" width="576" height="89"><g transform="scale(1,1.01136)"><line x1="780" y1="1112" x2="2543" y2="1112" stroke="rgb(0, 0, 0)" stroke-width="16" stroke-miterlimit="0" stroke-linecap="round" stroke-linejoin="round" shape-rendering="optimizeSpeed" transform="scale(0.041642,0.041511)" /><text font-size="1167" font-family="&apos;Symbol&apos;,&apos;OpenSymbol&apos;" transform="scale(0.041642,0.041511)" xml:space="preserve" x="2641" y="1339"></text><line x1="3198" y1="1112" x2="3668" y2="1112" stroke="rgb(0, 0, 0)" stroke-width="16" stroke-miterlimit="0" stroke-linecap="round" stroke-linejoin="round" shape-rendering="optimizeSpeed" transform="scale(0.041642,0.041511)" /><text font-size="1167" font-family="&apos;Symbol&apos;,&apos;OpenSymbol&apos;" transform="scale(0.041642,0.041511)" xml:space="preserve" x="13593" y="1339"></text><text font-size="928" font-family="Times New Roman" transform="scale(0.041642,0.041511)" xml:space="preserve" x="13084" y="1344">)</text><text font-size="928" font-family="Times New Roman" transform="scale(0.041642,0.041511)" xml:space="preserve" x="7955" y="1344">(</text><text font-size="928" font-family="Times New Roman" transform="scale(0.041642,0.041511)" xml:space="preserve" x="6822" y="1344">)</text><text font-size="928" font-family="Times New Roman" transform="scale(0.041642,0.041511)" xml:space="preserve" x="3795" y="1344">(</text><text font-size="928" font-family="Times New Roman" transform="scale(0.041642,0.041511)" xml:space="preserve" x="3216" y="2052">2</text><text font-size="928" font-family="Times New Roman" transform="scale(0.041642,0.041511)" xml:space="preserve" x="3201" y="776">1</text><text font-size="640" font-family="Times New Roman" transform="scale(0.041642,0.041511)" xml:space="preserve" x="12715" y="1576">1</text><text font-size="640" font-family="Times New Roman" transform="scale(0.041642,0.041511)" xml:space="preserve" x="8733" y="1576">1</text><text font-size="640" font-family="Times New Roman" transform="scale(0.041642,0.041511)" xml:space="preserve" x="4633" y="1576">0</text><text font-size="640" font-family="&apos;Symbol&apos;,&apos;OpenSymbol&apos;" transform="scale(0.041642,0.041511)" xml:space="preserve" x="12405" y="1576"></text><text font-size="928" font-family="&apos;Symbol&apos;,&apos;OpenSymbol&apos;" transform="scale(0.041642,0.041511)" xml:space="preserve" x="10859" y="1344"></text><text font-size="928" font-family="&apos;Symbol&apos;,&apos;OpenSymbol&apos;" transform="scale(0.041642,0.041511)" xml:space="preserve" x="9247" y="1344"></text><text font-size="928" font-family="&apos;Symbol&apos;,&apos;OpenSymbol&apos;" transform="scale(0.041642,0.041511)" xml:space="preserve" x="7287" y="1344"></text><text font-size="928" font-family="&apos;Symbol&apos;,&apos;OpenSymbol&apos;" transform="scale(0.041642,0.041511)" xml:space="preserve" x="5197" y="1344"></text><text font-size="928" font-family="&apos;Symbol&apos;,&apos;OpenSymbol&apos;" transform="scale(0.041642,0.041511)" xml:space="preserve" x="1394" y="776"></text><text font-size="928" font-family="&apos;Symbol&apos;,&apos;OpenSymbol&apos;" transform="scale(0.041642,0.041511)" xml:space="preserve" x="50" y="1344"></text><text font-size="640" font-family="Times New Roman" font-style="italic" transform="scale(0.041642,0.041511)" xml:space="preserve" x="12055" y="1576">n</text><text font-size="640" font-family="Times New Roman" font-style="italic" transform="scale(0.041642,0.041511)" xml:space="preserve" x="6393" y="1576">n</text><text font-size="928" font-family="Times New Roman" font-style="italic" transform="scale(0.041642,0.041511)" xml:space="preserve" x="11628" y="1344">y</text><text font-size="928" font-family="Times New Roman" font-style="italic" transform="scale(0.041642,0.041511)" xml:space="preserve" x="8376" y="1344">y</text><text font-size="928" font-family="Times New Roman" font-style="italic" transform="scale(0.041642,0.041511)" xml:space="preserve" x="5966" y="1344">y</text><text font-size="928" font-family="Times New Roman" font-style="italic" transform="scale(0.041642,0.041511)" xml:space="preserve" x="4216" y="1344">y</text><text font-size="928" font-family="Times New Roman" font-style="italic" transform="scale(0.041642,0.041511)" xml:space="preserve" x="1437" y="2052">n</text><text font-size="928" font-family="Times New Roman" font-style="italic" transform="scale(0.041642,0.041511)" xml:space="preserve" x="2062" y="776">a</text><text font-size="928" font-family="Times New Roman" font-style="italic" transform="scale(0.041642,0.041511)" xml:space="preserve" x="769" y="776">b</text><text font-size="928" font-family="&apos;MT Extra&apos;,&apos;DejaVu Sans&apos;" transform="scale(0.041642,0.041511)" xml:space="preserve" x="9843" y="1344"></text></g></svg>